<svg id="Line" xmlns="http://www.w3.org/2000/svg" width="64" height="64" viewBox="0 0 64 64"><title>alphabet</title><polygon points="26.631 48.071 33.387 48.071 30.024 39.161 26.631 48.071" style="fill:#c4a2fc"/><path d="M50,12A13,13,0,0,0,38.007,30.012a17.021,17.021,0,1,0,6.981,6.981A13,13,0,1,0,50,12ZM36.669,53.936a1,1,0,0,1-1.288-.583l-1.239-3.282H25.869l-1.251,3.285a1,1,0,1,1-1.869-.712L28.757,36.87A1.365,1.365,0,0,1,30.025,36h0a1.359,1.359,0,0,1,1.261.844l5.964,15.8A1,1,0,0,1,36.669,53.936ZM50.294,30.069c-.6,0-2.779.01-2.779.01H47.51a1,1,0,0,1-1-1V20.921a1,1,0,0,1,1-1h2.37a2.873,2.873,0,0,1,2.4,4.465,3.182,3.182,0,0,1-1.982,5.683Z" style="fill:#c4a2fc"/><path d="M50.294,25.678c-1.19,0-.968,0-1.784,0v2.4c.658,0,1.456-.006,1.784-.006a1.2,1.2,0,1,0,0-2.391Z" style="fill:#c4a2fc"/><path d="M49.88,23.675a.877.877,0,0,0,0-1.754H48.51v1.757Z" style="fill:#c4a2fc"/><path d="M48,26H29.815A2.967,2.967,0,0,0,30,25V5a3,3,0,0,0-3-3H7A3,3,0,0,0,4,5V25a2.966,2.966,0,0,0,.184,1H4a3,3,0,0,0-3,3V49a3,3,0,0,0,3,3H24a2.981,2.981,0,0,0,2-.78A2.981,2.981,0,0,0,28,52H48a3,3,0,0,0,3-3V29A3,3,0,0,0,48,26ZM6,5A1,1,0,0,1,7,4H27a1,1,0,0,1,1,1V25a1,1,0,0,1-1,1H7a1,1,0,0,1-1-1ZM24,50H4a1,1,0,0,1-1-1V29a1,1,0,0,1,1-1H24a1,1,0,0,1,1,1V49A1,1,0,0,1,24,50Zm25-1a1,1,0,0,1-1,1H28a1,1,0,0,1-1-1V29a1,1,0,0,1,1-1H48a1,1,0,0,1,1,1Z" style="fill:#151a6a"/><path d="M15.281,30.969a1.411,1.411,0,0,0-1.256-.84A1.361,1.361,0,0,0,12.762,31L6.851,46.515a1,1,0,1,0,1.869.712l1.227-3.222h8.117l1.215,3.219a1,1,0,1,0,1.871-.706ZM10.709,42.005,14.024,33.3l3.285,8.705Z" style="fill:#151a6a"/><path d="M12.2,23.871h0s4.207-.019,5.367-.019a5.219,5.219,0,0,0,2.464-9.83,4.62,4.62,0,0,0-3.263-7.893H12.2a1,1,0,0,0-1,1V22.871A1,1,0,0,0,12.2,23.871Zm5.371-2.019c-.8,0-3.049.009-4.371.014V15.385c3.673-.015,1.7,0,4.371-.008a3.238,3.238,0,0,1,0,6.475Zm-.8-13.723a2.623,2.623,0,1,1,0,5.245l-3.572,0V8.129Z" style="fill:#151a6a"/><path d="M43.754,44.1a5.651,5.651,0,0,1-.548.566A5.42,5.42,0,0,1,39.48,46a7,7,0,1,1,3.914-12.8,1,1,0,1,0,1.119-1.657A9,9,0,1,0,39.48,48a7.294,7.294,0,0,0,5.806-2.616A1,1,0,0,0,43.754,44.1Z" style="fill:#151a6a"/></svg>