<?xml version="1.0" encoding="iso-8859-1"?>
<!-- Generator: Adobe Illustrator 19.0.0, SVG Export Plug-In . SVG Version: 6.00 Build 0)  -->
<svg xmlns="http://www.w3.org/2000/svg" xmlns:xlink="http://www.w3.org/1999/xlink" version="1.1" id="Layer_1" x="0px" y="0px" viewBox="0 0 512.001 512.001" style="enable-background:new 0 0 512.001 512.001;" xml:space="preserve">
<path style="fill:#C6E545;" d="M335.74,107.69c-17.711,0-35.157-6.024-43.98-9.615l-6.266-2.55l0.984-6.692  c2.132-14.492,9.739-49.715,34.287-63.743c7.891-4.508,17.427-6.793,28.344-6.793c17.708,0,35.156,6.023,43.98,9.614l6.266,2.549  l-0.984,6.693c-2.132,14.492-9.739,49.715-34.287,63.743C356.195,105.405,346.658,107.69,335.74,107.69z"/>
<path style="fill:#CBD31E;" d="M369.244,62.994c-17.711,0-35.157-6.024-43.98-9.615l-6.266-2.55l0.984-6.692  c0.746-5.071,2.167-12.683,4.744-21.033c-1.357,0.611-2.688,1.258-3.961,1.985c-24.547,14.029-32.155,49.25-34.287,63.743  l-0.984,6.692l6.266,2.55c8.824,3.59,26.269,9.615,43.98,9.615c10.918,0,20.455-2.285,28.345-6.794  c15.958-9.12,24.753-27.194,29.542-42.709C386.57,61.366,378.4,62.994,369.244,62.994z"/>
<path style="fill:#E27849;" d="M292.748,504.456c-12.571,0-24.869-2.112-36.555-6.278c-11.682,4.165-23.98,6.278-36.555,6.278  c-60.237,0-122.175-53.464-147.274-127.125C49.276,309.57,56.603,234.704,91.032,186.599c23.274-32.518,56.481-49.705,96.032-49.705  c15.954,0,31.85,3.318,47.246,9.862l5.052,2.147l36.385-1.253l4.923-1.969c14.576-5.83,29.6-8.787,44.654-8.787  c39.55,0,72.758,17.187,96.032,49.705c34.428,48.104,41.755,122.972,18.666,190.731  C414.923,450.992,352.986,504.456,292.748,504.456z"/>
<path style="fill:#D35E2F;" d="M349.445,474.814c-60.237,0-122.175-53.465-147.274-127.125  c-23.089-67.761-15.762-142.627,18.667-190.732c3.001-4.193,6.17-8.126,9.494-11.805c-14.151-5.476-28.685-8.257-43.269-8.257  c-39.55,0-72.758,17.187-96.031,49.704C56.604,234.704,49.276,309.57,72.366,377.331c25.098,73.661,87.036,127.125,147.273,127.125  c12.575,0,24.872-2.113,36.555-6.278c11.685,4.166,23.983,6.278,36.555,6.278c28.736,0,57.855-12.174,83.181-32.895  C367.325,473.71,358.458,474.814,349.445,474.814z"/>
<path style="fill:#845210;" d="M257.549,213.303c-1.299,0-2.59-0.045-3.838-0.135l-0.745-0.054l-0.724-0.18  c-6.544-1.631-11.436-7.238-12.177-13.953l-0.034-0.32l-5.749-163.771c-0.119-3.363,1.886-6.438,5.01-7.688l37.808-15.124  c5.521-2.209,11.431,2.182,10.911,8.105l-15.652,178.434c-0.64,7.293-6.109,13.276-13.302,14.554l-0.747,0.133H257.549z"/>
<path style="fill:#6D4009;" d="M274.159,172.492c-6.544-1.631-11.436-7.238-12.177-13.953l-0.034-0.32l-4.849-138.14l-17.808,7.123  c-3.124,1.25-5.129,4.326-5.01,7.688l5.749,163.771l0.034,0.32c0.741,6.715,5.633,12.324,12.177,13.953l0.724,0.18l0.745,0.054  c1.248,0.089,2.54,0.135,3.838,0.135h0.759l0.747-0.133c7.193-1.277,12.662-7.261,13.302-14.554l2.281-26.005L274.159,172.492z"/>
<path d="M452.421,302.655c-4.296,0-7.805,3.373-8.046,7.663c-1.202,21.368-5.329,43.143-12.515,64.232  c-23.944,70.277-82.449,121.284-139.111,121.284c-11.642,0-23.022-1.963-33.828-5.837c-1.761-0.632-3.695-0.632-5.456,0  c-10.804,3.874-22.184,5.837-33.826,5.837c-56.66,0-115.164-51.007-139.11-121.283c-22.221-65.213-15.344-137.018,17.517-182.933  c21.586-30.159,52.367-46.1,89.019-46.1c14.872,0,29.555,3.089,43.872,9.175l1.514,43.141c-7.993-4.348-13.086-9.262-13.667-9.836  c-3.158-3.145-8.269-3.141-11.422,0.011c-3.157,3.158-3.157,8.276,0,11.433c0.495,0.495,12.332,12.195,30.108,18.122  c4.718,1.573,10.11,2.805,15.967,3.236c0.907,0.103,1.824,0.172,2.758,0.172c0.162,0,0.318-0.019,0.479-0.023  c0.392,0.008,0.779,0.028,1.175,0.028c14.21,0,30.749-5.105,47.179-21.535c3.228-3.23,3.155-8.51-0.221-11.647  c-3.194-2.967-8.276-2.707-11.367,0.368c-4.527,4.502-9.05,7.915-13.504,10.434l3.94-44.907c13.55-5.42,27.416-8.17,41.45-8.17  c36.651,0,67.433,15.941,89.019,46.102c15.015,20.979,24.594,47.369,28.461,76.063c0.54,4.009,3.928,7.016,7.972,7.016l0,0  c4.871,0,8.629-4.298,7.979-9.125c-4.22-31.349-14.749-60.288-31.264-83.364c-24.751-34.582-60.08-52.86-102.167-52.86  c-13.509,0-26.84,2.194-39.889,6.534l2.729-31.107c9.007,3.75,27.805,10.422,47.549,10.422c10.918,0,22.125-2.044,32.114-7.75  c34.358-19.633,38.647-73.667,38.814-75.958c0.237-3.275-1.531-6.367-4.472-7.827c-2.057-1.019-50.783-24.76-85.145-5.123  c-10.273,5.87-17.856,14.817-23.446,24.535l2.99-34.081c0.171-1.951-0.265-3.944-1.4-5.54c-2.253-3.17-6.244-4.233-9.639-2.876  l-53.896,21.558c-3.166,1.267-5.197,4.382-5.077,7.79l3.761,107.132c-14.119-5.119-28.581-7.709-43.254-7.709  c-42.087,0-77.417,18.278-102.166,52.859c-35.8,50.019-43.522,127.566-19.674,197.557c13.244,38.87,35.513,72.178,64.399,96.324  c27.704,23.16,59.673,35.913,90.016,35.913c12.533,0,24.815-1.965,36.555-5.845c11.74,3.88,24.023,5.845,36.555,5.845  c30.343,0,62.313-12.754,90.017-35.912c28.887-24.146,51.155-57.455,64.4-96.324c7.667-22.501,12.053-45.779,13.307-68.675  C460.722,306.498,457.019,302.655,452.421,302.655L452.421,302.655z M325.044,32.578c21.315-12.177,52.586-1.646,64.795,3.321  c-1.919,13.048-8.726,45.334-30.033,57.51c-21.314,12.179-52.585,1.648-64.795-3.321C296.929,77.04,303.736,44.755,325.044,32.578z   M279.328,20.473l-15.562,177.389c-0.306,3.495-2.884,6.226-6.218,6.817c-1.088,0-2.163-0.037-3.223-0.112  c-3.029-0.755-5.335-3.299-5.69-6.531l-5.723-162.997L279.328,20.473z"/>
<g>
</g>
<g>
</g>
<g>
</g>
<g>
</g>
<g>
</g>
<g>
</g>
<g>
</g>
<g>
</g>
<g>
</g>
<g>
</g>
<g>
</g>
<g>
</g>
<g>
</g>
<g>
</g>
<g>
</g>
</svg>
