<?xml version="1.0" encoding="iso-8859-1"?>
<!-- Generator: Adobe Illustrator 19.0.0, SVG Export Plug-In . SVG Version: 6.00 Build 0)  -->
<svg xmlns="http://www.w3.org/2000/svg" xmlns:xlink="http://www.w3.org/1999/xlink" version="1.1" id="Layer_1" x="0px" y="0px" viewBox="0 0 511.999 511.999" style="enable-background:new 0 0 511.999 511.999;" xml:space="preserve">
<path style="fill:#FEE570;" d="M489.995,83.767H22.004c-7.023,0-12.719,5.695-12.719,12.718v58.041h493.428V96.485  C502.713,89.462,497.02,83.767,489.995,83.767z"/>
<path style="fill:#FDBF00;" d="M470.524,83.767v70.76h32.189V96.485c0-7.025-5.694-12.719-12.719-12.719  C489.995,83.767,470.524,83.767,470.524,83.767z"/>
<path style="fill:#F2F2F2;" d="M489.995,461.253H22.004c-7.025,0-12.719-5.694-12.719-12.719V154.526h493.428v294.009  C502.713,455.56,497.02,461.253,489.995,461.253z"/>
<path style="fill:#E6E6E6;" d="M470.524,154.526v306.727h19.471c7.025,0,12.719-5.694,12.719-12.719V154.526H470.524z"/>
<rect x="61.774" y="200.639" style="fill:#FC3F49;" width="62.051" height="62.051"/>
<g>
	<rect x="170.579" y="200.639" style="fill:#84C9FE;" width="62.051" height="62.051"/>
	<rect x="279.379" y="200.639" style="fill:#84C9FE;" width="62.051" height="62.051"/>
	<rect x="388.179" y="200.639" style="fill:#84C9FE;" width="62.051" height="62.051"/>
	<rect x="61.774" y="316.149" style="fill:#84C9FE;" width="62.051" height="62.051"/>
	<rect x="170.579" y="316.149" style="fill:#84C9FE;" width="62.051" height="62.051"/>
	<rect x="279.379" y="316.149" style="fill:#84C9FE;" width="62.051" height="62.051"/>
	<rect x="388.179" y="316.149" style="fill:#84C9FE;" width="62.051" height="62.051"/>
</g>
<g>
	<path style="fill:#F2D144;" d="M69.368,83.767v20.505c0,15.029,12.227,27.256,27.256,27.256h10.2   c15.029,0,27.256-12.227,27.256-27.256V83.767H69.368z"/>
	<path style="fill:#F2D144;" d="M377.92,83.767v20.505c0,15.029,12.227,27.256,27.256,27.256h10.2   c15.029,0,27.256-12.227,27.256-27.256V83.767H377.92z"/>
</g>
<g>
	<rect x="9.285" y="154.521" style="fill:#E6E6E6;" width="493.425" height="11.528"/>
	<path style="fill:#E6E6E6;" d="M106.824,50.745h-10.2c-8.216,0-14.875,6.659-14.875,14.875v38.651   c0,8.216,6.659,14.875,14.875,14.875h10.2c8.216,0,14.875-6.659,14.875-14.875V65.62C121.699,57.406,115.039,50.745,106.824,50.745   z"/>
	<path style="fill:#E6E6E6;" d="M415.376,50.745h-10.2c-8.216,0-14.875,6.659-14.875,14.875v38.651   c0,8.216,6.659,14.875,14.875,14.875h10.2c8.216,0,14.875-6.659,14.875-14.875V65.62C430.251,57.406,423.591,50.745,415.376,50.745   z"/>
</g>
<g>
	<path style="fill:#CCCCCC;" d="M415.376,50.745h-5.101v68.401h5.101c8.214,0,14.875-6.659,14.875-14.875V65.62   C430.251,57.406,423.591,50.745,415.376,50.745z"/>
	<path style="fill:#CCCCCC;" d="M106.824,50.745h-5.101v68.401h5.101c8.214,0,14.875-6.659,14.875-14.875V65.62   C121.699,57.406,115.04,50.745,106.824,50.745z"/>
</g>
<g>
	<path style="fill:#232323;" d="M61.774,271.975h62.051c5.129,0,9.285-4.156,9.285-9.285v-62.051c0-5.129-4.156-9.285-9.285-9.285   H61.774c-5.129,0-9.285,4.156-9.285,9.285v62.051C52.488,267.819,56.645,271.975,61.774,271.975z M71.059,209.924h43.48v43.48   h-43.48V209.924z"/>
	<path style="fill:#232323;" d="M170.574,271.975h62.05c5.129,0,9.285-4.156,9.285-9.285v-62.051c0-5.129-4.156-9.285-9.285-9.285   h-62.05c-5.129,0-9.285,4.156-9.285,9.285v62.051C161.288,267.819,165.446,271.975,170.574,271.975z M179.859,209.924h43.479v43.48   h-43.479V209.924z"/>
	<path style="fill:#232323;" d="M279.375,271.975h62.05c5.129,0,9.285-4.156,9.285-9.285v-62.051c0-5.129-4.156-9.285-9.285-9.285   h-62.05c-5.129,0-9.285,4.156-9.285,9.285v62.051C270.09,267.819,274.247,271.975,279.375,271.975z M288.66,209.924h43.479v43.48   H288.66V209.924z"/>
	<path style="fill:#232323;" d="M388.175,271.975h62.051c5.129,0,9.285-4.156,9.285-9.285v-62.051c0-5.129-4.156-9.285-9.285-9.285   h-62.051c-5.129,0-9.285,4.156-9.285,9.285v62.051C378.89,267.819,383.047,271.975,388.175,271.975z M397.46,209.924h43.48v43.48   h-43.48V209.924z"/>
	<path style="fill:#232323;" d="M52.488,378.204c0,5.129,4.156,9.285,9.285,9.285h62.051c5.129,0,9.285-4.156,9.285-9.285v-62.05   c0-5.129-4.156-9.285-9.285-9.285H61.774c-5.129,0-9.285,4.156-9.285,9.285V378.204z M71.059,325.439h43.48v43.479h-43.48V325.439z   "/>
	<path style="fill:#232323;" d="M161.288,378.204c0,5.129,4.156,9.285,9.285,9.285h62.05c5.129,0,9.285-4.156,9.285-9.285v-62.05   c0-5.129-4.156-9.285-9.285-9.285h-62.05c-5.129,0-9.285,4.156-9.285,9.285V378.204z M179.859,325.439h43.479v43.479h-43.479   V325.439z"/>
	<path style="fill:#232323;" d="M270.09,378.204c0,5.129,4.156,9.285,9.285,9.285h62.05c5.129,0,9.285-4.156,9.285-9.285v-62.05   c0-5.129-4.156-9.285-9.285-9.285h-62.05c-5.129,0-9.285,4.156-9.285,9.285V378.204z M288.66,325.439h43.479v43.479H288.66V325.439   z"/>
	<path style="fill:#232323;" d="M378.89,378.204c0,5.129,4.156,9.285,9.285,9.285h62.051c5.129,0,9.285-4.156,9.285-9.285v-62.05   c0-5.129-4.156-9.285-9.285-9.285h-62.051c-5.129,0-9.285,4.156-9.285,9.285V378.204z M397.46,325.439h43.48v43.479h-43.48V325.439   z"/>
	<path style="fill:#232323;" d="M489.995,74.482h-50.459v-8.861c0-13.323-10.838-24.161-24.161-24.161h-10.2   c-13.323,0-24.161,10.838-24.161,24.161v8.861h-24.527c-5.129,0-9.285,4.156-9.285,9.285c0,5.129,4.156,9.285,9.285,9.285h24.527   v11.219c0,13.323,10.838,24.161,24.161,24.161h10.2c13.323,0,24.161-10.838,24.161-24.161V93.053h50.459   c1.893,0,3.433,1.54,3.433,3.432v48.756H18.571V96.485c0-1.892,1.54-3.432,3.433-3.432h50.459v11.219   c0,13.323,10.838,24.161,24.161,24.161h10.2c13.323,0,24.161-10.838,24.161-24.161V93.053h186.452c5.129,0,9.285-4.156,9.285-9.285   c0-5.129-4.156-9.285-9.285-9.285H130.985v-8.861c0-13.323-10.838-24.161-24.161-24.161h-10.2   c-13.323,0-24.161,10.838-24.161,24.161v8.861H22.004C9.871,74.482,0,84.352,0,96.485v58.041v113.462   c0,5.129,4.156,9.285,9.285,9.285s9.285-4.156,9.285-9.285V163.812h474.858v284.723c0,1.893-1.54,3.433-3.433,3.433H22.004   c-1.893,0-3.433-1.54-3.433-3.433V308.071c0-5.129-4.156-9.285-9.285-9.285S0,302.941,0,308.071v140.463   c0,12.134,9.871,22.004,22.004,22.004h467.991c12.134,0,22.004-9.871,22.004-22.004V154.526V96.485   C512,84.352,502.129,74.482,489.995,74.482z M420.965,104.271c0,3.082-2.507,5.59-5.59,5.59h-10.2c-3.082,0-5.59-2.507-5.59-5.59   V65.62c0-3.082,2.507-5.59,5.59-5.59h10.2c3.082,0,5.59,2.507,5.59,5.59V104.271z M91.034,65.62c0-3.082,2.507-5.59,5.59-5.59h10.2   c3.082,0,5.59,2.507,5.59,5.59v38.651c0,3.082-2.507,5.59-5.59,5.59h-10.2c-3.082,0-5.59-2.507-5.59-5.59V65.62z"/>
</g>
<g>
</g>
<g>
</g>
<g>
</g>
<g>
</g>
<g>
</g>
<g>
</g>
<g>
</g>
<g>
</g>
<g>
</g>
<g>
</g>
<g>
</g>
<g>
</g>
<g>
</g>
<g>
</g>
<g>
</g>
</svg>
