<?xml version="1.0" encoding="utf-8"?>
<!-- Generator: Adobe Illustrator 22.0.1, SVG Export Plug-In . SVG Version: 6.00 Build 0)  -->
<svg version="1.1" id="Layer_3" xmlns="http://www.w3.org/2000/svg" xmlns:xlink="http://www.w3.org/1999/xlink" x="0px" y="0px"
	 viewBox="0 0 64 64" style="enable-background:new 0 0 64 64;" xml:space="preserve">
<style type="text/css">
	.st0{fill:#FAF5F5;}
	.st1{fill:#63312D;}
	.st2{fill:#F9A287;}
	.st3{fill:#FCB7A4;}
	.st4{fill:#DB785A;}
	.st5{fill:#E0E0E0;}
	.st6{fill:#84DBFF;}
	.st7{fill:#EFC36A;}
	.st8{fill:#F9DD9D;}
	.st9{fill:#EEC26A;}
	.st10{fill:#A9EBFF;}
	.st11{fill:#52BADB;}
	.st12{fill:#FFFFFF;}
	.st13{fill:#F0EEEE;}
	.st14{fill:#BDBDBD;}
	.st15{fill:#E3DFDF;}
	.st16{fill:#FFE8BB;}
	.st17{fill:#FFF2D2;}
	.st18{fill:#D8C18F;}
	.st19{fill:#EAD194;}
	.st20{fill:#BFA064;}
	.st21{fill:#CCCCCC;}
	.st22{fill:#C5F1FF;}
	.st23{fill:#D3A553;}
	.st24{fill:#67C7E5;}
</style>
<g>
	<path class="st8" d="M31.405,11.296c-3.226,0.149-5.87,2.823-5.986,6.05c-0.068,1.875,0.687,3.572,1.93,4.765
		c0.931,0.893,1.476,2.112,1.476,3.402v0.258h5.759v-0.256c0-1.303,0.568-2.522,1.502-3.429c1.176-1.142,1.908-2.738,1.908-4.507
		C37.994,14.006,35.015,11.129,31.405,11.296z"/>
	<path class="st1" d="M34.584,26.271h-5.76c-0.276,0-0.5-0.224-0.5-0.5v-0.258c0-1.127-0.481-2.235-1.321-3.04
		c-1.395-1.339-2.154-3.214-2.084-5.146c0.126-3.5,2.965-6.369,6.463-6.53l0,0c1.883-0.099,3.655,0.577,5.011,1.871
		s2.102,3.037,2.102,4.91c0,1.849-0.731,3.577-2.06,4.865c-0.871,0.846-1.351,1.937-1.351,3.071v0.256
		C35.084,26.047,34.86,26.271,34.584,26.271z M29.318,25.271h4.771c0.063-1.318,0.644-2.569,1.647-3.544
		c1.133-1.1,1.757-2.572,1.757-4.148c0-1.597-0.637-3.084-1.792-4.188c-1.154-1.103-2.669-1.667-4.273-1.596
		c-2.982,0.139-5.402,2.584-5.51,5.568c-0.061,1.647,0.587,3.246,1.776,4.388C28.67,22.687,29.254,23.958,29.318,25.271z"/>
	<rect x="30.146" y="29.697" class="st8" width="3.117" height="1.884"/>
	<path class="st1" d="M33.263,32.08h-3.117c-0.276,0-0.5-0.224-0.5-0.5v-1.884c0-0.276,0.224-0.5,0.5-0.5h3.117
		c0.276,0,0.5,0.224,0.5,0.5v1.884C33.763,31.857,33.539,32.08,33.263,32.08z M30.645,31.08h2.117v-0.884h-2.117V31.08z"/>
	<path class="st1" d="M33.155,25.771h-1v-3.433c0-0.141,0.059-0.274,0.163-0.369l1.214-1.109l0.674,0.738l-1.051,0.961V25.771z"/>
	<path class="st1" d="M31.253,25.771h-1v-3.212l-1.051-0.961l0.674-0.738l1.214,1.109c0.104,0.095,0.163,0.229,0.163,0.369V25.771z"
		/>
	<path class="st6" d="M46.533,26.769c-1.964,0.046-3.91,0.6-5.562,1.734c-2.964,2.035-4.269,5.546-4.506,9.024L33.86,41.56
		c-0.293,0.453,0.033,1.051,0.572,1.051h1.503v4.905c0,1.168,0.947,2.115,2.115,2.115h5.3v3.081h8.474c0,0,0-5.433,0-5.44
		c0-0.086,1.163-0.754,1.266-0.835c4.143-3.252,5.822-9.838,3.223-14.537C54.433,28.501,50.3,26.68,46.533,26.769z"/>
	<g>
		<g>
			<g>
				<rect x="43.35" y="49.631" class="st10" width="1.757" height="3.081"/>
			</g>
			<g>
				<path class="st10" d="M37.692,47.516v-4.905h-1.503c-0.54,0-0.865-0.598-0.572-1.051l2.605-4.033
					c0.236-3.478,1.542-6.989,4.506-9.023c1.502-1.031,3.248-1.56,5.028-1.686c-0.409-0.034-0.819-0.057-1.223-0.048
					c-1.964,0.046-3.91,0.599-5.562,1.734c-2.964,2.035-4.269,5.546-4.506,9.023L33.86,41.56c-0.293,0.453,0.033,1.051,0.572,1.051
					h1.503v4.905c0,1.168,0.947,2.115,2.115,2.115h1.757C38.639,49.631,37.692,48.684,37.692,47.516z"/>
			</g>
		</g>
	</g>
	<path class="st1" d="M51.824,53.212h-8.474c-0.276,0-0.5-0.224-0.5-0.5v-2.581h-4.8c-1.442,0-2.615-1.173-2.615-2.615v-4.405
		h-1.003c-0.434,0-0.831-0.236-1.038-0.616c-0.207-0.381-0.189-0.843,0.046-1.206l2.535-3.925c0.309-4.107,1.979-7.396,4.712-9.272
		c1.661-1.141,3.678-1.771,5.833-1.822l0,0c4.276-0.082,8.391,2.064,10.229,5.389c2.622,4.74,1.088,11.688-3.352,15.173
		c-0.037,0.029-0.191,0.126-0.387,0.245c-0.164,0.1-0.495,0.301-0.688,0.43v5.207C52.324,52.989,52.101,53.212,51.824,53.212z
		 M43.851,52.212h7.474v-4.94c0-0.34,0.179-0.448,1.168-1.051c0.143-0.087,0.258-0.156,0.3-0.186
		c4.065-3.19,5.482-9.558,3.083-13.894c-1.922-3.474-6.057-4.947-9.331-4.873l0,0c-1.96,0.047-3.79,0.616-5.29,1.646
		c-3.379,2.319-4.139,6.412-4.29,8.646c-0.006,0.084-0.033,0.166-0.079,0.237l-2.604,4.033c-0.051,0.078-0.026,0.149-0.007,0.185
		c0.019,0.035,0.065,0.095,0.159,0.095h1.503c0.276,0,0.5,0.224,0.5,0.5v4.905c0,0.891,0.725,1.615,1.615,1.615h5.3
		c0.276,0,0.5,0.224,0.5,0.5V52.212z"/>
	<path class="st11" d="M59.676,31.9c-1.88-3.399-6.013-5.22-9.78-5.131h-3.363c3.767-0.089,7.9,1.732,9.78,5.131
		c2.599,4.699,0.92,11.285-3.223,14.537c-0.103,0.081-1.266,0.749-1.266,0.835c0,0.008,0,5.44,0,5.44h3.363c0,0,0-5.433,0-5.44
		c0-0.086,1.163-0.754,1.266-0.835C60.596,43.185,62.275,36.599,59.676,31.9z"/>
	<path class="st1" d="M55.187,53.212h-3.363c-0.276,0-0.5-0.224-0.5-0.5v-5.44c0-0.34,0.179-0.448,1.168-1.051
		c0.142-0.087,0.258-0.156,0.3-0.186c4.065-3.19,5.482-9.558,3.083-13.894c-1.825-3.3-5.663-4.798-8.838-4.873h-0.505
		c-0.273,0-0.497-0.221-0.5-0.494s0.215-0.499,0.488-0.506c0.189-0.005,0.379-0.005,0.568,0h2.807
		c4.245-0.104,8.379,2.063,10.218,5.389c2.622,4.74,1.087,11.688-3.352,15.173c-0.037,0.029-0.191,0.126-0.387,0.245
		c-0.164,0.1-0.495,0.301-0.688,0.43v5.207C55.687,52.989,55.464,53.212,55.187,53.212z M52.324,52.212h2.363v-4.94
		c0-0.34,0.179-0.448,1.168-1.051c0.143-0.087,0.258-0.156,0.3-0.186c4.064-3.191,5.481-9.558,3.083-13.894l0,0
		c-1.518-2.744-4.427-4.242-7.188-4.712c2.016,0.943,3.696,2.413,4.7,4.228c2.622,4.74,1.088,11.688-3.352,15.173
		c-0.037,0.029-0.191,0.126-0.387,0.245c-0.164,0.1-0.495,0.301-0.688,0.43V52.212z"/>
	<path class="st2" d="M14.104,26.769c1.964,0.046,3.91,0.6,5.562,1.734c2.964,2.035,4.269,5.546,4.506,9.024l2.605,4.033
		c0.293,0.453-0.033,1.051-0.572,1.051h-1.503v4.905c0,1.168-0.947,2.115-2.115,2.115h-5.3v3.081H8.813c0,0,0-5.433,0-5.44
		c0-0.086-1.163-0.754-1.266-0.835C3.404,43.185,1.725,36.599,4.324,31.9C6.204,28.501,10.337,26.68,14.104,26.769z"/>
	<path class="st3" d="M9.16,46.437C5.017,43.185,3.338,36.599,5.937,31.9c1.695-3.064,5.219-4.831,8.657-5.087
		c-0.164-0.011-0.326-0.04-0.49-0.044c-3.767-0.089-7.9,1.732-9.78,5.131c-2.599,4.699-0.92,11.285,3.223,14.537
		c0.103,0.081,1.266,0.749,1.266,0.835c0,0.008,0,5.44,0,5.44h1.613c0,0,0-5.433,0-5.44C10.426,47.186,9.262,46.517,9.16,46.437z"/>
	<path class="st1" d="M17.287,53.212H8.812c-0.276,0-0.5-0.224-0.5-0.5v-5.207c-0.192-0.129-0.523-0.33-0.687-0.43
		c-0.195-0.119-0.35-0.216-0.386-0.244C2.8,43.346,1.265,36.398,3.887,31.658c1.839-3.324,5.94-5.491,10.229-5.389l0,0
		c2.156,0.052,4.173,0.682,5.833,1.822c2.732,1.875,4.403,5.164,4.712,9.272l2.535,3.925c0.235,0.363,0.253,0.825,0.046,1.206
		c-0.207,0.38-0.604,0.616-1.038,0.616h-1.003v4.405c0,1.442-1.173,2.615-2.614,2.615h-4.8v2.581
		C17.787,52.989,17.563,53.212,17.287,53.212z M9.312,52.212h7.475v-2.581c0-0.276,0.224-0.5,0.5-0.5h5.3
		c0.89,0,1.614-0.725,1.614-1.615v-4.905c0-0.276,0.224-0.5,0.5-0.5h1.503c0.094,0,0.141-0.06,0.159-0.095
		c0.02-0.035,0.044-0.106-0.007-0.185l-2.604-4.033c-0.046-0.071-0.073-0.153-0.079-0.237c-0.151-2.233-0.911-6.327-4.29-8.646
		c-1.499-1.03-3.329-1.6-5.29-1.646c-3.222-0.076-7.409,1.399-9.331,4.873C2.363,36.478,3.78,42.844,7.855,46.043
		c0.031,0.021,0.146,0.091,0.289,0.178c0.989,0.603,1.168,0.711,1.168,1.051V52.212z"/>
	<g>
		<rect x="17.287" y="49.631" class="st4" width="3.279" height="3.081"/>
		<path class="st4" d="M30.056,41.56l-2.605-4.033c-0.236-3.478-1.542-6.989-4.506-9.023c-1.652-1.134-3.598-1.687-5.562-1.734
			h-3.279c1.964,0.046,3.91,0.599,5.562,1.734c2.964,2.035,4.269,5.546,4.505,9.023l2.605,4.033
			c0.293,0.453-0.033,1.051-0.572,1.051h-1.503v4.905c0,1.168-0.947,2.115-2.115,2.115h3.279c1.168,0,2.115-0.947,2.115-2.115
			v-4.905h1.503C30.023,42.611,30.349,42.013,30.056,41.56z"/>
	</g>
	<g>
		<path class="st1" d="M20.565,53.212h-3.278c-0.276,0-0.5-0.224-0.5-0.5v-3.081c0-0.276,0.224-0.5,0.5-0.5h3.278
			c0.276,0,0.5,0.224,0.5,0.5v3.081C21.065,52.989,20.842,53.212,20.565,53.212z M17.787,52.212h2.278v-2.081h-2.278V52.212z"/>
		<path class="st1" d="M25.865,50.131h-3.278c-0.276,0-0.5-0.224-0.5-0.5s0.224-0.5,0.5-0.5c0.89,0,1.614-0.725,1.614-1.615v-4.905
			c0-0.276,0.224-0.5,0.5-0.5h1.503c0.094,0,0.141-0.06,0.159-0.095c0.02-0.035,0.044-0.106-0.007-0.185l-2.604-4.033
			c-0.046-0.071-0.073-0.153-0.079-0.237c-0.151-2.233-0.911-6.327-4.29-8.646c-1.499-1.03-3.329-1.6-5.29-1.646
			c-0.274-0.007-0.491-0.232-0.488-0.506s0.227-0.494,0.5-0.494h3.279c2.167,0.052,4.184,0.682,5.845,1.822
			c2.732,1.876,4.403,5.165,4.712,9.272l2.535,3.925c0.235,0.363,0.252,0.825,0.046,1.206c-0.207,0.38-0.604,0.616-1.038,0.616
			H28.48v4.405C28.48,48.958,27.308,50.131,25.865,50.131z M24.642,49.131h1.224c0.891,0,1.615-0.725,1.615-1.615v-4.905
			c0-0.276,0.224-0.5,0.5-0.5h1.503c0.094,0,0.141-0.06,0.159-0.095c0.02-0.035,0.044-0.106-0.007-0.185l0,0l-2.604-4.033
			c-0.046-0.071-0.073-0.153-0.079-0.237c-0.151-2.233-0.911-6.326-4.29-8.646c-1.139-0.782-2.467-1.299-3.898-1.522
			c0.412,0.206,0.808,0.438,1.186,0.698c2.732,1.875,4.403,5.164,4.712,9.272l2.535,3.925c0.235,0.363,0.253,0.825,0.046,1.206
			c-0.207,0.38-0.604,0.616-1.038,0.616h-1.003v4.405C25.201,48.125,24.992,48.686,24.642,49.131z"/>
	</g>
	<path class="st12" d="M34.088,29.697h-4.767c-0.552,0-1-0.448-1-1v-2.925h6.767v2.925C35.088,29.249,34.64,29.697,34.088,29.697z"
		/>
	<path class="st1" d="M34.088,30.197H29.32c-0.827,0-1.5-0.673-1.5-1.5v-2.925c0-0.276,0.224-0.5,0.5-0.5h6.768
		c0.276,0,0.5,0.224,0.5,0.5v2.925C35.588,29.524,34.915,30.197,34.088,30.197z M28.82,26.272v2.425c0,0.275,0.225,0.5,0.5,0.5
		h4.768c0.275,0,0.5-0.225,0.5-0.5v-2.425H28.82z"/>
	<path class="st1" d="M49.125,40.958H12c-1.379,0-2.5-1.121-2.5-2.5V33.58c0-1.379,1.121-2.5,2.5-2.5h37.125
		c1.379,0,2.5,1.121,2.5,2.5v4.878C51.625,39.837,50.504,40.958,49.125,40.958z M12,32.08c-0.827,0-1.5,0.673-1.5,1.5v4.878
		c0,0.827,0.673,1.5,1.5,1.5h37.125c0.827,0,1.5-0.673,1.5-1.5V33.58c0-0.827-0.673-1.5-1.5-1.5H12z"/>
	<circle class="st8" cx="16.155" cy="36.02" r="1.828"/>
	<path class="st1" d="M16.155,38.348c-1.284,0-2.328-1.044-2.328-2.328s1.044-2.328,2.328-2.328s2.328,1.044,2.328,2.328
		S17.439,38.348,16.155,38.348z M16.155,34.692c-0.732,0-1.328,0.596-1.328,1.328s0.596,1.328,1.328,1.328
		c0.732,0,1.328-0.596,1.328-1.328S16.888,34.692,16.155,34.692z"/>
	<rect x="15.655" y="32.729" class="st1" width="1" height="1.463"/>
	<rect x="15.655" y="37.848" class="st1" width="1" height="1.462"/>
	<rect x="12.864" y="35.52" class="st1" width="1.463" height="1"/>
	<rect x="17.983" y="35.52" class="st1" width="1.462" height="1"/>
	
		<rect x="13.845" y="33.479" transform="matrix(0.7071 -0.7071 0.7071 0.7071 -19.9884 20.1634)" class="st1" width="1" height="1.463"/>
	
		<rect x="17.464" y="37.098" transform="matrix(0.7071 -0.7071 0.7071 0.7071 -21.4875 23.7825)" class="st1" width="1" height="1.463"/>
	
		<rect x="13.614" y="37.329" transform="matrix(0.7071 -0.7071 0.7071 0.7071 -22.5475 21.2234)" class="st1" width="1.463" height="1"/>
	
		<rect x="17.233" y="33.71" transform="matrix(0.7071 -0.7071 0.7071 0.7071 -18.9284 22.7225)" class="st1" width="1.463" height="1"/>
	<rect x="41.469" y="33.986" class="st1" width="5.514" height="1"/>
	<path class="st1" d="M46.036,36.617l-0.717-0.697l1.392-1.434l-1.392-1.435l0.717-0.697l1.73,1.783
		c0.188,0.194,0.188,0.503,0,0.697L46.036,36.617z"/>
	<rect x="41.895" y="37.054" class="st1" width="5.514" height="1"/>
	<path class="st1" d="M42.842,39.685l-1.731-1.782c-0.188-0.194-0.188-0.503,0-0.697l1.731-1.782l0.717,0.697l-1.393,1.434
		l1.393,1.434L42.842,39.685z"/>
	<rect x="28.5" y="32.96" class="st1" width="4.125" height="1"/>
	<rect x="33.596" y="32.96" class="st1" width="1.394" height="1"/>
</g>
</svg>
