<?xml version="1.0" encoding="utf-8"?>
<!-- Generator: Adobe Illustrator 24.0.0, SVG Export Plug-In . SVG Version: 6.00 Build 0)  -->
<svg version="1.1" id="Layer_1" xmlns="http://www.w3.org/2000/svg" xmlns:xlink="http://www.w3.org/1999/xlink" x="0px" y="0px"
	 viewBox="0 0 256 256" enable-background="new 0 0 256 256" xml:space="preserve">
<g>
</g>
<g>
	<path fill="#F0C020" d="M6.21,241.412V58.904c0-5.523,4.477-10,10-10H239.8c5.523,0,10,4.477,10,10v182.509c0,5.523-4.477,10-10,10
		H16.21C10.687,251.412,6.21,246.935,6.21,241.412z"/>
	<rect x="21.21" y="63.904" fill="#EFEFEF" width="213.59" height="172.509"/>
	<path fill="#FC5D3D" d="M146.895,164.897v2.12h-38.84v-2.12c0-2.65,0.58-5.15,1.61-7.4c0-0.01,0.01-0.02,0.01-0.02
		c2.5-5.48,7.69-9.47,13.89-10.28c0.77-0.11,1.56-0.16,2.36-0.16h3.11c0.8,0,1.59,0.05,2.36,0.16c5.02,0.66,9.38,3.4,12.19,7.34
		C145.675,157.458,146.895,161.028,146.895,164.897z"/>
	<path fill="#F0C020" d="M134.845,160.897v6.12h-14.73v-6.12c0-6.26,1.43-11.61,3.45-13.7c0.77-0.11,1.56-0.16,2.36-0.16h3.11
		c0.8,0,1.59,0.05,2.36,0.16C133.415,149.288,134.845,154.638,134.845,160.897z"/>
	<path fill="#FFB69F" d="M146.895,167.018v16.2c0,1.15-0.09,2.29-0.3,3.39c-0.94,5.41-4.11,9.98-8.45,12.83
		c-6.47,4.35-15.14,4.17-21.34,0.01c-4.32-2.84-7.49-7.39-8.44-12.84c-0.21-1.08-0.31-2.22-0.31-3.39v-16.2H146.895z"/>
	<path fill="#FFB69F" d="M192.165,102.128v19.14c0,1.36-0.11,2.69-0.35,3.99v0.01c-1.11,6.34-4.83,11.77-10,15.17
		c-3.62,2.38-7.95,3.76-12.59,3.77c-4.67,0-9-1.38-12.61-3.76c-5.16-3.4-8.86-8.85-9.98-15.18c-0.24-1.28-0.35-2.62-0.35-4v-19.14
		H192.165z"/>
	<path fill="#FFB69F" d="M103.285,117.397v2.73c0,9.32-5.3,16.82-12.55,20.58c-3.25,1.68-6.89,2.62-10.61,2.63
		c-3.79,0.02-7.41-0.92-10.62-2.59c-7.36-3.84-12.55-11.55-12.55-20.62v-14.69c0-2.43,2.18-4.28,4.58-3.88l32.97,5.48
		C99.575,107.878,103.285,112.268,103.285,117.397z"/>
	<g>
		<path fill="#FFB69F" d="M146.635,125.268h-2.67c-3.65,0-6.6-2.96-6.6-6.6c0-3.64,2.94-6.61,6.6-6.61h2.32v9.21
			C146.285,122.647,146.395,123.988,146.635,125.268z"/>
		<path fill="#FFB69F" d="M201.085,118.667c0,3.63-2.94,6.59-6.6,6.59h-2.67c0.24-1.3,0.35-2.63,0.35-3.99v-9.21h2.32
			C198.135,112.058,201.085,115.018,201.085,118.667z"/>
	</g>
	<path fill="#FC5D3D" d="M116.805,199.448v8.59l-4.93,1.49h-0.01l-18.24,5.55c-3.42,1.04-5.96,3.93-6.58,7.44l-2.42,13.88h-5.38
		l-23.86,0.01h-9.27l5.13-21.73l-2.56-19.75h-11.52l0.32-25.2c0.06-4.19,2.61-7.94,6.49-9.53c9.81-4.04,5.01-2.08,16.43-6.76
		c0,12.51,9.83,18.79,19.72,18.85c9.88-0.06,19.71-6.34,19.71-18.85l4.94,2.03l4.9,2.01c0,0-0.01,0.01-0.01,0.02
		c-1.03,2.25-1.61,4.75-1.61,7.4v18.32c0,1.17,0.1,2.31,0.31,3.39C109.315,192.058,112.485,196.608,116.805,199.448z"/>
	<path fill="#B34F33" d="M116.805,199.448v8.59l-4.93,1.49h-0.01l-18.24,5.55c-3.42,1.04-5.96,3.93-6.58,7.44l-2.42,13.88h-5.38
		l2.57-14.79c0.98-5.52,4.91-9.96,10.26-11.6l19.43-5.91v-2.01c-3.26-2.76-5.75-6.34-7.22-10.33c-5.15-0.86-9.08-5.36-9.08-10.74
		c0-4.84,3.18-8.95,7.55-10.37v-5.75c0-3.36,0.72-6.56,2.02-9.43l4.9,2.01c0,0-0.01,0.01-0.01,0.02c-1.03,2.25-1.61,4.75-1.61,7.4
		v18.32c0,1.17,0.1,2.31,0.31,3.39C109.315,192.058,112.485,196.608,116.805,199.448z"/>
	<path fill="#7D7B79" d="M111.595,110.157c0,15.37,0.04,23.49-8.31,36.87c-2.28-4.86-12.55-6.32-12.55-6.32
		c7.25-3.76,12.55-11.26,12.55-20.58v-2.73c0-5.13-3.71-9.52-8.78-10.36l-32.97-5.48c-2.4-0.4-4.58,1.45-4.58,3.88v14.69
		c0,9.07,5.19,16.78,12.55,20.62c0,0-10.38,1.65-12.55,6.28c-8.32-13.36-8.31-21.44-8.31-36.87c0-17.28,13.83-31.29,31.48-31.48
		C97.775,78.868,111.595,92.888,111.595,110.157z"/>
	<polygon fill="#FFB69F" points="51.245,214.677 46.115,236.407 33.745,236.407 37.055,202.718 37.155,194.927 48.685,194.927 	"/>
	<path fill="#FFB69F" d="M99.835,153.438c0,12.51-9.83,18.79-19.71,18.85c-9.89-0.06-19.72-6.34-19.72-18.85
		c3.82-1.54,2.45-0.98,5.11-2.08c2.4-0.98,3.99-3.33,3.99-5.93v-4.68c3.21,1.67,6.83,2.61,10.62,2.59
		c3.72-0.01,7.36-0.95,10.61-2.63v4.72c0,2.6,1.59,4.95,3.99,5.93L99.835,153.438z"/>
	<polygon fill="#FFB69F" points="219.498,236.412 206.261,236.357 204.974,195.449 218.511,195.449 	"/>
	<path fill="#7C7B7A" d="M193.336,81.505l-4.154-2.843c-0.704,3.715-3.954,6.407-7.734,6.407h-24.751
		c-5.686,0-10.412,4.603-10.412,10.415l-0.002,6.644h45.883l2.87-2.913C200.129,94.07,199.27,85.551,193.336,81.505z"/>
	<path fill="#FFB69F" d="M187.995,152.458c-10.2,10.75-27.07,10.71-37.2-0.11l5.82-1.77v-10.13c3.61,2.38,7.94,3.76,12.61,3.76
		c4.64-0.01,8.97-1.39,12.59-3.77v10.14L187.995,152.458z"/>
	<path fill="#72C3E9" d="M204.975,195.458l1.29,40.9h-35.58l-2.41-13.84c-0.62-3.51-3.16-6.4-6.58-7.44l-18.33-5.45l-5.22-1.59v-8.6
		c4.34-2.85,7.51-7.42,8.45-12.83h2.26c3.09,0,5.59-2.51,5.59-5.59c0-3.09-2.5-5.59-5.59-5.59h-1.96v-10.53
		c0-3.87-1.22-7.44-3.31-10.36l5.28-1.6l1.93-0.59c10.13,10.82,27,10.86,37.2,0.11l21.66,6.45c4.03,1.23,7.04,4.63,7.77,8.8
		l4.84,27.75H204.975z"/>
	<path fill="#49A7C4" d="M176.045,236.358h-5.36l-2.41-13.84c-0.62-3.51-3.16-6.4-6.58-7.44l-18.33-5.45l-5.22-1.59v-8.6
		c4.34-2.85,7.51-7.42,8.45-12.83h2.26c3.09,0,5.59-2.51,5.59-5.59c0-3.09-2.5-5.59-5.59-5.59h-1.96v-10.53
		c0-3.87-1.22-7.44-3.31-10.36l5.28-1.6c2.11,3.49,3.33,7.59,3.33,11.96v5.75c4.37,1.42,7.55,5.53,7.55,10.37
		c0,5.38-3.93,9.87-9.07,10.74c-1.47,3.99-3.97,7.57-7.23,10.32v2.03c1.74,0.53,3.22,0.97,10.1,3.02l9.67,2.87
		c5.38,1.65,9.31,6.09,10.28,11.6l2.43,13.96L176.045,236.358z"/>
	<path fill="#FFB69F" d="M154.445,181.018c0,3.08-2.5,5.59-5.59,5.59h-2.26c0.21-1.1,0.3-2.24,0.3-3.39v-7.79h1.96
		C151.945,175.427,154.445,177.927,154.445,181.018z"/>
	<path fill="#FFB69F" d="M143.365,209.628c-4.25,4.48-9.93,6.8-15.72,6.8c-5.73,0-11.47-2.31-15.77-6.9l4.93-1.49v-8.59
		c6.2,4.16,14.87,4.34,21.34-0.01v8.6L143.365,209.628z"/>
	<path fill="#8B72E9" d="M84.625,236.397l2.42-13.88c0.62-3.51,3.16-6.4,6.58-7.44l18.24-5.55h0.01c4.3,4.59,10.04,6.9,15.77,6.9
		c5.79,0,11.47-2.32,15.72-6.8l18.33,5.45c3.42,1.04,5.96,3.93,6.58,7.44l2.41,13.84L84.625,236.397z"/>
	<g>
		<path fill="#C5E5FE" d="M195.878,236.443l-1.487-43.808c-0.047-1.38,1.034-2.537,2.414-2.583c1.367-0.055,2.537,1.033,2.584,2.414
			l1.487,43.808c0.047,1.38-1.034,2.537-2.414,2.583C197.077,238.903,195.925,237.819,195.878,236.443z M196.548,185.056
			c-1.341,0-2.451-1.064-2.497-2.416l-0.102-2.998c-0.046-1.38,1.034-2.536,2.414-2.583c1.375-0.055,2.537,1.034,2.584,2.414
			l0.102,2.998c0.046,1.38-1.034,2.536-2.414,2.583C196.606,185.055,196.577,185.056,196.548,185.056z"/>
	</g>
	<path fill="#FFB69F" d="M108.365,186.608h-2.27c-3.09,0-5.59-2.5-5.59-5.59c0-3.08,2.5-5.59,5.59-5.59h1.96v7.79
		C108.055,184.388,108.155,185.528,108.365,186.608z"/>
	<g>
		<path fill="#FFCBC3" d="M53.114,238.844c-1.344-0.317-2.176-1.663-1.859-3.007l5.022-21.292
			c-3.339-25.756-3.265-24.751-3.373-27.298c-0.059-1.379,1.012-2.545,2.392-2.604c1.393-0.067,2.545,1.013,2.604,2.392
			c0.097,2.278-0.012,1.044,3.395,27.319c0.039,0.299,0.023,0.602-0.046,0.896l-5.127,21.736
			C55.803,238.335,54.449,239.161,53.114,238.844z M55.609,179.644c-0.027,0-0.053,0-0.08-0.001c-1.38-0.043-2.463-1.197-2.42-2.577
			l0.107-3.403c0.043-1.38,1.208-2.471,2.577-2.42c1.38,0.043,2.463,1.197,2.42,2.577l-0.107,3.403
			C58.063,178.576,56.953,179.644,55.609,179.644z"/>
	</g>
	<circle fill="#7D7B79" cx="128.005" cy="13.619" r="9.036"/>
	<g>
		<path d="M71.025,128.427c0.01,0.01,0.01,0.01,0.01,0.01c1.39,3.77,5.05,6.3,9.09,6.31c4.03-0.01,7.69-2.54,9.09-6.3
			c0.48-1.29-0.17-2.73-1.46-3.22c-1.27-0.47-2.75,0.22-3.22,1.47c-0.69,1.82-2.46,3.05-4.41,3.05c-1.99,0-3.71-1.2-4.4-3.05
			c-0.47-1.25-1.95-1.94-3.22-1.47C71.27,125.678,70.546,127.078,71.025,128.427z"/>
		<path d="M71.84,115.372v-1.364c0-1.381-1.119-2.5-2.5-2.5s-2.5,1.119-2.5,2.5v1.364c0,1.381,1.119,2.5,2.5,2.5
			S71.84,116.753,71.84,115.372z"/>
		<path d="M90.905,117.872c1.381,0,2.5-1.119,2.5-2.5v-1.364c0-1.381-1.119-2.5-2.5-2.5s-2.5,1.119-2.5,2.5v1.364
			C88.405,116.753,89.524,117.872,90.905,117.872z"/>
		<path d="M80.123,124.922c1.381,0,2.5-1.119,2.5-2.5v-6.225c0-1.381-1.119-2.5-2.5-2.5s-2.5,1.119-2.5,2.5v6.225
			C77.623,123.803,78.742,124.922,80.123,124.922z"/>
		<path d="M160.195,129.507c1.391,3.74,5.021,6.25,9.03,6.25c4,0,7.63-2.51,9.021-6.25c0.489-1.29-0.171-2.73-1.46-3.21
			c-1.271-0.48-2.75,0.21-3.221,1.46c-0.68,1.8-2.42,3.01-4.34,3.01c-1.96,0-3.66-1.18-4.34-3c-0.47-1.26-1.95-1.94-3.21-1.47
			C160.352,126.78,159.733,128.239,160.195,129.507z"/>
		<path d="M158.546,117.706c1.381,0,2.5-1.119,2.5-2.5v-1.351c0-1.381-1.119-2.5-2.5-2.5s-2.5,1.119-2.5,2.5v1.351
			C156.046,116.586,157.165,117.706,158.546,117.706z"/>
		<path d="M179.899,117.706c1.381,0,2.5-1.119,2.5-2.5v-1.351c0-1.381-1.119-2.5-2.5-2.5s-2.5,1.119-2.5,2.5v1.351
			C177.399,116.586,178.518,117.706,179.899,117.706z"/>
		<path d="M169.222,123.869c1.381,0,2.5-1.119,2.5-2.5v-6.164c0-1.381-1.119-2.5-2.5-2.5s-2.5,1.119-2.5,2.5v6.164
			C166.722,122.75,167.841,123.869,169.222,123.869z"/>
		<circle cx="159.375" cy="85.067" r="2.5"/>
		<path d="M119.475,189.147c1.23,3.32,4.45,5.54,8,5.54s6.76-2.22,8-5.54c0.48-1.29-0.18-2.729-1.47-3.21
			c-1.26-0.47-2.75,0.21-3.21,1.46c-1.161,3.066-5.499,3.034-6.63,0.011c-0.47-1.261-1.95-1.95-3.21-1.471
			C119.655,186.417,118.995,187.857,119.475,189.147z"/>
		<path d="M118.439,180.592c1.381,0,2.5-1.119,2.5-2.5v-1.143c0-1.381-1.119-2.5-2.5-2.5s-2.5,1.119-2.5,2.5v1.143
			C115.939,179.473,117.058,180.592,118.439,180.592z"/>
		<path d="M136.511,180.592c1.381,0,2.5-1.119,2.5-2.5v-1.143c0-1.381-1.119-2.5-2.5-2.5s-2.5,1.119-2.5,2.5v1.143
			C134.011,179.473,135.13,180.592,136.511,180.592z"/>
		<circle cx="234.795" cy="104.217" r="2.5"/>
		<path d="M237.295,63.907c0-1.393-1.119-2.5-2.5-2.5H21.215c-1.387,0-2.5,1.108-2.5,2.5v172.51c0,1.391,1.144,2.5,2.5,2.5h213.58
			c1.339,0,2.5-1.094,2.5-2.5v-122.2c0-1.38-1.12-2.5-2.5-2.5c-1.37,0-2.49,1.11-2.49,2.48c0,0.01-0.01,0.01-0.01,0.02v119.7
			h-10.357l-0.867-35.96h1.193c1.549,0,2.73-1.399,2.463-2.93l-4.84-27.751c-0.896-5.122-4.537-9.245-9.519-10.766l-21.66-6.45
			c-0.002,0-0.003,0-0.005-0.001l-4.39-1.335v-6.986c4.671-3.447,8.034-8.411,9.504-13.981h0.667c5.018,0,9.1-4.078,9.1-9.09
			c0-4.963-3.986-9.004-8.92-9.101v-6.42l2.149-2.179c6.21-6.257,5.134-16.615-2.069-21.53l-4.15-2.84
			c-1.497-1.019-3.528-0.173-3.87,1.6c-0.479,2.53-2.7,4.37-5.28,4.37h-12.069c-1.38,0-2.5,1.12-2.5,2.5s1.12,2.5,2.5,2.5h12.069
			c3.641,0,7.051-1.94,8.92-5.07l1.561,1.07c4.594,3.125,5.369,9.802,1.33,13.89l-2.141,2.17h-42.329v-4.14
			c0-2.36,0.989-4.51,2.8-6.04c1.033-0.871,1.196-2.444,0.29-3.52c-0.86-1.01-2.511-1.16-3.53-0.29c-2.9,2.45-4.56,6.04-4.56,9.85
			c0,5.015,0,8.796,0,14.079c-4.934,0.097-8.92,4.139-8.92,9.101c0,5.018,4.082,9.1,9.1,9.1h0.672
			c1.479,5.578,4.833,10.541,9.479,13.98v6.978c-5.835,1.774-1.804,0.549-9.631,2.926c-3.89-4.526-9.583-7.114-15.449-7.114h-3.11
			c-6.961,0-13.645,3.648-17.381,9.774c-9.488-3.897-5.976-2.461-12.874-5.268c-1.457-0.595-2.435-2.048-2.435-3.616v-3.259
			c7.777-4.634,12.55-12.94,12.55-22.04v-2.73c0-6.389-4.572-11.783-10.871-12.826l-32.969-5.479
			c-3.921-0.655-7.491,2.372-7.491,6.346v14.69c0,9.1,4.773,17.418,12.55,22.076v3.224c0,1.568-0.979,3.021-2.445,3.62
			c0,0-3.207,1.278-21.533,8.837c-4.811,1.972-7.967,6.606-8.042,11.813c-0.283,22.275-0.381,29.151-0.429,32.882l-3.078,31.339
			h-7.763V66.397l208.58,0.01v27.81c0,1.38,1.13,2.5,2.5,2.5c1.38,0,2.5-1.12,2.5-2.5V63.907z M105.592,184.057
			c-1.464-0.242-2.587-1.508-2.587-3.04c0-1.519,1.104-2.778,2.55-3.035v5.235C105.555,183.504,105.582,183.776,105.592,184.057z
			 M110.555,183.217v-13.696h33.84v13.696c0,5.895-3.021,11.11-7.646,14.146c-5.458,3.673-13.087,3.675-18.571-0.004
			C113.305,194.155,110.555,188.716,110.555,183.217z M125.511,149.553l3.949,0.011c0.891,0.562,2.885,4.513,2.885,11.565v3.393
			h-9.734v-3.393C122.611,154.039,124.627,150.081,125.511,149.553z M149.395,177.982c1.447,0.257,2.551,1.516,2.551,3.035
			c0,1.532-1.123,2.797-2.587,3.04c0.01-0.281,0.036-0.552,0.036-0.84V177.982z M117.529,210.43c1.055-0.318,1.776-1.29,1.776-2.393
			v-4.468c2.607,1.05,5.387,1.585,8.169,1.585c2.785,0,5.566-0.537,8.171-1.589v4.471c0,1.109,0.71,2.069,1.771,2.39l0.839,0.256
			c-3.124,2.104-6.772,3.244-10.609,3.244c-3.87,0-7.548-1.167-10.691-3.324L117.529,210.43z M111.164,212.354
			c4.508,4.251,10.302,6.573,16.481,6.573c6.153,0,11.929-2.29,16.426-6.481l16.896,5.023c2.527,0.769,4.384,2.869,4.844,5.477
			l1.911,10.972h-12.01l-0.266-3.091c-0.118-1.376-1.343-2.383-2.705-2.277c-1.376,0.118-2.396,1.33-2.277,2.705l0.229,2.663
			h-45.938l0.229-2.663c0.118-1.375-0.901-2.587-2.277-2.705c-1.371-0.11-2.586,0.902-2.705,2.277l-0.266,3.091H87.595l1.912-10.966
			c0.461-2.613,2.318-4.714,4.846-5.482L111.164,212.354z M216.938,233.917h-8.248l-1.134-35.96h8.516L216.938,233.917z
			 M214.962,168.137l4.329,24.82c-5.423,0-9.543,0-11.893,0l-0.423-13.445c-0.044-1.379-1.157-2.47-2.578-2.42
			c-1.38,0.044-2.463,1.197-2.42,2.578c0.755,24,0.495,15.741,1.71,54.247h-30.889l-2.061-11.835
			c-0.79-4.477-3.976-8.077-8.328-9.401c-21.959-6.529-17.029-5.052-21.764-6.494v-5.459c3.865-2.904,6.671-7.02,7.946-11.62h0.264
			c4.461,0,8.091-3.63,8.091-8.091c0-4.279-3.342-7.782-7.551-8.062v-3.434h10.075c1.381,0,2.5-1.119,2.5-2.5s-1.119-2.5-2.5-2.5
			h-10.09c-0.054-2.99-0.744-5.878-2.028-8.513l2.728-0.827c10.808,10.369,27.731,10.435,38.628,0.099l20.218,6.021
			C212.079,162.261,214.393,164.882,214.962,168.137z M159.115,150.578v-5.966c3.166,1.369,6.593,2.095,10.114,2.095
			c3.504-0.008,6.922-0.738,10.085-2.107v5.977c0,1.101,0.72,2.071,1.772,2.392l1.901,0.578c-8.109,5.958-19.15,5.929-27.221-0.099
			l1.576-0.479C158.396,152.649,159.115,151.678,159.115,150.578z M198.585,118.667c0,2.215-1.777,4.015-3.983,4.078
			c0.028-0.49,0.063-0.977,0.063-1.478v-6.692C196.841,114.672,198.585,116.463,198.585,118.667z M139.865,118.667
			c0-2.204,1.744-3.995,3.92-4.092v6.692c0,0.51,0.036,0.996,0.063,1.488C141.643,122.693,139.865,120.888,139.865,118.667z
			 M148.785,121.268v-16.64h40.88v16.64c0,11.252-9.118,20.415-20.44,20.44C157.715,141.708,148.785,132.352,148.785,121.268z
			 M144.39,164.521h-7.045v-3.393c0-3.447-0.46-7.004-1.411-9.94C140.939,153.709,144.253,158.741,144.39,164.521z M119.022,151.191
			c-0.951,2.935-1.411,6.491-1.411,9.937v3.393h-7.052C110.693,158.977,113.847,153.8,119.022,151.191z M59.455,120.127v-14.69
			c0-0.892,0.798-1.561,1.67-1.414l32.971,5.48c3.876,0.642,6.689,3.962,6.689,7.894v2.73c0,12.416-10.26,20.682-20.674,20.71
			C68.504,140.775,59.455,131.378,59.455,120.127z M66.46,153.672c3.369-1.376,5.545-4.612,5.545-8.245v-0.921
			c5.318,1.788,10.862,1.775,16.23-0.041v0.962c0,3.633,2.176,6.869,5.548,8.246l3.469,1.411
			c-0.839,10.015-9.266,14.656-17.112,14.703c-7.877-0.047-16.308-4.686-17.152-14.696C64.654,154.421,64.231,154.595,66.46,153.672
			z M39.985,169.764c0.046-3.195,1.984-6.043,4.942-7.255c9.661-3.985,8.35-3.448,13.244-5.454
			c1.754,11.582,11.906,17.672,21.97,17.732c10.031-0.061,20.174-6.149,21.929-17.729l4.406,1.808
			c-0.607,1.944-0.92,3.962-0.92,6.031c0,2.988,0,4.811,0,8.057c-4.209,0.28-7.55,3.784-7.55,8.062c0,4.191,3.26,8.091,8.367,8.091
			c1.287,4.628,4.09,8.742,7.933,11.631v5.442c-6.973,2.11,2.11-0.651-21.407,6.505c-4.337,1.319-7.523,4.919-8.315,9.401
			l-2.062,11.83H49.272l4.407-18.666c0.069-0.293,0.085-0.597,0.046-0.896c-3.371-26.004-3.539-26.262-3.411-29.997l0.331-10.539
			c0.043-1.38-1.04-2.533-2.42-2.577c-1.354-0.034-2.534,1.041-2.577,2.421l-0.331,10.531c-0.072,2.112,0.05,4.583,0.336,6.775
			l0.188,1.457h-6.144L39.985,169.764z M39.543,202.961c0.007-0.07,0.011-0.142,0.012-0.212l0.068-5.322h6.865l2.219,17.119
			l-4.573,19.371h-7.632L39.543,202.961z"/>
		<path d="M239.805,46.407h-80.867l-21.77-25.808c1.482-1.941,2.373-4.356,2.373-6.98c0-6.361-5.175-11.537-11.536-11.537
			c-6.361,0-11.536,5.175-11.536,11.537c0,2.625,0.891,5.039,2.373,6.98l-21.77,25.808H16.205c-6.89,0-12.49,5.61-12.5,12.5v182.51
			c0.01,6.89,5.61,12.49,12.5,12.49h19.35c1.37,0,2.5-1.12,2.5-2.49c0-1.38-1.13-2.5-2.5-2.5h-19.35c-4.12-0.01-7.49-3.38-7.49-7.5
			V58.907c0-4.13,3.37-7.5,7.49-7.5h223.6c4.12,0,7.49,3.37,7.5,7.5v182.51c-0.01,4.12-3.38,7.49-7.5,7.5H55.555
			c-1.38,0-2.5,1.12-2.5,2.5c0,1.37,1.12,2.5,2.5,2.5l184.25-0.01c6.89,0,12.49-5.601,12.49-12.49V58.907
			C252.295,52.018,246.695,46.407,239.805,46.407z M128.005,7.083c3.604,0,6.536,2.932,6.536,6.537c0,3.604-2.932,6.536-6.536,6.536
			c-3.604,0-6.536-2.932-6.536-6.536C121.469,10.015,124.401,7.083,128.005,7.083z M122.657,23.831
			c3.356,1.765,7.335,1.767,10.696,0l19.043,22.576h-48.783L122.657,23.831z"/>
		<path d="M45.555,248.917c-1.38,0-2.51,1.12-2.51,2.5c0,1.37,1.13,2.49,2.51,2.49c1.37,0,2.5-1.12,2.5-2.49
			C48.055,250.038,46.925,248.917,45.555,248.917z"/>
		<path d="M127.478,184.636c1.381,0,2.5-1.119,2.5-2.5v-2.238c0-1.381-1.119-2.5-2.5-2.5s-2.5,1.119-2.5,2.5v2.238
			C124.978,183.517,126.097,184.636,127.478,184.636z"/>
		<path d="M101.164,145.705c-0.731,1.171-0.374,2.713,0.797,3.444c1.173,0.731,2.714,0.374,3.445-0.798
			c8.729-13.988,8.688-22.544,8.688-38.193c0-18.849-14.91-33.775-33.997-33.98c-19.039,0.206-33.953,15.131-33.953,34.038
			c0,15.594,0,24.184,8.688,38.134c0.73,1.172,2.272,1.53,3.444,0.801c1.172-0.729,1.53-2.271,0.8-3.443
			c-7.932-12.737-7.932-20.342-7.932-35.549c0-16.075,12.741-28.805,28.953-28.98c15.899,0.171,28.997,12.466,28.997,29.2
			C109.095,125.437,109.095,132.996,101.164,145.705z"/>
	</g>
</g>
</svg>
