<?xml version="1.0" encoding="utf-8"?>
<!-- Generator: Adobe Illustrator 22.0.0, SVG Export Plug-In . SVG Version: 6.00 Build 0)  -->
<svg version="1.1" xmlns="http://www.w3.org/2000/svg" xmlns:xlink="http://www.w3.org/1999/xlink" x="0px" y="0px"
	 viewBox="0 0 256 256" style="enable-background:new 0 0 256 256;" xml:space="preserve">
<style type="text/css">
	.st0{display:none;}
	.st1{display:inline;}
	.st2{fill:none;stroke:#6B1D1D;stroke-width:0.5;stroke-miterlimit:10;}
	.st3{fill:#3A312A;}
	.st4{fill:#87796F;}
	.st5{fill:#D5DE58;}
	.st6{fill:#695B51;}
	.st7{fill:#FCE8CB;}
	.st8{fill:#F16C7A;}
	.st9{fill:#8AC6DD;}
	.st10{fill:#DECAAD;}
	.st11{fill:#D6DF58;}
	.st12{fill-rule:evenodd;clip-rule:evenodd;fill:#FCE8CB;}
	.st13{fill:#F5978A;}
	.st14{fill:#D7E057;}
	.st15{fill-rule:evenodd;clip-rule:evenodd;fill:#87796F;}
	.st16{fill:#6CA8BF;}
	.st17{fill:#B9C239;}
	.st18{fill:#D34E5C;}
	.st19{fill:#FAE6CA;}
	.st20{fill:#F8E4C8;}
	.st21{fill:#8AC5DC;}
	.st22{fill:#EF6D7A;}
	.st23{fill:#EB6E7A;}
	.st24{fill:#89C4DB;}
	.st25{fill-rule:evenodd;clip-rule:evenodd;fill:#F16C7A;}
	.st26{fill:#F7E3C7;}
	.st27{fill:#F6E2C6;}
	.st28{fill:#ED6E7A;}
	.st29{fill:#8AC3DA;}
	.st30{fill:#D5DC57;}
	.st31{fill-rule:evenodd;clip-rule:evenodd;fill:#D7E057;}
	.st32{fill-rule:evenodd;clip-rule:evenodd;fill:#F8E4C8;}
	.st33{fill:#D4DB56;}
	.st34{fill:#F59689;}
	.st35{fill:#DDC9AC;}
	.st36{fill:#D24E5C;}
	.st37{fill:#6A5C52;}
	.st38{fill:#6CA6BE;}
	.st39{fill:#B8C136;}
	.st40{fill-rule:evenodd;clip-rule:evenodd;fill:#FAE6CA;}
</style>
<g id="Layer_2" class="st0">
	<g class="st1">
		<g>
			<line class="st2" x1="0" y1="4.829" x2="256" y2="4.829"/>
			<line class="st2" x1="0" y1="16.56" x2="256" y2="16.56"/>
			<line class="st2" x1="0" y1="28.29" x2="256" y2="28.29"/>
			<line class="st2" x1="0" y1="40.021" x2="256" y2="40.021"/>
			<line class="st2" x1="0" y1="51.751" x2="256" y2="51.751"/>
			<line class="st2" x1="0" y1="63.482" x2="256" y2="63.482"/>
			<line class="st2" x1="0" y1="75.213" x2="256" y2="75.213"/>
			<line class="st2" x1="0" y1="86.943" x2="256" y2="86.943"/>
			<line class="st2" x1="0" y1="98.674" x2="256" y2="98.674"/>
			<line class="st2" x1="0" y1="110.404" x2="256" y2="110.404"/>
			<line class="st2" x1="0" y1="122.135" x2="256" y2="122.135"/>
			<line class="st2" x1="0" y1="133.865" x2="256" y2="133.865"/>
			<line class="st2" x1="0" y1="145.596" x2="256" y2="145.596"/>
			<line class="st2" x1="0" y1="157.326" x2="256" y2="157.326"/>
			<line class="st2" x1="0" y1="169.057" x2="256" y2="169.057"/>
			<line class="st2" x1="0" y1="180.788" x2="256" y2="180.788"/>
			<line class="st2" x1="0" y1="192.518" x2="256" y2="192.518"/>
			<line class="st2" x1="0" y1="204.249" x2="256" y2="204.249"/>
			<line class="st2" x1="0" y1="215.979" x2="256" y2="215.979"/>
			<line class="st2" x1="0" y1="227.71" x2="256" y2="227.71"/>
			<line class="st2" x1="0" y1="239.44" x2="256" y2="239.44"/>
			<line class="st2" x1="0" y1="251.171" x2="256" y2="251.171"/>
		</g>
		<g>
			<line class="st2" x1="251.171" y1="0" x2="251.171" y2="256"/>
			<line class="st2" x1="239.44" y1="0" x2="239.44" y2="256"/>
			<line class="st2" x1="227.71" y1="0" x2="227.71" y2="256"/>
			<line class="st2" x1="215.979" y1="0" x2="215.979" y2="256"/>
			<line class="st2" x1="204.249" y1="0" x2="204.249" y2="256"/>
			<line class="st2" x1="192.518" y1="0" x2="192.518" y2="256"/>
			<line class="st2" x1="180.788" y1="0" x2="180.788" y2="256"/>
			<line class="st2" x1="169.057" y1="0" x2="169.057" y2="256"/>
			<line class="st2" x1="157.326" y1="0" x2="157.326" y2="256"/>
			<line class="st2" x1="145.596" y1="0" x2="145.596" y2="256"/>
			<line class="st2" x1="133.865" y1="0" x2="133.865" y2="256"/>
			<line class="st2" x1="122.135" y1="0" x2="122.135" y2="256"/>
			<line class="st2" x1="110.404" y1="0" x2="110.404" y2="256"/>
			<line class="st2" x1="98.674" y1="0" x2="98.674" y2="256"/>
			<line class="st2" x1="86.943" y1="0" x2="86.943" y2="256"/>
			<line class="st2" x1="75.213" y1="0" x2="75.213" y2="256"/>
			<line class="st2" x1="63.482" y1="0" x2="63.482" y2="256"/>
			<line class="st2" x1="51.751" y1="0" x2="51.751" y2="256"/>
			<line class="st2" x1="40.021" y1="0" x2="40.021" y2="256"/>
			<line class="st2" x1="28.29" y1="0" x2="28.29" y2="256"/>
			<line class="st2" x1="16.56" y1="0" x2="16.56" y2="256"/>
			<line class="st2" x1="4.829" y1="0" x2="4.829" y2="256"/>
		</g>
	</g>
</g>
<g id="Layer_1">
	<g>
		<path class="st14" d="M47.967,26.073c0,0,3.408,12.659,13.222,13.246c0,0-13.1,4.525-13.321,14.202
			c0,0-2.579-13.572-12.925-14.059C34.943,39.463,46.993,37.637,47.967,26.073z"/>
		<path class="st3" d="M47.867,55.021c-0.713,0-1.335-0.506-1.472-1.217C46.371,53.68,43.9,41.386,34.872,40.961
			c-0.771-0.037-1.388-0.651-1.428-1.421c-0.04-0.771,0.511-1.445,1.273-1.561c0.441-0.069,10.895-1.817,11.755-12.032
			c0.061-0.725,0.634-1.301,1.359-1.367c0.718-0.067,1.393,0.398,1.583,1.101c0.032,0.116,3.259,11.626,11.863,12.14
			c0.714,0.043,1.298,0.584,1.396,1.292c0.098,0.708-0.319,1.388-0.994,1.623c-0.121,0.042-12.118,4.311-12.313,12.819
			c-0.018,0.767-0.61,1.396-1.375,1.459C47.951,55.02,47.908,55.021,47.867,55.021z M40.125,39.292
			c3.878,1.969,6.23,5.746,7.587,8.877c2.026-4.021,5.942-6.787,8.949-8.427c-4.135-1.842-6.783-5.651-8.334-8.722
			C46.535,35.379,43.057,37.887,40.125,39.292z"/>
		<path class="st14" d="M26.268,43.054c0,0,2.411,8.954,9.352,9.369c0,0-9.266,3.201-9.422,10.045c0,0-1.824-9.6-9.142-9.944
			C17.056,52.525,25.58,51.233,26.268,43.054z"/>
		<path class="st3" d="M26.197,63.969c-0.713,0-1.337-0.507-1.472-1.22c-0.016-0.082-1.704-8.442-7.739-8.726
			c-0.77-0.037-1.387-0.651-1.427-1.421c-0.039-0.771,0.511-1.445,1.273-1.561c0.296-0.047,7.364-1.243,7.942-8.113
			c0.061-0.726,0.635-1.303,1.36-1.368c0.73-0.062,1.392,0.399,1.582,1.101l0,0c0.022,0.079,2.228,7.92,7.993,8.264
			c0.715,0.043,1.299,0.584,1.396,1.293c0.098,0.709-0.319,1.388-0.996,1.622c-0.081,0.028-8.282,2.953-8.412,8.662
			c-0.018,0.767-0.611,1.397-1.376,1.461C26.28,63.967,26.238,63.969,26.197,63.969z M21.678,52.441
			c2.107,1.333,3.523,3.394,4.447,5.28c1.376-2.232,3.515-3.872,5.364-4.973c-2.287-1.269-3.884-3.35-4.941-5.224
			C25.375,49.812,23.534,51.4,21.678,52.441z"/>
		<path class="st14" d="M26.268,16.396c0,0,2.411,8.954,9.352,9.37c0,0-9.266,3.201-9.422,10.045c0,0-1.824-9.6-9.142-9.944
			C17.056,25.867,25.58,24.576,26.268,16.396z"/>
		<path class="st3" d="M26.197,37.312c-0.714,0-1.337-0.507-1.473-1.22c-0.016-0.082-1.704-8.442-7.739-8.726
			c-0.771-0.037-1.388-0.651-1.428-1.421c-0.039-0.771,0.511-1.445,1.273-1.56c0.296-0.047,7.364-1.243,7.942-8.114
			c0.061-0.726,0.635-1.303,1.36-1.368c0.73-0.062,1.392,0.399,1.582,1.102l0,0c0.022,0.079,2.228,7.92,7.994,8.265
			c0.714,0.043,1.299,0.584,1.396,1.293c0.098,0.709-0.32,1.388-0.996,1.622c-0.081,0.028-8.282,2.952-8.412,8.662
			c-0.018,0.767-0.611,1.397-1.376,1.461C26.28,37.31,26.238,37.312,26.197,37.312z M21.678,25.784
			c2.107,1.332,3.523,3.394,4.447,5.28c1.376-2.232,3.515-3.872,5.365-4.972c-2.287-1.269-3.884-3.35-4.941-5.224
			C25.375,23.154,23.534,24.743,21.678,25.784z"/>
		<path class="st9" d="M136.107,239.604h74.917c9.833,0,17.805-7.971,17.805-17.805V49.658c0-9.833-7.971-17.805-17.805-17.805
			H89.128c-9.833,0-17.805,7.971-17.805,17.805v172.141c0,9.833,7.971,17.805,17.805,17.805h34.212H136.107z"/>
		<path class="st3" d="M211.023,241.104h-74.917c-0.829,0-1.5-0.671-1.5-1.5s0.671-1.5,1.5-1.5h74.917
			c8.99,0,16.305-7.314,16.305-16.305V49.658c0-8.99-7.314-16.305-16.305-16.305H89.128c-8.99,0-16.305,7.314-16.305,16.305v172.141
			c0,8.99,7.315,16.305,16.305,16.305h34.211c0.829,0,1.5,0.671,1.5,1.5s-0.671,1.5-1.5,1.5H89.128
			c-10.645,0-19.305-8.66-19.305-19.305V49.658c0-10.645,8.66-19.305,19.305-19.305h121.895c10.645,0,19.305,8.66,19.305,19.305
			v172.141C230.328,232.443,221.667,241.104,211.023,241.104z"/>
		<path class="st14" d="M152.336,76.354h-35.84c-5.299,0-9.594,4.296-9.594,9.594v22.639c0,5.299,4.295,9.594,9.594,9.594h67.159
			c5.299,0,9.594-4.296,9.594-9.594V85.949c0-5.299-4.296-9.594-9.594-9.594H165.11H152.336z"/>
		<path class="st3" d="M183.655,119.682h-67.159c-6.117,0-11.094-4.977-11.094-11.094V85.949c0-6.117,4.977-11.094,11.094-11.094
			h35.84c0.829,0,1.5,0.671,1.5,1.5s-0.671,1.5-1.5,1.5h-35.84c-4.463,0-8.094,3.631-8.094,8.094v22.639
			c0,4.463,3.631,8.094,8.094,8.094h67.159c4.463,0,8.094-3.631,8.094-8.094V85.949c0-4.463-3.631-8.094-8.094-8.094H165.11
			c-0.829,0-1.5-0.671-1.5-1.5s0.671-1.5,1.5-1.5h18.545c6.117,0,11.094,4.977,11.094,11.094v22.639
			C194.749,114.705,189.772,119.682,183.655,119.682z"/>
		<path class="st4" d="M81.574,216.434H60.292c-3.038,0-5.5-2.462-5.5-5.5v-0.455c0-3.038,2.462-5.5,5.5-5.5h21.282
			c3.038,0,5.5,2.462,5.5,5.5v0.455C87.074,213.971,84.611,216.434,81.574,216.434z"/>
		<path class="st3" d="M81.574,217.934H60.292c-3.86,0-7-3.14-7-7v-0.455c0-3.86,3.14-7,7-7h21.282c3.86,0,7,3.14,7,7v0.455
			C88.574,214.794,85.434,217.934,81.574,217.934z M60.292,206.479c-2.206,0-4,1.794-4,4v0.455c0,2.206,1.794,4,4,4h21.282
			c2.206,0,4-1.794,4-4v-0.455c0-2.206-1.794-4-4-4H60.292z"/>
		<path class="st4" d="M81.574,191.441H60.292c-3.038,0-5.5-2.462-5.5-5.5v-0.455c0-3.038,2.462-5.5,5.5-5.5h21.282
			c3.038,0,5.5,2.462,5.5,5.5v0.455C87.074,188.979,84.611,191.441,81.574,191.441z"/>
		<path class="st3" d="M81.574,192.941H60.292c-3.86,0-7-3.14-7-7v-0.455c0-3.86,3.14-7,7-7h21.282c3.86,0,7,3.14,7,7v0.455
			C88.574,189.801,85.434,192.941,81.574,192.941z M60.292,181.486c-2.206,0-4,1.795-4,4v0.455c0,2.206,1.794,4,4,4h21.282
			c2.206,0,4-1.794,4-4v-0.455c0-2.205-1.794-4-4-4H60.292z"/>
		<path class="st4" d="M81.574,166.449H60.292c-3.038,0-5.5-2.462-5.5-5.5v-0.455c0-3.038,2.462-5.5,5.5-5.5h21.282
			c3.038,0,5.5,2.462,5.5,5.5v0.455C87.074,163.986,84.611,166.449,81.574,166.449z"/>
		<path class="st3" d="M81.574,167.949H60.292c-3.86,0-7-3.14-7-7v-0.455c0-3.86,3.14-7,7-7h21.282c3.86,0,7,3.14,7,7v0.455
			C88.574,164.809,85.434,167.949,81.574,167.949z M60.292,156.494c-2.206,0-4,1.794-4,4v0.455c0,2.206,1.794,4,4,4h21.282
			c2.206,0,4-1.794,4-4v-0.455c0-2.206-1.794-4-4-4H60.292z"/>
		<path class="st4" d="M81.574,141.456H60.292c-3.038,0-5.5-2.462-5.5-5.5v-0.455c0-3.038,2.462-5.5,5.5-5.5h21.282
			c3.038,0,5.5,2.462,5.5,5.5v0.455C87.074,138.994,84.611,141.456,81.574,141.456z"/>
		<path class="st3" d="M81.574,142.956H60.292c-3.86,0-7-3.14-7-7v-0.455c0-3.86,3.14-7,7-7h21.282c3.86,0,7,3.14,7,7v0.455
			C88.574,139.816,85.434,142.956,81.574,142.956z M60.292,131.501c-2.206,0-4,1.794-4,4v0.455c0,2.206,1.794,4,4,4h21.282
			c2.206,0,4-1.794,4-4v-0.455c0-2.206-1.794-4-4-4H60.292z"/>
		<path class="st4" d="M81.574,116.464H60.292c-3.038,0-5.5-2.463-5.5-5.5v-0.455c0-3.038,2.462-5.5,5.5-5.5h21.282
			c3.038,0,5.5,2.462,5.5,5.5v0.455C87.074,114.001,84.611,116.464,81.574,116.464z"/>
		<path class="st3" d="M81.574,117.963H60.292c-3.86,0-7-3.14-7-7v-0.455c0-3.86,3.14-7,7-7h21.282c3.86,0,7,3.14,7,7v0.455
			C88.574,114.823,85.434,117.963,81.574,117.963z M60.292,106.509c-2.206,0-4,1.794-4,4v0.455c0,2.205,1.794,4,4,4h21.282
			c2.206,0,4-1.795,4-4v-0.455c0-2.206-1.794-4-4-4H60.292z"/>
		<path class="st4" d="M81.574,91.471H60.292c-3.038,0-5.5-2.463-5.5-5.5v-0.455c0-3.038,2.462-5.5,5.5-5.5h21.282
			c3.038,0,5.5,2.462,5.5,5.5v0.455C87.074,89.009,84.611,91.471,81.574,91.471z"/>
		<path class="st3" d="M81.574,92.971H60.292c-3.86,0-7-3.14-7-7v-0.455c0-3.86,3.14-7,7-7h21.282c3.86,0,7,3.14,7,7v0.455
			C88.574,89.831,85.434,92.971,81.574,92.971z M60.292,81.516c-2.206,0-4,1.794-4,4v0.455c0,2.206,1.794,4,4,4h21.282
			c2.206,0,4-1.794,4-4v-0.455c0-2.206-1.794-4-4-4H60.292z"/>
		<path class="st4" d="M81.574,66.479H60.292c-3.038,0-5.5-2.462-5.5-5.5v-0.455c0-3.038,2.462-5.5,5.5-5.5h21.282
			c3.038,0,5.5,2.462,5.5,5.5v0.455C87.074,64.016,84.611,66.479,81.574,66.479z"/>
		<path class="st3" d="M81.574,67.979H60.292c-3.86,0-7-3.14-7-7v-0.455c0-3.86,3.14-7,7-7h21.282c3.86,0,7,3.14,7,7v0.455
			C88.574,64.838,85.434,67.979,81.574,67.979z M60.292,56.524c-2.206,0-4,1.795-4,4v0.455c0,2.206,1.794,4,4,4h21.282
			c2.206,0,4-1.794,4-4v-0.455c0-2.205-1.794-4-4-4H60.292z"/>
		<path class="st9" d="M201.34,121.67h31.472c3.387,0,6.132,2.746,6.132,6.132v16.893c0,3.387-2.746,6.132-6.132,6.132H201.34
			c-3.387,0-6.132-2.745-6.132-6.132v-16.893C195.207,124.416,197.953,121.67,201.34,121.67z"/>
		<path class="st3" d="M232.811,152.328H201.34c-4.209,0-7.633-3.424-7.633-7.632v-16.893c0-4.208,3.424-7.632,7.633-7.632h31.472
			c4.209,0,7.632,3.424,7.632,7.632v16.893C240.444,148.904,237.02,152.328,232.811,152.328z M201.34,123.17
			c-2.555,0-4.633,2.078-4.633,4.632v16.893c0,2.554,2.078,4.632,4.633,4.632h31.472c2.554,0,4.632-2.078,4.632-4.632v-16.893
			c0-2.554-2.078-4.632-4.632-4.632H201.34z"/>
		<path class="st14" d="M214.993,136.249c0,2.876-2.331,5.207-5.207,5.207c-2.876,0-5.207-2.331-5.207-5.207
			s2.331-5.207,5.207-5.207C212.662,131.042,214.993,133.374,214.993,136.249z"/>
		<path class="st3" d="M209.786,142.956c-3.698,0-6.706-3.008-6.706-6.707c0-3.698,3.008-6.707,6.706-6.707
			c3.698,0,6.707,3.009,6.707,6.707C216.493,139.948,213.484,142.956,209.786,142.956z M209.786,132.542
			c-2.044,0-3.706,1.663-3.706,3.707c0,2.044,1.663,3.707,3.706,3.707c2.044,0,3.707-1.663,3.707-3.707
			C213.493,134.206,211.83,132.542,209.786,132.542z"/>
		<path class="st8" d="M234.699,36.523l3.235-6.4c2.336-4.622,0.483-10.263-4.139-12.599l0,0
			c-4.622-2.336-10.263-0.483-12.599,4.139l-3.235,6.4L234.699,36.523z"/>
		<path class="st3" d="M234.699,38.023c-0.233,0-0.465-0.054-0.677-0.161l-16.738-8.46c-0.739-0.374-1.036-1.276-0.662-2.016
			l3.234-6.4c2.706-5.352,9.262-7.505,14.615-4.801c2.593,1.311,4.521,3.553,5.427,6.312c0.907,2.76,0.684,5.708-0.626,8.302
			l-3.234,6.4c-0.18,0.355-0.493,0.624-0.871,0.749C235.015,37.998,234.857,38.023,234.699,38.023z M219.977,27.401l14.061,7.106
			l2.558-5.061c0.949-1.878,1.11-4.013,0.454-6.012c-0.657-1.999-2.053-3.623-3.931-4.571c-3.878-1.961-8.624-0.4-10.583,3.476
			L219.977,27.401z"/>
		<polygon class="st19" points="234.699,36.523 158.317,186.423 141.579,177.963 217.961,28.063 		"/>
		<path class="st3" d="M158.315,187.923c-0.228,0-0.458-0.052-0.676-0.162l-16.738-8.46c-0.355-0.18-0.626-0.494-0.749-0.873
			c-0.124-0.379-0.092-0.791,0.089-1.147l76.383-149.9c0.376-0.737,1.276-1.028,2.013-0.658l16.738,8.46
			c0.355,0.18,0.625,0.494,0.749,0.873c0.124,0.379,0.092,0.792-0.089,1.147l-76.383,149.9
			C159.388,187.624,158.861,187.923,158.315,187.923z M143.598,177.303l14.061,7.106L232.68,37.183l-14.061-7.106L143.598,177.303z"
			/>
		<polygon class="st8" points="179.645,103.259 141.579,177.963 158.317,186.423 196.383,111.718 		"/>
		<path class="st3" d="M158.315,187.923c-0.228,0-0.458-0.052-0.676-0.162l-16.738-8.46c-0.355-0.18-0.626-0.494-0.749-0.873
			c-0.124-0.379-0.092-0.791,0.089-1.147l38.066-74.704c0.375-0.736,1.273-1.031,2.013-0.658l16.738,8.46
			c0.355,0.18,0.626,0.494,0.749,0.873c0.124,0.379,0.092,0.791-0.089,1.147l-38.066,74.705
			C159.388,187.624,158.861,187.923,158.315,187.923z M143.598,177.303l14.061,7.106l36.705-72.032l-14.061-7.106L143.598,177.303z"
			/>
		<polygon class="st14" points="158.317,186.423 141.579,177.963 139,203.854 		"/>
		<path class="st3" d="M138.999,205.354c-0.23,0-0.462-0.053-0.676-0.161c-0.553-0.28-0.878-0.871-0.816-1.488l2.579-25.891
			c0.049-0.492,0.337-0.928,0.771-1.166c0.435-0.238,0.958-0.246,1.398-0.024l16.738,8.46c0.441,0.223,0.744,0.649,0.81,1.14
			c0.065,0.49-0.115,0.981-0.482,1.313l-19.317,17.431C139.723,205.221,139.363,205.354,138.999,205.354z M142.855,180.289
			l-1.978,19.851l14.811-13.364L142.855,180.289z"/>
		<polygon class="st8" points="132.902,69.854 119.902,57.886 106.902,69.854 106.902,32.354 132.902,32.354 		"/>
		<path class="st3" d="M132.902,71.354c-0.37,0-0.734-0.136-1.017-0.396l-11.984-11.032l-11.984,11.032
			c-0.438,0.403-1.072,0.51-1.619,0.27c-0.545-0.239-0.897-0.778-0.897-1.374v-37.5c0-0.829,0.671-1.5,1.5-1.5h26
			c0.829,0,1.5,0.671,1.5,1.5v37.5c0,0.595-0.352,1.134-0.898,1.374C133.311,71.312,133.105,71.354,132.902,71.354z M119.902,56.386
			c0.364,0,0.729,0.132,1.016,0.396l10.484,9.651v-32.58h-23v32.58l10.484-9.651C119.173,56.518,119.538,56.386,119.902,56.386z"/>
		<polygon class="st16" points="227.326,54.293 227.326,120.174 212.326,120.174 212.326,83.734 		"/>
		<path class="st16" d="M212.326,152.324h15v69.48c0,8.99-7.31,16.3-16.3,16.3h-15c8.99,0,16.3-7.31,16.3-16.3V152.324z"/>
		<path class="st16" d="M232.816,123.174h-15c2.55,0,4.63,2.08,4.63,4.63v16.89c0,2.56-2.08,4.63-4.63,4.63h15
			c2.55,0,4.63-2.07,4.63-4.63v-16.89C237.446,125.254,235.366,123.174,232.816,123.174z"/>
		<path class="st16" d="M202.186,33.354h8.84c0.83,0,1.65,0.08,2.45,0.21l-3.37,6.62C208.216,37.184,205.456,34.793,202.186,33.354z
			"/>
	</g>
</g>
</svg>
