<?xml version="1.0" encoding="utf-8"?>
<!-- Generator: Adobe Illustrator 22.0.0, SVG Export Plug-In . SVG Version: 6.00 Build 0)  -->
<svg version="1.1" xmlns="http://www.w3.org/2000/svg" xmlns:xlink="http://www.w3.org/1999/xlink" x="0px" y="0px"
	 viewBox="0 0 256 256" style="enable-background:new 0 0 256 256;" xml:space="preserve">
<style type="text/css">
	.st0{display:none;}
	.st1{display:inline;}
	.st2{fill:none;stroke:#6B1D1D;stroke-width:0.5;stroke-miterlimit:10;}
	.st3{fill:#3A312A;}
	.st4{fill:#87796F;}
	.st5{fill:#D5DE58;}
	.st6{fill:#695B51;}
	.st7{fill:#FCE8CB;}
	.st8{fill:#F16C7A;}
	.st9{fill:#8AC6DD;}
	.st10{fill:#DECAAD;}
	.st11{fill:#D6DF58;}
	.st12{fill-rule:evenodd;clip-rule:evenodd;fill:#FCE8CB;}
	.st13{fill:#F5978A;}
	.st14{fill:#D7E057;}
	.st15{fill-rule:evenodd;clip-rule:evenodd;fill:#87796F;}
	.st16{fill:#6CA8BF;}
	.st17{fill:#B9C239;}
	.st18{fill:#D34E5C;}
	.st19{fill:#FAE6CA;}
	.st20{fill:#F8E4C8;}
	.st21{fill:#8AC5DC;}
	.st22{fill:#EF6D7A;}
	.st23{fill:#EB6E7A;}
	.st24{fill:#89C4DB;}
	.st25{fill-rule:evenodd;clip-rule:evenodd;fill:#F16C7A;}
	.st26{fill:#F7E3C7;}
	.st27{fill:#F6E2C6;}
	.st28{fill:#ED6E7A;}
	.st29{fill:#8AC3DA;}
	.st30{fill:#D5DC57;}
	.st31{fill-rule:evenodd;clip-rule:evenodd;fill:#D7E057;}
	.st32{fill-rule:evenodd;clip-rule:evenodd;fill:#F8E4C8;}
	.st33{fill:#D4DB56;}
	.st34{fill:#F59689;}
	.st35{fill:#DDC9AC;}
	.st36{fill:#D24E5C;}
	.st37{fill:#6A5C52;}
	.st38{fill:#6CA6BE;}
	.st39{fill:#B8C136;}
	.st40{fill-rule:evenodd;clip-rule:evenodd;fill:#FAE6CA;}
</style>
<g id="Layer_2" class="st0">
	<g class="st1">
		<g>
			<line class="st2" x1="0" y1="4.829" x2="256" y2="4.829"/>
			<line class="st2" x1="0" y1="16.56" x2="256" y2="16.56"/>
			<line class="st2" x1="0" y1="28.29" x2="256" y2="28.29"/>
			<line class="st2" x1="0" y1="40.021" x2="256" y2="40.021"/>
			<line class="st2" x1="0" y1="51.751" x2="256" y2="51.751"/>
			<line class="st2" x1="0" y1="63.482" x2="256" y2="63.482"/>
			<line class="st2" x1="0" y1="75.213" x2="256" y2="75.213"/>
			<line class="st2" x1="0" y1="86.943" x2="256" y2="86.943"/>
			<line class="st2" x1="0" y1="98.674" x2="256" y2="98.674"/>
			<line class="st2" x1="0" y1="110.404" x2="256" y2="110.404"/>
			<line class="st2" x1="0" y1="122.135" x2="256" y2="122.135"/>
			<line class="st2" x1="0" y1="133.865" x2="256" y2="133.865"/>
			<line class="st2" x1="0" y1="145.596" x2="256" y2="145.596"/>
			<line class="st2" x1="0" y1="157.326" x2="256" y2="157.326"/>
			<line class="st2" x1="0" y1="169.057" x2="256" y2="169.057"/>
			<line class="st2" x1="0" y1="180.788" x2="256" y2="180.788"/>
			<line class="st2" x1="0" y1="192.518" x2="256" y2="192.518"/>
			<line class="st2" x1="0" y1="204.249" x2="256" y2="204.249"/>
			<line class="st2" x1="0" y1="215.979" x2="256" y2="215.979"/>
			<line class="st2" x1="0" y1="227.71" x2="256" y2="227.71"/>
			<line class="st2" x1="0" y1="239.44" x2="256" y2="239.44"/>
			<line class="st2" x1="0" y1="251.171" x2="256" y2="251.171"/>
		</g>
		<g>
			<line class="st2" x1="251.171" y1="0" x2="251.171" y2="256"/>
			<line class="st2" x1="239.44" y1="0" x2="239.44" y2="256"/>
			<line class="st2" x1="227.71" y1="0" x2="227.71" y2="256"/>
			<line class="st2" x1="215.979" y1="0" x2="215.979" y2="256"/>
			<line class="st2" x1="204.249" y1="0" x2="204.249" y2="256"/>
			<line class="st2" x1="192.518" y1="0" x2="192.518" y2="256"/>
			<line class="st2" x1="180.788" y1="0" x2="180.788" y2="256"/>
			<line class="st2" x1="169.057" y1="0" x2="169.057" y2="256"/>
			<line class="st2" x1="157.326" y1="0" x2="157.326" y2="256"/>
			<line class="st2" x1="145.596" y1="0" x2="145.596" y2="256"/>
			<line class="st2" x1="133.865" y1="0" x2="133.865" y2="256"/>
			<line class="st2" x1="122.135" y1="0" x2="122.135" y2="256"/>
			<line class="st2" x1="110.404" y1="0" x2="110.404" y2="256"/>
			<line class="st2" x1="98.674" y1="0" x2="98.674" y2="256"/>
			<line class="st2" x1="86.943" y1="0" x2="86.943" y2="256"/>
			<line class="st2" x1="75.212" y1="0" x2="75.212" y2="256"/>
			<line class="st2" x1="63.482" y1="0" x2="63.482" y2="256"/>
			<line class="st2" x1="51.751" y1="0" x2="51.751" y2="256"/>
			<line class="st2" x1="40.021" y1="0" x2="40.021" y2="256"/>
			<line class="st2" x1="28.29" y1="0" x2="28.29" y2="256"/>
			<line class="st2" x1="16.56" y1="0" x2="16.56" y2="256"/>
			<line class="st2" x1="4.829" y1="0" x2="4.829" y2="256"/>
		</g>
	</g>
</g>
<g id="Layer_1">
	<g>
		<path class="st14" d="M52.056,26.304c0,0,3.408,12.659,13.222,13.246c0,0-13.1,4.525-13.321,14.202
			c0,0-2.578-13.572-12.925-14.059C39.032,39.693,51.082,37.868,52.056,26.304z"/>
		<path class="st3" d="M51.956,55.252c-0.713,0-1.335-0.506-1.473-1.217c-0.023-0.125-2.494-12.418-11.522-12.844
			c-0.771-0.036-1.388-0.65-1.428-1.421c-0.04-0.77,0.511-1.444,1.273-1.561c0.441-0.068,10.895-1.816,11.755-12.032
			c0.062-0.726,0.635-1.301,1.359-1.367c0.738-0.054,1.394,0.399,1.584,1.102c0.031,0.116,3.259,11.626,11.863,12.142
			c0.714,0.043,1.298,0.584,1.396,1.292c0.098,0.708-0.318,1.388-0.994,1.622c-0.121,0.042-12.119,4.311-12.312,12.819
			c-0.018,0.767-0.61,1.395-1.375,1.46C52.04,55.25,51.998,55.252,51.956,55.252z M44.215,39.522
			c3.878,1.969,6.229,5.746,7.587,8.877c2.026-4.022,5.941-6.788,8.949-8.428c-4.135-1.843-6.783-5.651-8.334-8.723
			C50.624,35.609,47.145,38.118,44.215,39.522z"/>
		<path class="st14" d="M30.358,43.284c0,0,2.411,8.954,9.352,9.369c0,0-9.266,3.201-9.422,10.045c0,0-1.824-9.6-9.142-9.944
			C21.145,52.755,29.669,51.464,30.358,43.284z"/>
		<path class="st3" d="M30.286,64.199c-0.714,0-1.337-0.507-1.473-1.22c-0.016-0.082-1.704-8.442-7.738-8.727
			c-0.77-0.036-1.388-0.65-1.428-1.421c-0.04-0.77,0.511-1.444,1.273-1.561c0.296-0.047,7.363-1.242,7.941-8.113
			c0.062-0.726,0.636-1.303,1.361-1.368c0.72-0.056,1.392,0.399,1.581,1.102l0,0c0.022,0.079,2.229,7.92,7.994,8.265
			c0.714,0.042,1.299,0.584,1.397,1.293c0.097,0.709-0.32,1.388-0.996,1.622c-0.081,0.028-8.282,2.953-8.412,8.662
			c-0.018,0.768-0.611,1.397-1.376,1.461C30.369,64.197,30.327,64.199,30.286,64.199z M25.768,52.672
			c2.106,1.333,3.522,3.393,4.446,5.279c1.376-2.232,3.516-3.872,5.365-4.973c-2.287-1.27-3.884-3.35-4.941-5.224
			C29.465,50.042,27.623,51.631,25.768,52.672z"/>
		<path class="st14" d="M30.358,16.627c0,0,2.411,8.954,9.352,9.37c0,0-9.266,3.201-9.422,10.045c0,0-1.824-9.6-9.142-9.944
			C21.145,26.097,29.669,24.806,30.358,16.627z"/>
		<path class="st3" d="M30.286,37.542c-0.714,0-1.337-0.507-1.473-1.22c-0.016-0.082-1.704-8.442-7.738-8.727
			c-0.77-0.036-1.388-0.65-1.428-1.421c-0.04-0.77,0.511-1.444,1.273-1.561c0.296-0.047,7.363-1.243,7.941-8.113
			c0.062-0.726,0.636-1.303,1.361-1.368c0.72-0.055,1.392,0.399,1.581,1.102l0,0c0.022,0.079,2.229,7.92,7.994,8.265
			c0.714,0.042,1.299,0.584,1.397,1.293c0.097,0.709-0.32,1.388-0.996,1.622c-0.081,0.028-8.282,2.953-8.412,8.662
			c-0.018,0.768-0.611,1.397-1.376,1.461C30.369,37.54,30.327,37.542,30.286,37.542z M25.768,26.015
			c2.106,1.332,3.522,3.394,4.446,5.279c1.376-2.232,3.516-3.872,5.365-4.973c-2.287-1.27-3.884-3.35-4.941-5.224
			C29.465,23.385,27.623,24.973,25.768,26.015z"/>
		<path class="st7" d="M104.803,187.141c0.634,3.185,0.971,6.446,0.971,9.751v0.4h70.522v-0.347c0-13.525,5.217-26.637,14.889-36.09
			c13.325-13.022,21.6-31.187,21.6-51.291c0-39.498-31.916-71.542-71.365-71.75c-39.593-0.208-71.492,30.985-72.126,70.573
			c-0.325,20.266,7.76,38.638,20.989,51.872c3.977,3.979,7.272,8.513,9.796,13.416L104.803,187.141z"/>
		<path class="st3" d="M176.297,198.792h-70.523c-0.828,0-1.5-0.672-1.5-1.5v-0.4c0-3.135-0.316-6.317-0.941-9.457
			c-0.162-0.812,0.365-1.603,1.178-1.764c0.805-0.169,1.603,0.364,1.764,1.178c0.591,2.967,0.922,5.97,0.988,8.943h67.547
			c0.296-13.674,5.846-26.743,15.328-36.01c13.638-13.327,21.148-31.162,21.148-50.218c0-38.533-31.345-70.047-69.873-70.25
			c-0.128-0.001-0.258-0.001-0.387-0.001c-18.609,0-36.078,7.07-49.23,19.936c-13.243,12.956-20.702,30.416-21.002,49.163
			c-0.308,19.186,6.99,37.222,20.549,50.787c4.062,4.064,7.45,8.703,10.069,13.79c0.379,0.736,0.089,1.641-0.648,2.02
			c-0.734,0.377-1.641,0.089-2.021-0.647c-2.476-4.81-5.681-9.198-9.522-13.042c-14.139-14.145-21.749-32.952-21.428-52.957
			c0.313-19.542,8.092-37.746,21.904-51.258c13.715-13.417,31.93-20.792,51.327-20.792c0.135,0,0.268,0,0.402,0.001
			c40.174,0.212,72.857,33.071,72.857,73.25c0,19.87-7.831,38.467-22.051,52.364c-9.176,8.966-14.438,21.729-14.438,35.017v0.347
			C177.797,198.12,177.125,198.792,176.297,198.792z"/>
		<path class="st4" d="M152.973,197.292h-45.025c-3.894,0-7.051,3.157-7.051,7.051l0,0c0,3.894,3.157,7.051,7.051,7.051h66.176
			c3.894,0,7.051-3.157,7.051-7.051l0,0c0-3.894-3.157-7.051-7.051-7.051h-7.43H152.973z"/>
		<path class="st3" d="M174.124,212.895h-66.176c-4.716,0-8.552-3.836-8.552-8.551c0-4.716,3.836-8.552,8.552-8.552h66.176
			c4.715,0,8.551,3.836,8.551,8.552C182.675,209.059,178.839,212.895,174.124,212.895z M107.948,198.792
			c-3.062,0-5.552,2.49-5.552,5.552c0,3.061,2.49,5.551,5.552,5.551h66.176c3.061,0,5.551-2.49,5.551-5.551
			c0-3.062-2.49-5.552-5.551-5.552H107.948z"/>
		<path class="st4" d="M133.672,225.496h40.451c3.894,0,7.051-3.157,7.051-7.051c0-3.894-3.157-7.051-7.051-7.051h-66.176
			c-3.894,0-7.051,3.157-7.051,7.051c0,3.894,3.157,7.051,7.051,7.051h12.046H133.672z"/>
		<path class="st3" d="M174.124,226.996h-40.452c-0.828,0-1.5-0.672-1.5-1.5c0-0.828,0.672-1.5,1.5-1.5h40.452
			c3.061,0,5.551-2.49,5.551-5.551c0-3.061-2.49-5.551-5.551-5.551h-66.176c-3.062,0-5.552,2.49-5.552,5.551
			c0,3.061,2.49,5.551,5.552,5.551h12.046c0.828,0,1.5,0.672,1.5,1.5c0,0.828-0.672,1.5-1.5,1.5h-12.046
			c-4.716,0-8.552-3.836-8.552-8.551c0-4.715,3.836-8.551,8.552-8.551h66.176c4.715,0,8.551,3.836,8.551,8.551
			C182.675,223.16,178.839,226.996,174.124,226.996z"/>
		<path class="st4" d="M119.994,225.496h-11.263c0,7.701,6.243,13.944,13.944,13.944h36.721c7.701,0,13.944-6.243,13.944-13.944
			h-39.668H119.994z"/>
		<path class="st3" d="M159.396,240.94h-36.722c-8.516,0-15.443-6.929-15.443-15.444c0-0.828,0.672-1.5,1.5-1.5h11.263
			c0.828,0,1.5,0.672,1.5,1.5c0,0.828-0.672,1.5-1.5,1.5h-9.673c0.743,6.157,6,10.944,12.354,10.944h36.722
			c6.354,0,11.61-4.787,12.354-10.944h-38.078c-0.828,0-1.5-0.672-1.5-1.5c0-0.828,0.672-1.5,1.5-1.5h39.668
			c0.828,0,1.5,0.672,1.5,1.5C174.84,234.012,167.912,240.94,159.396,240.94z"/>
		<path class="st3" d="M141.036,29.79c-0.828,0-1.5-0.672-1.5-1.5V16.56c0-0.828,0.672-1.5,1.5-1.5c0.828,0,1.5,0.672,1.5,1.5v11.73
			C142.536,29.118,141.864,29.79,141.036,29.79z"/>
		<path class="st3" d="M166.912,33.973c-0.156,0-0.315-0.024-0.473-0.076c-0.786-0.261-1.212-1.11-0.951-1.896l3.695-11.133
			c0.261-0.785,1.105-1.212,1.896-0.951c0.786,0.261,1.212,1.11,0.951,1.896l-3.695,11.133
			C168.127,33.574,167.541,33.973,166.912,33.973z"/>
		<path class="st3" d="M190.152,46.095c-0.312,0-0.627-0.097-0.895-0.298c-0.664-0.495-0.801-1.436-0.306-2.099l7.015-9.402
			c0.494-0.666,1.436-0.802,2.099-0.306c0.664,0.495,0.801,1.436,0.306,2.099l-7.015,9.402
			C191.061,45.887,190.609,46.095,190.152,46.095z"/>
		<path class="st3" d="M208.393,64.921c-0.474,0-0.939-0.224-1.231-0.642c-0.474-0.68-0.308-1.614,0.372-2.089l9.619-6.714
			c0.679-0.472,1.613-0.308,2.089,0.372c0.474,0.68,0.308,1.614-0.372,2.089l-9.619,6.714
			C208.988,64.833,208.689,64.921,208.393,64.921z"/>
		<path class="st3" d="M219.77,88.534c-0.646,0-1.243-0.421-1.437-1.073c-0.236-0.794,0.216-1.629,1.011-1.864l11.244-3.341
			c0.79-0.238,1.629,0.216,1.864,1.011c0.236,0.794-0.216,1.629-1.011,1.864l-11.244,3.341
			C220.056,88.515,219.911,88.534,219.77,88.534z"/>
		<path class="st3" d="M234.855,114.902c-0.017,0-0.032,0-0.049-0.001l-11.725-0.372c-0.828-0.026-1.477-0.719-1.451-1.547
			c0.025-0.812,0.691-1.452,1.498-1.452c0.017,0,0.032,0,0.049,0.001l11.725,0.372c0.828,0.026,1.478,0.719,1.451,1.547
			C236.328,114.262,235.662,114.902,234.855,114.902z"/>
		<path class="st3" d="M229.14,144.308c-0.172,0-0.347-0.029-0.518-0.092l-11.01-4.047c-0.777-0.286-1.176-1.148-0.891-1.926
			c0.286-0.777,1.146-1.177,1.926-0.891l11.01,4.047c0.777,0.286,1.176,1.148,0.891,1.926
			C230.324,143.932,229.75,144.308,229.14,144.308z"/>
		<path class="st3" d="M214.451,170.415c-0.328,0-0.657-0.106-0.934-0.327l-9.175-7.31c-0.648-0.516-0.755-1.46-0.238-2.107
			c0.517-0.647,1.46-0.755,2.107-0.238l9.175,7.31c0.648,0.516,0.755,1.46,0.238,2.107
			C215.329,170.222,214.893,170.415,214.451,170.415z"/>
		<path class="st3" d="M115.159,33.973c-0.629,0-1.215-0.398-1.424-1.027l-3.695-11.133c-0.261-0.786,0.165-1.636,0.951-1.896
			c0.788-0.262,1.635,0.166,1.897,0.951L116.583,32c0.261,0.786-0.165,1.636-0.951,1.896
			C115.475,33.948,115.315,33.973,115.159,33.973z"/>
		<path class="st3" d="M91.92,46.095c-0.457,0-0.909-0.208-1.203-0.604l-7.015-9.402c-0.495-0.663-0.358-1.604,0.306-2.099
			c0.662-0.495,1.604-0.359,2.099,0.306l7.015,9.402c0.495,0.663,0.358,1.604-0.306,2.099C92.547,45.998,92.232,46.095,91.92,46.095
			z"/>
		<path class="st3" d="M73.679,64.921c-0.297,0-0.596-0.088-0.857-0.27l-9.619-6.714c-0.68-0.475-0.846-1.409-0.372-2.089
			c0.475-0.681,1.409-0.845,2.089-0.372l9.619,6.714c0.68,0.475,0.846,1.409,0.372,2.089C74.618,64.697,74.152,64.921,73.679,64.921
			z"/>
		<path class="st3" d="M62.303,88.534c-0.142,0-0.285-0.02-0.428-0.062L50.63,85.131c-0.795-0.235-1.247-1.07-1.011-1.864
			c0.236-0.795,1.072-1.25,1.864-1.011l11.245,3.341c0.795,0.235,1.247,1.07,1.011,1.864C63.546,88.113,62.949,88.534,62.303,88.534
			z"/>
		<path class="st3" d="M47.216,114.902c-0.807,0-1.473-0.641-1.498-1.452c-0.026-0.828,0.623-1.521,1.451-1.547l11.725-0.372
			c0.823-0.039,1.521,0.623,1.547,1.451c0.026,0.828-0.623,1.521-1.451,1.547l-11.725,0.372
			C47.248,114.902,47.232,114.902,47.216,114.902z"/>
		<path class="st3" d="M52.932,144.308c-0.611,0-1.184-0.376-1.408-0.982c-0.285-0.777,0.113-1.64,0.891-1.926l11.011-4.047
			c0.779-0.284,1.64,0.113,1.926,0.891c0.285,0.777-0.113,1.64-0.891,1.926l-11.011,4.047
			C53.278,144.278,53.103,144.308,52.932,144.308z"/>
		<path class="st3" d="M67.62,170.415c-0.441,0-0.878-0.193-1.174-0.565c-0.517-0.647-0.41-1.592,0.238-2.107l9.175-7.31
			c0.649-0.519,1.593-0.409,2.107,0.238c0.517,0.648,0.41,1.592-0.238,2.107l-9.175,7.31
			C68.277,170.309,67.947,170.415,67.62,170.415z"/>
		<path class="st10" d="M211.29,109.56c0,19.06-7.51,36.89-21.15,50.22c-9.49,9.27-15.03,22.34-15.33,36.01h-13.5
			c0.3-13.67,5.84-26.74,15.33-36.01c13.64-13.33,21.15-31.16,21.15-50.22c0-36.41-27.99-66.55-63.58-69.93
			c2.24-0.21,4.51-0.32,6.81-0.32h0.39C179.94,39.52,211.29,71.03,211.29,109.56z"/>
		<path class="st6" d="M179.67,204.34c0,3.06-2.49,5.55-5.55,5.55h-13.5c3.06,0,5.55-2.49,5.55-5.55c0-3.06-2.49-5.55-5.55-5.55
			h13.5C177.18,198.79,179.67,201.28,179.67,204.34z"/>
		<path class="st6" d="M158.25,227h13.5c-0.74,6.15-6,10.94-12.35,10.94h-13.5C152.25,237.94,157.51,233.15,158.25,227z"/>
		<path class="st6" d="M179.67,218.45c0,3.06-2.49,5.55-5.55,5.55h-13.5c3.06,0,5.55-2.49,5.55-5.55c0-3.07-2.49-5.56-5.55-5.56
			h13.5C177.18,212.89,179.67,215.38,179.67,218.45z"/>
		<path class="st14" d="M173.172,69.592c-8.672-6.497-19.443-10.347-31.113-10.347c-28.686,0-51.941,23.255-51.941,51.941
			s23.255,51.941,51.941,51.941S194,139.873,194,111.187c0-12.473-4.4-23.917-11.729-32.871L173.172,69.592z"/>
		<path class="st3" d="M142.059,164.628c-29.467,0-53.44-23.974-53.44-53.441c0-29.468,23.974-53.441,53.44-53.441
			c11.648,0,22.717,3.682,32.013,10.648c0.663,0.496,0.798,1.437,0.301,2.1c-0.495,0.665-1.438,0.798-2.1,0.301
			c-8.773-6.573-19.221-10.048-30.214-10.048c-27.812,0-50.44,22.628-50.44,50.441s22.628,50.441,50.44,50.441
			c27.814,0,50.441-22.628,50.441-50.441c0-11.61-4.045-22.947-11.39-31.921c-0.524-0.642-0.43-1.586,0.211-2.111
			c0.643-0.523,1.586-0.43,2.111,0.211c7.781,9.509,12.067,21.521,12.067,33.821C195.5,140.654,171.526,164.628,142.059,164.628z"/>
		<path class="st3" d="M108.236,98.372c-0.195,0-0.395-0.038-0.586-0.119c-0.763-0.324-1.117-1.205-0.794-1.968
			c5.605-13.182,17.943-22.06,32.202-23.169c5.958-0.47,11.771,0.43,17.273,2.655c0.768,0.311,1.139,1.186,0.828,1.953
			c-0.311,0.768-1.183,1.138-1.953,0.828c-5.069-2.05-10.418-2.874-15.916-2.446c-13.138,1.023-24.509,9.205-29.673,21.353
			C109.375,98.03,108.82,98.372,108.236,98.372z"/>
		<path class="st3" d="M145.378,85.578c-0.486,0-0.964-0.236-1.252-0.673c-0.457-0.69-0.268-1.621,0.424-2.078l9.197-6.082
			l-6.082-9.198c-0.457-0.69-0.267-1.621,0.424-2.078c0.69-0.458,1.621-0.269,2.078,0.424l6.91,10.449
			c0.22,0.332,0.298,0.737,0.219,1.127c-0.079,0.39-0.311,0.732-0.643,0.951l-10.449,6.909
			C145.949,85.498,145.662,85.578,145.378,85.578z"/>
		<path class="st3" d="M164.75,141.528c-0.448,0-0.892-0.2-1.188-0.582c-0.507-0.655-0.387-1.598,0.269-2.105
			c4.324-3.345,7.731-7.557,10.128-12.519c5.73-11.866,4.388-25.809-3.507-36.388c-0.495-0.664-0.359-1.604,0.305-2.1
			c0.664-0.495,1.604-0.359,2.1,0.305c8.566,11.479,10.023,26.609,3.804,39.487c-2.601,5.384-6.299,9.955-10.993,13.587
			C165.394,141.426,165.07,141.528,164.75,141.528z"/>
		<path class="st3" d="M164.678,141.566c-0.773,0-1.431-0.595-1.493-1.38l-1.003-12.486c-0.066-0.826,0.549-1.549,1.375-1.615
			c0.817-0.047,1.55,0.549,1.615,1.375l0.883,10.991l10.991-0.883c0.814-0.051,1.55,0.548,1.615,1.375
			c0.066,0.826-0.549,1.549-1.375,1.615l-12.486,1.003C164.759,141.564,164.719,141.566,164.678,141.566z"/>
		<path class="st3" d="M141.622,149.499c-13.004,0-25.113-6.565-32.188-17.66c-3.214-5.039-5.16-10.588-5.785-16.491
			c-0.088-0.824,0.51-1.562,1.333-1.65c0.83-0.092,1.562,0.51,1.649,1.333c0.576,5.438,2.37,10.55,5.332,15.194
			c7.085,11.111,19.661,17.301,32.804,16.135c0.835-0.071,1.554,0.538,1.626,1.362c0.073,0.825-0.537,1.554-1.362,1.626
			C143.891,149.449,142.752,149.499,141.622,149.499z"/>
		<path class="st3" d="M97.927,126.924c-0.299,0-0.6-0.089-0.862-0.273c-0.678-0.478-0.84-1.413-0.363-2.09l7.213-10.243
			c0.478-0.68,1.413-0.839,2.09-0.363l10.242,7.212c0.678,0.478,0.84,1.413,0.363,2.09c-0.479,0.678-1.414,0.838-2.09,0.363
			l-9.016-6.349l-6.35,9.017C98.862,126.702,98.397,126.924,97.927,126.924z"/>
	</g>
</g>
</svg>
