<svg xmlns="http://www.w3.org/2000/svg" viewBox="0 0 512 512"><title>Artboard 127</title><g id="Louvre_Museum" data-name="Louvre Museum"><path d="M298.66667,54.5013v-33.168H213.33333v33.168C187.93359,69.28385,170.66667,96.49479,170.66667,128v21.33333H341.33333V128C341.33333,96.49479,324.06641,69.28385,298.66667,54.5013Z" style="fill:#242623"/><path d="M277.33333,54.5013v-33.168h-64v33.168C187.93359,69.28385,170.66667,96.49479,170.66667,128v21.33333H320V128C320,96.49479,302.73307,69.28385,277.33333,54.5013Z" style="fill:#3d3f3c"/><rect x="170.66667" y="128" width="42.66667" height="21.33333" style="fill:#242623"/><rect x="192" y="85.33333" width="21.33333" height="21.33333" style="fill:#242623"/><rect x="277.33333" y="85.33332" width="42.66667" height="21.33333" style="fill:#242623"/><rect x="42.66667" y="170.66667" width="426.66667" height="277.33333" style="fill:#cb8c01"/><rect x="42.66667" y="298.66667" width="426.66667" height="21.33333" style="fill:#b37900"/><rect x="42.66667" y="213.33333" width="426.66667" height="21.33333" style="fill:#b37900"/><rect x="341.33333" y="170.66667" width="21.33333" height="277.33333" style="fill:#b37900"/><rect x="426.66667" y="170.66667" width="42.66667" height="277.33333" transform="translate(896 618.66667) rotate(180)" style="fill:#9e6611"/><rect x="426.66667" y="298.66667" width="42.66667" height="21.33333" style="fill:#935d00"/><rect x="426.66667" y="213.33333" width="42.66667" height="21.33333" style="fill:#935d00"/><rect x="21.33333" y="277.33333" width="469.33333" height="21.33333" style="fill:#e0bb69"/><rect x="426.66667" y="277.33325" width="64" height="21.33333" style="fill:#d6a436"/><rect x="341.33333" y="277.32497" width="21.33333" height="21.33333" style="fill:#d6a436"/><path d="M490.66667,170.66667H21.33333V192s21.33341,0,21.33341,21.33333H469.33333C469.33333,192,490.66667,192,490.66667,192Z" style="fill:#d6a436"/><path d="M448,192V170.66667H21.33333V192s21.33334,0,21.33334,21.33333h384C426.66667,192,448,192,448,192Z" style="fill:#e0bb69"/><rect x="21.33333" y="170.66667" width="426.66667" height="21.33333" style="fill:#e9cf95"/><rect x="149.33333" y="170.66667" width="42.66667" height="21.33333" style="fill:#e0bb69"/><rect x="298.66667" y="170.66667" width="64" height="21.33333" style="fill:#e0bb69"/><rect x="298.66667" y="192" width="85.33333" height="21.33333" style="fill:#d6a436"/><rect x="170.66667" y="149.33333" width="170.66667" height="277.33333" style="fill:#e0bb69"/><rect x="213.33333" y="298.66667" width="21.33333" height="42.21233" style="fill:#f4e8cc"/><rect x="213.33333" y="213.33333" width="21.33333" height="21.33333" style="fill:#f4e8cc"/><rect x="170.66667" y="277.33333" width="170.66667" height="21.33333" style="fill:#d6a436"/><rect x="170.66667" y="149.33333" width="170.66667" height="64" style="fill:#d6a436"/><rect x="298.66667" y="149.33333" width="42.66667" height="277.33333" transform="translate(640 576) rotate(180)" style="fill:#cb8c01"/><path d="M362.66667,149.33333H149.33333v21.33334s21.33341,0,21.33341,21.33333H341.33333c0-21.33333,21.33334-21.33333,21.33334-21.33333Z" style="fill:#e0bb69"/><path d="M277.33333,170.66667V149.33333h-128v21.33334s21.33334,0,21.33334,21.33333H256C256,170.66667,277.33333,170.66667,277.33333,170.66667Z" style="fill:#e9cf95"/><rect x="64" y="234.66667" width="21.33333" height="21.33333" style="fill:#403248"/><rect x="85.33333" y="234.66667" width="21.33333" height="21.33333" style="fill:#e0bb69"/><rect x="149.33333" y="234.66667" width="21.33333" height="21.33333" style="fill:#e0bb69"/><rect x="170.66667" y="234.66667" width="21.33333" height="21.33333" style="fill:#e9cf95"/><rect x="170.66667" y="341.33333" width="21.33333" height="21.33333" style="fill:#e9cf95"/><rect x="277.33333" y="298.66667" width="21.33333" height="21.33333" style="fill:#e9cf95"/><rect x="128" y="234.66667" width="21.33333" height="21.33333" style="fill:#403248"/><rect x="64" y="320" width="21.33333" height="42.21233" style="fill:#403248"/><rect x="85.33333" y="320" width="21.33333" height="42.21233" style="fill:#e0bb69"/><rect x="85.33333" y="384" width="21.33333" height="42.21233" style="fill:#e0bb69"/><rect x="149.33333" y="320" width="21.33333" height="42.21233" style="fill:#e0bb69"/><rect x="149.33333" y="384" width="21.33333" height="42.21233" style="fill:#e0bb69"/><rect x="128" y="320" width="21.33333" height="42.21233" style="fill:#403248"/><rect x="192" y="298.66667" width="21.33333" height="42.21233" style="fill:#403248"/><rect x="298.66667" y="298.66667" width="21.33333" height="42.21233" style="fill:#403248"/><path d="M256,213.33333h0a21.33331,21.33331,0,0,1,21.33331,21.33331v20.879a0,0,0,0,1,0,0H234.66667a0,0,0,0,1,0,0v-20.879A21.33331,21.33331,0,0,1,256,213.33333Z" style="fill:#403248"/><rect x="64" y="384" width="21.33333" height="42.21233" style="fill:#403248"/><rect x="128" y="384" width="21.33333" height="42.21233" style="fill:#403248"/><rect x="362.66667" y="234.66667" width="21.33333" height="21.33333" style="fill:#403248"/><rect x="426.66667" y="234.66667" width="21.33333" height="21.33333" style="fill:#2f2038"/><rect x="384" y="234.66667" width="21.33333" height="21.33333" style="fill:#e0bb69"/><rect x="448" y="234.66667" width="21.33333" height="21.33333" style="fill:#cb8c01"/><rect x="362.66667" y="320.94046" width="21.33333" height="41.27187" style="fill:#403248"/><rect x="426.66667" y="320.94046" width="21.33333" height="41.27187" style="fill:#2f2038"/><rect x="362.66667" y="384" width="21.33333" height="42.21233" style="fill:#403248"/><rect x="384" y="320.94046" width="21.33333" height="41.27187" style="fill:#e0bb69"/><rect x="384" y="384" width="21.33333" height="42.21233" style="fill:#e0bb69"/><rect x="426.66667" y="384.94046" width="21.33333" height="41.27187" style="fill:#2f2038"/><rect x="448" y="320.94046" width="21.33333" height="41.27187" style="fill:#cb8c01"/><rect x="448" y="384.94046" width="21.33333" height="41.27187" style="fill:#cb8c01"/><polygon points="64 490.667 256 298.667 448 490.667 64 490.667" style="fill:#5f5366"/><polygon points="64 490.667 256 298.667 448 490.667 64 490.667" style="fill:#5f5366"/><polygon points="341.333 490.667 202.667 352 256 298.667 448 490.667 341.333 490.667" style="fill:#7a7081"/><rect x="144.157" y="394.66781" width="181.01934" height="21.33105" transform="translate(-217.88167 284.65378) rotate(-45)" style="fill:#7a7081"/><rect x="225.45108" y="421.33447" width="135.7645" height="21.33105" transform="translate(-219.55479 333.94786) rotate(-45)" style="fill:#7a7081"/><rect x="319.62097" y="442.66781" width="75.42472" height="21.33105" transform="translate(-215.89456 385.45108) rotate(-45)" style="fill:#7a7081"/><rect x="192.00114" y="376.99355" width="21.33105" height="120.67956" transform="translate(-249.88167 271.39894) rotate(-45)" style="fill:#928a97"/><rect x="128.00114" y="428.49678" width="21.33105" height="60.33978" transform="translate(-283.71178 232.3925) rotate(-45)" style="fill:#928a97"/><rect x="256.00114" y="325.49033" width="21.33105" height="181.01934" transform="translate(-216.05156 310.40539) rotate(-45)" style="fill:#aba4ae"/><rect x="320.00114" y="273.98711" width="21.33105" height="241.35911" transform="translate(-182.22145 349.41183) rotate(-45)" style="fill:#aba4ae"/><polygon points="149.333 170.667 149.333 149.333 170.667 149.333 256 85.333 341.333 149.333 362.667 149.333 362.667 170.667 149.333 170.667" style="fill:#efddb4"/><polygon points="42.667 170.667 64 128 64 106.667 128 106.667 128 128 149.333 170.667 42.667 170.667" style="fill:#242623"/><polygon points="362.667 170.667 384 128 384 106.667 448 106.667 448 128 469.333 170.667 362.667 170.667" style="fill:#242623"/><polygon points="106.667 106.667 64 106.667 64 128 42.667 170.667 128 170.667 106.667 128 106.667 106.667" style="fill:#3d3f3c"/><polygon points="426.667 106.667 384 106.667 384 128 362.667 170.667 448 170.667 426.667 128 426.667 106.667" style="fill:#3d3f3c"/><rect x="240.91506" y="368.91506" width="30.16989" height="30.16989" transform="translate(-196.54834 293.49033) rotate(-45)" style="fill:#403248"/><rect x="118.24839" y="424.45753" width="30.16989" height="15.08494" transform="translate(-266.4177 220.81077) rotate(-45)" style="fill:#2f2038"/><rect x="203.58172" y="339.12419" width="30.16989" height="15.08494" transform="translate(-181.08437 256.157) rotate(-45)" style="fill:#403248"/><rect x="160.91506" y="381.79086" width="30.16989" height="15.08494" transform="translate(-223.75103 238.48389) rotate(-45)" style="fill:#2f2038"/><rect x="198.24839" y="411.58172" width="30.16989" height="30.16989" transform="translate(-239.21501 275.81722) rotate(-45)" style="fill:#2f2038"/><rect x="285.79086" y="331.58172" width="15.08494" height="30.16989" transform="translate(-159.21501 308.95431) rotate(-45)" style="fill:#403248"/><rect x="283.58172" y="411.58172" width="30.16989" height="30.16989" transform="translate(-214.22145 336.157) rotate(-45)" style="fill:#403248"/><rect x="371.12419" y="416.91506" width="15.08494" height="30.16989" transform="translate(-194.56123 394.28764) rotate(-45)" style="fill:#403248"/><rect x="240.91506" y="454.24839" width="30.16989" height="30.16989" transform="translate(-256.88812 318.48389) rotate(-45)" style="fill:#2f2038"/><rect x="326.24839" y="454.24839" width="30.16989" height="30.16989" transform="translate(-231.89456 378.82367) rotate(-45)" style="fill:#403248"/><rect x="413.79086" y="459.58172" width="15.08494" height="30.16989" transform="translate(-212.23434 436.95431) rotate(-45)" style="fill:#403248"/><rect x="155.58172" y="454.24839" width="30.16989" height="30.16989" transform="translate(-281.88167 258.14411) rotate(-45)" style="fill:#2f2038"/><rect x="328.45753" y="374.24839" width="15.08494" height="30.16989" transform="translate(-176.88812 351.62097) rotate(-45)" style="fill:#403248"/><rect x="248.45753" y="301.79086" width="15.08494" height="15.08494" transform="translate(-143.75103 271.62097) rotate(-45)" style="fill:#403248"/><rect x="75.58172" y="467.12419" width="30.16989" height="15.08494" transform="translate(-309.08437 203.13766) rotate(-45)" style="fill:#2f2038"/><rect x="149.33333" y="256" width="213.33333" height="21.33333" style="fill:#efddb4"/><rect x="320" y="256" width="42.66667" height="21.33333" transform="translate(682.66667 533.33333) rotate(180)" style="fill:#e9cf95"/><rect x="192" y="213.33333" width="21.33333" height="21.33333" style="fill:#403248"/><rect x="298.66667" y="213.33333" width="21.33333" height="21.33333" style="fill:#403248"/><rect x="320" y="298.66667" width="21.33333" height="42.21233" style="fill:#e0bb69"/><rect x="320" y="213.33333" width="21.33333" height="21.33333" style="fill:#e0bb69"/><polygon points="256 149.333 341.333 149.333 312.889 128 256 128 256 149.333" style="fill:#e9cf95"/><rect x="277.33333" y="149.33333" width="85.33333" height="21.33333" style="fill:#e9cf95"/><rect x="448" y="170.66667" width="42.66667" height="21.33333" style="fill:#e0bb69"/><rect x="234.66667" y="234.66667" width="21.33333" height="21.33333" style="fill:#25152e"/><rect x="256" y="42.66667" width="42.66667" height="21.33333" style="fill:#242623"/><rect x="213.33333" y="64" width="42.66667" height="21.33333" style="fill:#242623"/><rect x="213.33333" y="21.33333" width="21.33333" height="21.33333" style="fill:#656764"/><rect x="64" y="106.66667" width="21.33333" height="21.33333" style="fill:#656764"/><rect x="384" y="106.66667" width="21.33333" height="21.33333" style="fill:#656764"/><rect x="85.33333" y="127.99998" width="42.66667" height="21.33333" style="fill:#242623"/><rect x="64" y="149.33333" width="21.33333" height="21.33333" style="fill:#242623"/><rect x="405.33333" y="127.99998" width="42.66667" height="21.33333" style="fill:#242623"/><rect x="384" y="149.33333" width="21.33333" height="21.33333" style="fill:#242623"/><rect x="213.33333" y="128" width="21.33333" height="21.33333" style="fill:#f4e8cc"/><rect x="256" y="106.66667" width="21.33333" height="21.33333" style="fill:#f4e8cc"/><rect x="149.33333" y="149.33333" width="21.33333" height="21.33333" style="fill:#f4e8cc"/><rect x="64" y="170.66667" width="21.33333" height="21.33333" style="fill:#efddb4"/><rect x="106.66667" y="170.66667" width="21.33333" height="21.33333" style="fill:#efddb4"/><rect x="85.33333" y="192" width="21.33333" height="21.33333" style="fill:#e9cf95"/><rect x="149.33333" y="192" width="21.33333" height="21.33333" style="fill:#e9cf95"/><rect x="106.66667" y="256" width="21.33333" height="21.33333" style="fill:#d6a436"/><rect x="106.66667" y="341.33333" width="21.33333" height="21.33333" style="fill:#d6a436"/><rect x="42.66667" y="341.33333" width="21.33333" height="21.33333" style="fill:#d6a436"/><rect x="106.66667" y="384" width="21.33333" height="21.33333" style="fill:#d6a436"/><rect x="405.33333" y="256" width="21.33333" height="21.33333" style="fill:#d6a436"/><rect x="405.33333" y="341.33333" width="21.33333" height="21.33333" style="fill:#d6a436"/><rect x="341.33333" y="320" width="21.33333" height="21.33333" style="fill:#cb8c01"/><rect x="42.66667" y="256" width="21.33333" height="21.33333" style="fill:#d6a436"/><rect x="42.66667" y="426.66667" width="21.33333" height="21.33333" style="fill:#d6a436"/></g></svg>