<svg xmlns="http://www.w3.org/2000/svg" viewBox="0 0 340 340"><g id="Layer_21" data-name="Layer 21"><path d="M255.821,113.4A103.578,103.578,0,1,1,58.47,69.351L152.243,9.82A103.578,103.578,0,0,1,255.821,113.4Z" style="fill:#ffdc7a"/><path d="M58.476,69.354,152.243,113.4V9.82A103.586,103.586,0,0,0,58.476,69.354Z" style="fill:#ffa96d"/><path d="M309.321,321.725l-1.331,4.466a2.257,2.257,0,0,1-3.517,1.162l-3.289-2.464a26.687,26.687,0,0,1-9.609-13.842L266.634,226.13a9.157,9.157,0,0,1,6.206-11.367h0a9.158,9.158,0,0,1,11.367,6.206l25.144,85.609A26.7,26.7,0,0,1,309.321,321.725Z" style="fill:#678ad0"/><path d="M247.4,271.1l40.947-12.178a5.835,5.835,0,0,0,3.883-7.469l-2.323-6.868a5.837,5.837,0,0,0-7.173-3.729l-41.232,12.262Z" style="fill:#678ad0"/><path d="M29.572,165.326l-.013,139.981c0,13.536,21.353,24.51,47.7,24.513s47.7-10.968,47.7-24.5l.013-139.981Z" style="fill:#ff6d8d"/><ellipse cx="77.264" cy="165.33" rx="47.699" ry="24.509" style="fill:#ec476e"/><path d="M200.535,174.094h0a9.157,9.157,0,0,1,9.157,9.157V316.7a0,0,0,0,1,0,0H191.378a0,0,0,0,1,0,0V183.251A9.157,9.157,0,0,1,200.535,174.094Z" transform="translate(323.79 537.356) rotate(-163.632)" style="fill:#84b8f7"/><path d="M234.232,174.561h18.315a0,0,0,0,1,0,0V284.939a9.157,9.157,0,0,1-9.157,9.157h0a9.157,9.157,0,0,1-9.157-9.157V174.561a0,0,0,0,1,0,0Z" transform="translate(-56.171 78.085) rotate(-16.368)" style="fill:#84b8f7"/><path d="M222.945,129.451h3.8A6.751,6.751,0,0,1,233.5,136.2v32.476a0,0,0,0,1,0,0h-17.3a0,0,0,0,1,0,0V136.2A6.751,6.751,0,0,1,222.945,129.451Z" style="fill:#797996"/><circle cx="224.845" cy="171.866" r="15.253" style="fill:#797996"/><path d="M174.105,302.965c-1.964,7.184-2.8,16.447.117,25.094a1.523,1.523,0,0,0,2.256.811c7.232-4.658,12.435-13.27,15.331-21.269Z" style="fill:#84b8f7"/><path d="M298.336,256.656l-10.772-36.674a12.657,12.657,0,0,0-24.288,7.134l4.264,14.516-8.087,2.471-18.44-62.782a18.2,18.2,0,0,0,2.361-12.2c8.947-11.426,15.947-36.436,15.947-55.724A107.089,107.089,0,0,0,55.346,67.788c-.012.026-.031.047-.043.073A106.156,106.156,0,0,0,45.165,113.4,107.241,107.241,0,0,0,49,141.849c-13.91,4.956-22.94,13.534-22.94,23.482v139.98c0,15.706,22.49,28.009,51.2,28.009s51.2-12.3,51.2-28.009V217.818a107.32,107.32,0,0,0,69.161-7.426l-27.277,92.871a40.523,40.523,0,0,0-.791,20.211,43.686,43.686,0,0,0,2.509,8.1c1.387,3.135,4.713,1.961,5.321,1.514,1.939-1.425,3.788-2.922,5.5-4.449a41.1,41.1,0,0,0,12-19.093l28.7-97.726,21.92,74.632a12.67,12.67,0,0,0,12.127,9.1,12.739,12.739,0,0,0,3.584-.518,12.657,12.657,0,0,0,8.578-15.711l-3.011-10.252,8.174-2.175,13.258,45.139a30.394,30.394,0,0,0,10.868,15.658s6.6,3.919,8.859,3.264,4.731-8.231,4.731-8.231a30.129,30.129,0,0,0,.034-17.133ZM148.743,13.381v94.506L63.19,67.7A100.62,100.62,0,0,1,148.743,13.381Zm-27.28,291.93c0,11.388-20.241,21.009-44.2,21.009s-44.2-9.621-44.2-21.009V179.659c8.814,8.248,25.13,13.679,44.2,13.679s35.386-5.431,44.2-13.679Zm-44.2-118.973c-23.959,0-44.2-9.62-44.2-21.007s20.241-21.009,44.2-21.009,44.2,9.621,44.2,21.009S101.222,186.338,77.264,186.338Zm74.979,27.139a100.5,100.5,0,0,1-23.78-2.852V165.331c0-15.706-22.489-28.009-51.2-28.009a90,90,0,0,0-21.554,2.519A100.261,100.261,0,0,1,52.165,113.4a99.21,99.21,0,0,1,8.044-39.363l90.546,42.531c3.5,1.346,4.9-.731,4.988-3.168V13.388A100.094,100.094,0,0,1,240.21,161.146,18.92,18.92,0,0,0,237,157.609V136.2a10.263,10.263,0,0,0-10.252-10.251h-3.8A10.262,10.262,0,0,0,212.694,136.2v21.407a18.623,18.623,0,0,0-5.554,20.383l-6.809,23.181A100.114,100.114,0,0,1,152.243,213.477ZM230,136.2v17.647a18.393,18.393,0,0,0-10.3,0V136.2a3.254,3.254,0,0,1,3.251-3.251h3.8A3.255,3.255,0,0,1,230,136.2ZM188.168,307.577c-1.81,6.162-7.046,14.6-11.143,16.884q-.353-1.245-.638-2.518a33.5,33.5,0,0,1,.676-16.707l35.121-119.577a18.665,18.665,0,0,0,10.381,4.807Zm24.924-135.711a11.753,11.753,0,1,1,11.753,11.753A11.766,11.766,0,0,1,213.092,171.866ZM262.617,285.6a5.657,5.657,0,0,1-10.393-1.116L227.235,199.4l2.8-9.531a18.661,18.661,0,0,0,5.438-2.573l27.607,93.995A5.617,5.617,0,0,1,262.617,285.6Zm43.35,35.127-.822,2.758-1.863-1.395a23.334,23.334,0,0,1-8.348-12.028l-14.22-48.412a3.5,3.5,0,0,0-4.258-2.4l-11.644,3.1-3.386-11.53,11.47-3.5a3.5,3.5,0,0,0,2.336-4.334l-5.24-17.839a5.658,5.658,0,0,1,10.857-3.188l10.771,36.673,14.373,48.936A23.146,23.146,0,0,1,305.967,320.725Z" style="fill:#3c3c4f"/></g></svg>