<?xml version="1.0" encoding="utf-8"?>
<!-- Generator: Adobe Illustrator 22.0.0, SVG Export Plug-In . SVG Version: 6.00 Build 0)  -->
<svg version="1.1" xmlns="http://www.w3.org/2000/svg" xmlns:xlink="http://www.w3.org/1999/xlink" x="0px" y="0px"
	 viewBox="0 0 256 256" style="enable-background:new 0 0 256 256;" xml:space="preserve">
<style type="text/css">
	.st0{display:none;}
	.st1{display:inline;}
	.st2{fill:none;stroke:#6B1D1D;stroke-width:0.5;stroke-miterlimit:10;}
	.st3{fill:#3A312A;}
	.st4{fill:#87796F;}
	.st5{fill:#D5DE58;}
	.st6{fill:#695B51;}
	.st7{fill:#FCE8CB;}
	.st8{fill:#F16C7A;}
	.st9{fill:#8AC6DD;}
	.st10{fill:#DECAAD;}
	.st11{fill:#D6DF58;}
	.st12{fill-rule:evenodd;clip-rule:evenodd;fill:#FCE8CB;}
	.st13{fill:#F5978A;}
	.st14{fill:#D7E057;}
	.st15{fill-rule:evenodd;clip-rule:evenodd;fill:#87796F;}
	.st16{fill:#6CA8BF;}
	.st17{fill:#B9C239;}
	.st18{fill:#D34E5C;}
	.st19{fill:#FAE6CA;}
	.st20{fill:#F8E4C8;}
	.st21{fill:#8AC5DC;}
	.st22{fill:#EF6D7A;}
	.st23{fill:#EB6E7A;}
	.st24{fill:#89C4DB;}
	.st25{fill-rule:evenodd;clip-rule:evenodd;fill:#F16C7A;}
	.st26{fill:#F7E3C7;}
	.st27{fill:#F6E2C6;}
	.st28{fill:#ED6E7A;}
	.st29{fill:#8AC3DA;}
	.st30{fill:#D5DC57;}
	.st31{fill-rule:evenodd;clip-rule:evenodd;fill:#D7E057;}
	.st32{fill-rule:evenodd;clip-rule:evenodd;fill:#F8E4C8;}
	.st33{fill:#D4DB56;}
	.st34{fill:#F59689;}
	.st35{fill:#DDC9AC;}
	.st36{fill:#D24E5C;}
	.st37{fill:#6A5C52;}
	.st38{fill:#6CA6BE;}
	.st39{fill:#B8C136;}
	.st40{fill-rule:evenodd;clip-rule:evenodd;fill:#FAE6CA;}
</style>
<g id="Layer_2" class="st0">
	<g class="st1">
		<g>
			<line class="st2" x1="0" y1="4.829" x2="256" y2="4.829"/>
			<line class="st2" x1="0" y1="16.56" x2="256" y2="16.56"/>
			<line class="st2" x1="0" y1="28.29" x2="256" y2="28.29"/>
			<line class="st2" x1="0" y1="40.021" x2="256" y2="40.021"/>
			<line class="st2" x1="0" y1="51.751" x2="256" y2="51.751"/>
			<line class="st2" x1="0" y1="63.482" x2="256" y2="63.482"/>
			<line class="st2" x1="0" y1="75.213" x2="256" y2="75.213"/>
			<line class="st2" x1="0" y1="86.943" x2="256" y2="86.943"/>
			<line class="st2" x1="0" y1="98.674" x2="256" y2="98.674"/>
			<line class="st2" x1="0" y1="110.404" x2="256" y2="110.404"/>
			<line class="st2" x1="0" y1="122.135" x2="256" y2="122.135"/>
			<line class="st2" x1="0" y1="133.865" x2="256" y2="133.865"/>
			<line class="st2" x1="0" y1="145.596" x2="256" y2="145.596"/>
			<line class="st2" x1="0" y1="157.326" x2="256" y2="157.326"/>
			<line class="st2" x1="0" y1="169.057" x2="256" y2="169.057"/>
			<line class="st2" x1="0" y1="180.788" x2="256" y2="180.788"/>
			<line class="st2" x1="0" y1="192.518" x2="256" y2="192.518"/>
			<line class="st2" x1="0" y1="204.249" x2="256" y2="204.249"/>
			<line class="st2" x1="0" y1="215.979" x2="256" y2="215.979"/>
			<line class="st2" x1="0" y1="227.71" x2="256" y2="227.71"/>
			<line class="st2" x1="0" y1="239.44" x2="256" y2="239.44"/>
			<line class="st2" x1="0" y1="251.171" x2="256" y2="251.171"/>
		</g>
		<g>
			<line class="st2" x1="251.171" y1="0" x2="251.171" y2="256"/>
			<line class="st2" x1="239.44" y1="0" x2="239.44" y2="256"/>
			<line class="st2" x1="227.71" y1="0" x2="227.71" y2="256"/>
			<line class="st2" x1="215.979" y1="0" x2="215.979" y2="256"/>
			<line class="st2" x1="204.249" y1="0" x2="204.249" y2="256"/>
			<line class="st2" x1="192.518" y1="0" x2="192.518" y2="256"/>
			<line class="st2" x1="180.788" y1="0" x2="180.788" y2="256"/>
			<line class="st2" x1="169.057" y1="0" x2="169.057" y2="256"/>
			<line class="st2" x1="157.326" y1="0" x2="157.326" y2="256"/>
			<line class="st2" x1="145.596" y1="0" x2="145.596" y2="256"/>
			<line class="st2" x1="133.865" y1="0" x2="133.865" y2="256"/>
			<line class="st2" x1="122.135" y1="0" x2="122.135" y2="256"/>
			<line class="st2" x1="110.404" y1="0" x2="110.404" y2="256"/>
			<line class="st2" x1="98.674" y1="0" x2="98.674" y2="256"/>
			<line class="st2" x1="86.943" y1="0" x2="86.943" y2="256"/>
			<line class="st2" x1="75.213" y1="0" x2="75.213" y2="256"/>
			<line class="st2" x1="63.482" y1="0" x2="63.482" y2="256"/>
			<line class="st2" x1="51.751" y1="0" x2="51.751" y2="256"/>
			<line class="st2" x1="40.021" y1="0" x2="40.021" y2="256"/>
			<line class="st2" x1="28.29" y1="0" x2="28.29" y2="256"/>
			<line class="st2" x1="16.56" y1="0" x2="16.56" y2="256"/>
			<line class="st2" x1="4.829" y1="0" x2="4.829" y2="256"/>
		</g>
	</g>
</g>
<g id="Layer_1">
	<g>
		<path class="st14" d="M47.661,26.211c0,0,3.408,12.659,13.222,13.246c0,0-13.1,4.525-13.321,14.202
			c0,0-2.578-13.572-12.925-14.059C34.637,39.6,46.687,37.775,47.661,26.211z"/>
		<path class="st3" d="M47.561,55.159c-0.713,0-1.335-0.506-1.472-1.217c-0.024-0.124-2.495-12.417-11.523-12.842
			c-0.771-0.037-1.388-0.651-1.428-1.421c-0.04-0.771,0.511-1.445,1.273-1.561c0.441-0.069,10.894-1.818,11.754-12.033
			c0.061-0.725,0.634-1.301,1.359-1.367c0.724-0.066,1.392,0.398,1.583,1.101c0.032,0.116,3.259,11.626,11.863,12.14
			c0.714,0.043,1.298,0.584,1.396,1.292c0.098,0.708-0.319,1.388-0.994,1.623c-0.121,0.042-12.118,4.311-12.312,12.819
			c-0.018,0.767-0.61,1.396-1.375,1.459C47.645,55.157,47.603,55.159,47.561,55.159z M39.82,39.429
			c3.878,1.969,6.23,5.746,7.587,8.876c2.026-4.022,5.941-6.787,8.949-8.427c-4.134-1.842-6.783-5.651-8.334-8.722
			C46.229,35.516,42.75,38.024,39.82,39.429z"/>
		<path class="st14" d="M25.962,43.191c0,0,2.411,8.954,9.352,9.369c0,0-9.266,3.201-9.422,10.045c0,0-1.824-9.6-9.142-9.944
			C16.75,52.662,25.274,51.37,25.962,43.191z"/>
		<path class="st3" d="M25.891,64.106c-0.713,0-1.337-0.507-1.472-1.22c-0.016-0.082-1.704-8.441-7.739-8.725
			c-0.771-0.037-1.388-0.651-1.428-1.421c-0.04-0.771,0.511-1.445,1.273-1.561c0.296-0.047,7.364-1.243,7.942-8.114
			c0.061-0.726,0.635-1.303,1.36-1.368c0.73-0.066,1.392,0.4,1.582,1.102l0,0c0.021,0.079,2.227,7.92,7.994,8.265
			c0.714,0.043,1.299,0.584,1.396,1.293c0.098,0.709-0.32,1.388-0.996,1.622c-0.081,0.028-8.282,2.952-8.413,8.661
			c-0.018,0.767-0.611,1.397-1.376,1.461C25.974,64.104,25.932,64.106,25.891,64.106z M21.373,52.579
			c2.106,1.332,3.523,3.394,4.447,5.28c1.376-2.232,3.515-3.872,5.365-4.972c-2.287-1.27-3.884-3.35-4.941-5.224
			C25.069,49.949,23.228,51.538,21.373,52.579z"/>
		<path class="st14" d="M25.962,16.534c0,0,2.411,8.954,9.352,9.37c0,0-9.266,3.201-9.422,10.045c0,0-1.824-9.6-9.142-9.944
			C16.75,26.004,25.274,24.713,25.962,16.534z"/>
		<path class="st3" d="M25.891,37.449c-0.713,0-1.337-0.507-1.472-1.22c-0.016-0.082-1.704-8.441-7.739-8.726
			c-0.77-0.037-1.387-0.651-1.427-1.421c-0.04-0.771,0.511-1.445,1.273-1.561c0.296-0.047,7.364-1.243,7.942-8.114
			c0.061-0.726,0.635-1.303,1.36-1.368c0.73-0.067,1.392,0.399,1.582,1.101l0,0c0.021,0.079,2.227,7.92,7.994,8.265
			c0.714,0.043,1.299,0.584,1.396,1.293c0.098,0.709-0.32,1.388-0.996,1.622c-0.081,0.028-8.282,2.952-8.413,8.662
			c-0.018,0.767-0.611,1.398-1.376,1.461C25.974,37.447,25.932,37.449,25.891,37.449z M21.372,25.921
			c2.107,1.333,3.523,3.394,4.447,5.28c1.376-2.232,3.515-3.872,5.365-4.972c-2.287-1.27-3.884-3.35-4.941-5.224
			C25.069,23.291,23.228,24.88,21.372,25.921z"/>
		<path class="st4" d="M66.738,91.608l-0.027,135.04c-0.001,6.991,5.665,12.66,12.656,12.661l147.183,0.029
			c6.991,0.001,12.66-5.665,12.661-12.656l0.039-197.016c0.001-6.991-5.665-12.66-12.656-12.661l-147.183-0.03
			c-6.991-0.001-12.66,5.665-12.661,12.656l-0.01,48.743L66.738,91.608z"/>
		<path class="st3" d="M226.552,240.838c-0.001,0-0.002,0-0.003,0l-147.183-0.03c-3.782,0-7.337-1.474-10.011-4.149
			c-2.674-2.675-4.146-6.23-4.145-10.013l0.027-135.04c0-0.828,0.672-1.499,1.5-1.499c0,0,0,0,0,0c0.828,0,1.5,0.672,1.5,1.5
			l-0.027,135.04c0,2.98,1.16,5.783,3.267,7.891c2.107,2.108,4.909,3.269,7.89,3.27l147.183,0.03c0,0,0.001,0,0.002,0
			c2.979,0,5.781-1.16,7.888-3.267c2.108-2.107,3.27-4.909,3.27-7.89l0.04-197.016c0.001-2.98-1.16-5.783-3.267-7.891
			c-2.107-2.108-4.909-3.27-7.89-3.27L79.411,18.476c0,0-0.001,0-0.002,0c-2.98,0-5.781,1.16-7.889,3.267
			c-2.108,2.107-3.269,4.909-3.27,7.89l-0.01,48.742c0,0.828-0.672,1.5-1.5,1.5c0,0,0,0,0,0c-0.828,0-1.5-0.672-1.5-1.501
			l0.01-48.742c0.001-3.782,1.474-7.337,4.149-10.011c2.674-2.673,6.229-4.145,10.009-4.145c0.001,0,0.002,0,0.003,0l147.183,0.029
			c3.782,0.001,7.337,1.474,10.011,4.149s4.146,6.231,4.145,10.013l-0.04,197.016c-0.001,3.782-1.474,7.337-4.149,10.011
			C233.888,239.366,230.333,240.838,226.552,240.838z"/>
		<path class="st14" d="M174.545,31.264l-86.905-0.017c-2.972-0.001-5.381,2.408-5.382,5.379l-0.011,53.158
			c-0.001,2.971,2.408,5.381,5.379,5.381l130.717,0.026c2.971,0.001,5.381-2.408,5.381-5.379l0.011-53.158
			c0.001-2.972-2.408-5.381-5.379-5.381l-31.4-0.006L174.545,31.264z"/>
		<path class="st3" d="M218.346,96.691c-0.001,0-0.001,0-0.002,0L87.627,96.665c-1.837,0-3.565-0.716-4.865-2.016
			c-1.299-1.3-2.015-3.028-2.014-4.866l0.011-53.158c0.001-1.838,0.716-3.565,2.016-4.865c1.299-1.299,3.027-2.014,4.864-2.014
			c0,0,0.001,0,0.001,0l86.904,0.018c0.828,0,1.5,0.672,1.5,1.5c0,0.828-0.672,1.499-1.5,1.499c0,0,0,0-0.001,0L87.64,32.746h0
			c-1.036,0-2.011,0.403-2.744,1.136c-0.733,0.732-1.137,1.707-1.137,2.743l-0.011,53.159c0,1.036,0.403,2.011,1.136,2.744
			c0.732,0.733,1.707,1.137,2.744,1.137l130.717,0.026h0.001c2.139,0,3.88-1.74,3.88-3.879l0.011-53.159
			c0.001-1.037-0.403-2.011-1.136-2.744c-0.733-0.733-1.707-1.137-2.744-1.137l-31.401-0.006c-0.828,0-1.499-0.672-1.499-1.501
			c0-0.828,0.672-1.5,1.5-1.5c0,0,0,0,0.001,0l31.401,0.006c1.837,0,3.565,0.716,4.864,2.016c1.299,1.3,2.015,3.028,2.014,4.866
			l-0.011,53.158C225.226,93.605,222.139,96.691,218.346,96.691z"/>
		<path class="st7" d="M104.555,138.881H87.471c-2.984,0-5.403-2.419-5.403-5.403v-17.084c0-2.984,2.419-5.403,5.403-5.403h17.084
			c2.984,0,5.403,2.419,5.403,5.403v17.084C109.958,136.462,107.539,138.881,104.555,138.881z"/>
		<path class="st3" d="M104.555,140.381H87.471c-3.807,0-6.903-3.097-6.903-6.903v-17.083c0-3.807,3.097-6.903,6.903-6.903h17.084
			c3.807,0,6.903,3.097,6.903,6.903v17.083C111.458,137.284,108.361,140.381,104.555,140.381z M87.471,112.491
			c-2.152,0-3.903,1.751-3.903,3.903v17.083c0,2.152,1.751,3.903,3.903,3.903h17.084c2.152,0,3.903-1.751,3.903-3.903v-17.083
			c0-2.152-1.751-3.903-3.903-3.903H87.471z"/>
		<path class="st7" d="M142.533,138.881h-17.084c-2.984,0-5.403-2.419-5.403-5.403v-17.084c0-2.984,2.419-5.403,5.403-5.403h17.084
			c2.984,0,5.403,2.419,5.403,5.403v17.084C147.936,136.462,145.517,138.881,142.533,138.881z"/>
		<path class="st3" d="M142.533,140.381h-17.084c-3.807,0-6.903-3.097-6.903-6.903v-17.083c0-3.807,3.097-6.903,6.903-6.903h17.084
			c3.807,0,6.903,3.097,6.903,6.903v17.083C149.436,137.284,146.34,140.381,142.533,140.381z M125.449,112.491
			c-2.152,0-3.903,1.751-3.903,3.903v17.083c0,2.152,1.751,3.903,3.903,3.903h17.084c2.152,0,3.903-1.751,3.903-3.903v-17.083
			c0-2.152-1.751-3.903-3.903-3.903H125.449z"/>
		<path class="st7" d="M180.511,138.881h-17.083c-2.984,0-5.403-2.419-5.403-5.403v-17.083c0-2.984,2.419-5.403,5.403-5.403h17.083
			c2.984,0,5.403,2.419,5.403,5.403v17.084C185.914,136.462,183.495,138.881,180.511,138.881z"/>
		<path class="st3" d="M180.511,140.381h-17.083c-3.807,0-6.903-3.097-6.903-6.903v-17.083c0-3.807,3.097-6.903,6.903-6.903h17.083
			c3.807,0,6.903,3.097,6.903,6.903v17.083C187.415,137.284,184.318,140.381,180.511,140.381z M163.428,112.491
			c-2.152,0-3.903,1.751-3.903,3.903v17.083c0,2.152,1.751,3.903,3.903,3.903h17.083c2.152,0,3.903-1.751,3.903-3.903v-17.083
			c0-2.152-1.751-3.903-3.903-3.903H163.428z"/>
		<path class="st7" d="M218.489,138.881h-17.084c-2.984,0-5.403-2.419-5.403-5.403v-17.083c0-2.984,2.419-5.403,5.404-5.403h17.083
			c2.984,0,5.403,2.419,5.403,5.403v17.084C223.893,136.462,221.473,138.881,218.489,138.881z"/>
		<path class="st3" d="M218.489,140.381h-17.083c-3.807,0-6.903-3.097-6.903-6.903v-17.083c0-3.807,3.097-6.903,6.903-6.903h17.083
			c3.807,0,6.903,3.097,6.903,6.903v17.083C225.393,137.284,222.296,140.381,218.489,140.381z M201.406,112.491
			c-2.152,0-3.903,1.751-3.903,3.903v17.083c0,2.152,1.751,3.903,3.903,3.903h17.083c2.152,0,3.903-1.751,3.903-3.903v-17.083
			c0-2.152-1.751-3.903-3.903-3.903H201.406z"/>
		<path class="st7" d="M104.555,181.808H87.471c-2.984,0-5.403-2.419-5.403-5.403v-17.084c0-2.984,2.419-5.403,5.403-5.403h17.084
			c2.984,0,5.403,2.419,5.403,5.403v17.084C109.958,179.389,107.539,181.808,104.555,181.808z"/>
		<path class="st3" d="M104.555,183.308H87.471c-3.807,0-6.903-3.097-6.903-6.903v-17.083c0-3.807,3.097-6.903,6.903-6.903h17.084
			c3.807,0,6.903,3.097,6.903,6.903v17.083C111.458,180.211,108.361,183.308,104.555,183.308z M87.471,155.418
			c-2.152,0-3.903,1.751-3.903,3.903v17.083c0,2.152,1.751,3.903,3.903,3.903h17.084c2.152,0,3.903-1.751,3.903-3.903v-17.083
			c0-2.152-1.751-3.903-3.903-3.903H87.471z"/>
		<path class="st7" d="M142.533,181.808h-17.084c-2.984,0-5.403-2.419-5.403-5.403v-17.084c0-2.984,2.419-5.403,5.403-5.403h17.084
			c2.984,0,5.403,2.419,5.403,5.403v17.084C147.936,179.389,145.517,181.808,142.533,181.808z"/>
		<path class="st3" d="M142.533,183.308h-17.084c-3.807,0-6.903-3.097-6.903-6.903v-17.083c0-3.807,3.097-6.903,6.903-6.903h17.084
			c3.807,0,6.903,3.097,6.903,6.903v17.083C149.436,180.211,146.34,183.308,142.533,183.308z M125.449,155.418
			c-2.152,0-3.903,1.751-3.903,3.903v17.083c0,2.152,1.751,3.903,3.903,3.903h17.084c2.152,0,3.903-1.751,3.903-3.903v-17.083
			c0-2.152-1.751-3.903-3.903-3.903H125.449z"/>
		<path class="st7" d="M180.511,181.808h-17.083c-2.984,0-5.403-2.419-5.403-5.403v-17.084c0-2.984,2.419-5.403,5.403-5.403h17.083
			c2.984,0,5.403,2.419,5.403,5.403v17.084C185.914,179.389,183.495,181.808,180.511,181.808z"/>
		<path class="st3" d="M180.511,183.308h-17.083c-3.807,0-6.903-3.097-6.903-6.903v-17.083c0-3.807,3.097-6.903,6.903-6.903h17.083
			c3.807,0,6.903,3.097,6.903,6.903v17.083C187.415,180.211,184.318,183.308,180.511,183.308z M163.428,155.418
			c-2.152,0-3.903,1.751-3.903,3.903v17.083c0,2.152,1.751,3.903,3.903,3.903h17.083c2.152,0,3.903-1.751,3.903-3.903v-17.083
			c0-2.152-1.751-3.903-3.903-3.903H163.428z"/>
		<path class="st7" d="M218.489,181.808h-17.084c-2.984,0-5.403-2.419-5.403-5.403v-17.084c0-2.984,2.419-5.403,5.403-5.403h17.084
			c2.984,0,5.403,2.419,5.403,5.403v17.084C223.893,179.389,221.473,181.808,218.489,181.808z"/>
		<path class="st3" d="M218.489,183.308h-17.083c-3.807,0-6.903-3.097-6.903-6.903v-17.083c0-3.807,3.097-6.903,6.903-6.903h17.083
			c3.807,0,6.903,3.097,6.903,6.903v17.083C225.393,180.211,222.296,183.308,218.489,183.308z M201.406,155.418
			c-2.152,0-3.903,1.751-3.903,3.903v17.083c0,2.152,1.751,3.903,3.903,3.903h17.083c2.152,0,3.903-1.751,3.903-3.903v-17.083
			c0-2.152-1.751-3.903-3.903-3.903H201.406z"/>
		<path class="st7" d="M104.555,224.736H87.471c-2.984,0-5.403-2.419-5.403-5.403v-17.084c0-2.984,2.419-5.403,5.403-5.403h17.084
			c2.984,0,5.403,2.419,5.403,5.403v17.084C109.958,222.316,107.539,224.736,104.555,224.736z"/>
		<path class="st3" d="M104.555,226.236H87.471c-3.807,0-6.903-3.097-6.903-6.903v-17.084c0-3.807,3.097-6.903,6.903-6.903h17.084
			c3.807,0,6.903,3.097,6.903,6.903v17.083C111.458,223.139,108.361,226.236,104.555,226.236z M87.471,198.345
			c-2.152,0-3.903,1.751-3.903,3.903v17.084c0,2.152,1.751,3.903,3.903,3.903h17.084c2.152,0,3.903-1.751,3.903-3.904v-17.083
			c0-2.152-1.751-3.903-3.903-3.903H87.471z"/>
		<path class="st7" d="M142.533,224.736h-17.083c-2.984,0-5.403-2.419-5.403-5.404v-17.084c0-2.984,2.419-5.403,5.403-5.403h17.084
			c2.984,0,5.403,2.419,5.403,5.403v17.084C147.936,222.316,145.517,224.736,142.533,224.736z"/>
		<path class="st3" d="M142.533,226.236h-17.083c-3.807,0-6.903-3.097-6.903-6.904v-17.083c0-3.807,3.097-6.903,6.903-6.903h17.084
			c3.807,0,6.903,3.097,6.903,6.903v17.083C149.436,223.139,146.339,226.236,142.533,226.236z M125.449,198.345
			c-2.152,0-3.903,1.751-3.903,3.903v17.083c0,2.152,1.751,3.904,3.903,3.904h17.083c2.152,0,3.904-1.751,3.904-3.904v-17.083
			c0-2.152-1.751-3.903-3.903-3.903H125.449z"/>
		<path class="st7" d="M180.511,224.736h-17.083c-2.984,0-5.403-2.419-5.403-5.403v-17.084c0-2.984,2.419-5.403,5.403-5.403h17.083
			c2.984,0,5.403,2.419,5.403,5.403v17.084C185.914,222.316,183.495,224.736,180.511,224.736z"/>
		<path class="st3" d="M180.511,226.236h-17.083c-3.807,0-6.903-3.097-6.903-6.903v-17.084c0-3.807,3.097-6.904,6.903-6.904h17.083
			c3.807,0,6.903,3.097,6.903,6.903v17.083C187.415,223.139,184.318,226.236,180.511,226.236z M163.428,198.345
			c-2.152,0-3.903,1.751-3.903,3.904v17.084c0,2.152,1.751,3.903,3.903,3.903h17.083c2.152,0,3.903-1.751,3.903-3.904v-17.083
			c0-2.152-1.751-3.903-3.903-3.903H163.428z"/>
		<path class="st7" d="M218.489,224.736h-17.084c-2.984,0-5.403-2.419-5.403-5.403v-17.084c0-2.984,2.419-5.403,5.404-5.403h17.083
			c2.984,0,5.403,2.419,5.403,5.403v17.084C223.893,222.316,221.473,224.736,218.489,224.736z"/>
		<path class="st3" d="M218.489,226.236h-17.083c-3.807,0-6.903-3.097-6.903-6.903v-17.084c0-3.807,3.097-6.904,6.903-6.904h17.083
			c3.807,0,6.903,3.097,6.903,6.903v17.083C225.393,223.139,222.296,226.236,218.489,226.236z M201.406,198.345
			c-2.152,0-3.903,1.751-3.903,3.904v17.084c0,2.152,1.751,3.903,3.903,3.903h17.083c2.152,0,3.903-1.751,3.903-3.904v-17.083
			c0-2.152-1.751-3.903-3.903-3.903H201.406z"/>
		<polygon class="st9" points="103.497,87.788 34.26,223.666 19.088,215.997 88.325,80.12 		"/>
		<path class="st3" d="M34.259,225.167c-0.228,0-0.458-0.052-0.676-0.162l-15.172-7.669c-0.355-0.18-0.625-0.494-0.749-0.873
			c-0.124-0.379-0.092-0.791,0.089-1.147L86.989,79.439c0.376-0.736,1.275-1.029,2.013-0.658l15.172,7.668
			c0.355,0.18,0.626,0.494,0.749,0.873c0.124,0.379,0.092,0.792-0.089,1.147L35.596,224.347
			C35.332,224.867,34.805,225.167,34.259,225.167z M21.107,215.338l12.495,6.315l67.875-133.205l-12.495-6.315L21.107,215.338z"/>
		<polygon class="st8" points="53.593,148.281 19.088,215.997 34.26,223.666 68.765,155.95 		"/>
		<path class="st3" d="M34.259,225.167c-0.228,0-0.458-0.052-0.676-0.162l-15.172-7.669c-0.355-0.18-0.625-0.494-0.749-0.873
			c-0.124-0.379-0.092-0.791,0.089-1.147l34.505-67.716c0.375-0.736,1.275-1.029,2.013-0.658l15.172,7.668
			c0.355,0.18,0.625,0.494,0.749,0.873c0.124,0.379,0.092,0.791-0.089,1.147l-34.505,67.716
			C35.332,224.867,34.805,225.167,34.259,225.167z M21.107,215.338l12.495,6.315l33.143-65.043l-12.495-6.315L21.107,215.338z"/>
		<path class="st8" d="M103.497,87.788l2.932-5.801c2.118-4.19,0.438-9.303-3.752-11.42l0,0c-4.19-2.118-9.303-0.438-11.42,3.752
			l-2.932,5.801L103.497,87.788z"/>
		<path class="st3" d="M103.497,89.289c-0.233,0-0.465-0.054-0.677-0.161l-15.172-7.668c-0.739-0.374-1.036-1.276-0.662-2.016
			l2.932-5.801c2.487-4.921,8.515-6.9,13.435-4.414c2.384,1.205,4.156,3.266,4.99,5.804c0.834,2.538,0.629,5.248-0.576,7.632
			l-2.932,5.801c-0.18,0.355-0.493,0.624-0.871,0.749C103.812,89.264,103.655,89.289,103.497,89.289z M90.34,79.458l12.495,6.315
			l2.255-4.463c1.741-3.445,0.355-7.663-3.089-9.405c-3.445-1.741-7.664-0.354-9.405,3.09L90.34,79.458z"/>
		<polygon class="st14" points="34.26,223.666 19.088,215.997 16.75,239.466 		"/>
		<path class="st3" d="M16.75,240.966c-0.23,0-0.462-0.053-0.676-0.161c-0.553-0.28-0.877-0.871-0.816-1.488l2.338-23.469
			c0.049-0.492,0.337-0.928,0.771-1.166c0.435-0.237,0.958-0.246,1.398-0.024l15.172,7.668c0.441,0.223,0.744,0.649,0.81,1.14
			c0.065,0.49-0.115,0.981-0.482,1.313l-17.51,15.8C17.473,240.834,17.113,240.966,16.75,240.966z M20.364,218.323l-1.736,17.429
			l13.003-11.734L20.364,218.323z"/>
		<path class="st4" d="M145.326,81.537H114.75c0.35-3.019,1.414-5.859,3.19-8.52c1.777-2.66,5.109-5.801,9.996-9.421
			c2.986-2.218,4.896-3.903,5.73-5.054c0.834-1.151,1.251-2.244,1.251-3.278c0-1.118-0.413-2.073-1.239-2.865
			c-0.826-0.792-1.864-1.188-3.115-1.188c-1.301,0-2.365,0.409-3.19,1.226c-0.826,0.817-1.38,2.26-1.664,4.329l-10.209-0.826
			c0.4-2.869,1.134-5.109,2.202-6.718c1.068-1.61,2.573-2.844,4.516-3.703c1.943-0.859,4.633-1.289,8.069-1.289
			c3.586,0,6.376,0.409,8.37,1.226c1.993,0.817,3.561,2.073,4.704,3.766c1.143,1.693,1.714,3.59,1.714,5.692
			c0,2.235-0.655,4.37-1.964,6.405c-1.309,2.035-3.691,4.27-7.144,6.706c-2.052,1.418-3.424,2.41-4.116,2.978
			c-0.692,0.567-1.506,1.309-2.44,2.227h15.914V81.537z"/>
		<path class="st3" d="M145.326,83.037H114.75c-0.428,0-0.835-0.183-1.12-0.502c-0.285-0.319-0.419-0.745-0.37-1.17
			c0.376-3.243,1.531-6.332,3.433-9.18c1.89-2.831,5.276-6.035,10.351-9.793c3.546-2.634,4.898-4.026,5.407-4.729
			c0.641-0.884,0.966-1.69,0.966-2.397c0-0.707-0.247-1.273-0.777-1.783c-0.548-0.525-1.208-0.771-2.077-0.771
			c-0.911,0-1.589,0.251-2.135,0.792c-0.4,0.396-0.938,1.319-1.233,3.466c-0.108,0.789-0.815,1.354-1.607,1.292l-10.209-0.826
			c-0.412-0.033-0.791-0.235-1.049-0.557c-0.258-0.322-0.372-0.736-0.315-1.146c0.43-3.08,1.25-5.55,2.438-7.34
			c1.223-1.845,2.959-3.274,5.16-4.246c2.156-0.953,4.994-1.417,8.676-1.417c3.819,0,6.743,0.438,8.939,1.338
			c2.262,0.927,4.072,2.378,5.378,4.314c1.308,1.938,1.971,4.135,1.971,6.532c0,2.517-0.741,4.945-2.203,7.217
			c-1.429,2.22-3.895,4.549-7.54,7.12c-1.562,1.08-2.725,1.909-3.476,2.479h11.97c0.829,0,1.5,0.671,1.5,1.5v8.307
			C146.826,82.365,146.155,83.037,145.326,83.037z M116.519,80.037h27.307v-5.307h-14.414c-0.609,0-1.158-0.368-1.388-0.932
			c-0.231-0.564-0.098-1.211,0.337-1.638c0.963-0.945,1.817-1.725,2.541-2.317c0.73-0.599,2.109-1.597,4.213-3.051
			c3.266-2.303,5.536-4.42,6.735-6.283c1.161-1.805,1.726-3.635,1.726-5.594c0-1.813-0.477-3.4-1.457-4.853
			c-0.983-1.457-2.301-2.509-4.03-3.217c-1.803-0.739-4.428-1.114-7.801-1.114c-3.21,0-5.721,0.391-7.463,1.161
			c-1.691,0.748-2.958,1.781-3.873,3.16c-0.742,1.118-1.311,2.637-1.699,4.526l7.219,0.584c0.381-1.695,0.99-2.942,1.846-3.789
			c1.113-1.102,2.541-1.66,4.245-1.66c1.646,0,3.043,0.541,4.154,1.607c1.128,1.082,1.7,2.411,1.7,3.947
			c0,1.353-0.517,2.751-1.537,4.158c-0.933,1.288-2.912,3.047-6.049,5.378c-4.728,3.502-7.972,6.546-9.643,9.05
			C117.885,75.801,116.991,77.875,116.519,80.037z"/>
		<path class="st4" d="M150.756,59.193h9.583v-9.633h8.082v9.633h9.633v8.082h-9.633v9.583h-8.082v-9.583h-9.583V59.193z"/>
		<path class="st3" d="M168.421,78.358h-8.082c-0.829,0-1.5-0.671-1.5-1.5v-8.084h-8.083c-0.829,0-1.5-0.671-1.5-1.5v-8.082
			c0-0.829,0.671-1.5,1.5-1.5h8.083v-8.133c0-0.829,0.671-1.5,1.5-1.5h8.082c0.829,0,1.5,0.671,1.5,1.5v8.133h8.133
			c0.829,0,1.5,0.671,1.5,1.5v8.082c0,0.829-0.671,1.5-1.5,1.5h-8.133v8.084C169.921,77.687,169.249,78.358,168.421,78.358z
			 M161.839,75.358h5.082v-8.084c0-0.829,0.671-1.5,1.5-1.5h8.133v-5.082h-8.133c-0.829,0-1.5-0.671-1.5-1.5v-8.133h-5.082v8.133
			c0,0.829-0.671,1.5-1.5,1.5h-8.083v5.082h8.083c0.829,0,1.5,0.671,1.5,1.5V75.358z"/>
		<path class="st4" d="M193.393,55.464l-9.633-1.726c0.801-3.069,2.339-5.421,4.617-7.056c2.277-1.635,5.501-2.452,9.671-2.452
			c4.787,0,8.249,0.892,10.384,2.677c2.135,1.785,3.203,4.029,3.203,6.731c0,1.585-0.434,3.019-1.301,4.304s-2.177,2.41-3.928,3.378
			c1.418,0.35,2.502,0.759,3.253,1.226c1.218,0.751,2.164,1.739,2.84,2.965c0.676,1.226,1.013,2.69,1.013,4.391
			c0,2.135-0.559,4.183-1.676,6.143c-1.118,1.96-2.727,3.47-4.829,4.529c-2.102,1.059-4.863,1.589-8.282,1.589
			c-3.336,0-5.968-0.392-7.894-1.176c-1.927-0.784-3.511-1.931-4.754-3.44c-1.243-1.51-2.198-3.407-2.865-5.692l10.184-1.351
			c0.4,2.052,1.022,3.474,1.864,4.266c0.842,0.792,1.914,1.188,3.215,1.188c1.368,0,2.506-0.5,3.415-1.501
			c0.909-1.001,1.364-2.335,1.364-4.003c0-1.702-0.438-3.019-1.314-3.953c-0.876-0.934-2.064-1.401-3.566-1.401
			c-0.801,0-1.902,0.2-3.303,0.601l0.526-7.281c0.567,0.083,1.009,0.125,1.326,0.125c1.335,0,2.448-0.425,3.34-1.276
			c0.892-0.851,1.339-1.86,1.339-3.028c0-1.118-0.334-2.01-1.001-2.677c-0.667-0.667-1.585-1.001-2.752-1.001
			c-1.201,0-2.177,0.363-2.928,1.089C194.168,52.374,193.659,53.646,193.393,55.464z"/>
		<path class="st3" d="M198.722,83.663c-3.565,0-6.332-0.421-8.46-1.287c-2.15-0.875-3.949-2.179-5.347-3.876
			c-1.367-1.661-2.425-3.755-3.146-6.226c-0.122-0.42-0.056-0.873,0.183-1.239c0.239-0.367,0.626-0.61,1.06-0.668l10.184-1.351
			c0.79-0.103,1.518,0.421,1.669,1.2c0.42,2.152,1.004,3.069,1.419,3.46c0.559,0.526,1.274,0.781,2.188,0.781
			c0.947,0,1.679-0.321,2.305-1.01c0.656-0.722,0.974-1.701,0.974-2.995c0-1.318-0.297-2.275-0.908-2.927
			c-0.585-0.624-1.394-0.927-2.472-0.927c-0.452,0-1.32,0.094-2.891,0.543c-0.47,0.133-0.979,0.031-1.358-0.278
			c-0.38-0.309-0.585-0.784-0.55-1.272l0.525-7.281c0.03-0.416,0.232-0.801,0.557-1.062c0.326-0.261,0.745-0.375,1.157-0.314
			c0.612,0.09,0.94,0.109,1.108,0.109c0.943,0,1.697-0.282,2.305-0.861c0.596-0.568,0.874-1.186,0.874-1.942
			c0-0.946-0.32-1.375-0.561-1.617c-0.378-0.378-0.932-0.562-1.692-0.562c-0.815,0-1.414,0.212-1.885,0.667
			c-0.283,0.274-0.801,1.022-1.084,2.955c-0.059,0.402-0.278,0.762-0.608,1c-0.33,0.237-0.742,0.331-1.141,0.259l-9.633-1.726
			c-0.412-0.074-0.773-0.316-0.999-0.669c-0.225-0.352-0.294-0.782-0.188-1.187c0.888-3.402,2.635-6.059,5.192-7.895
			c2.527-1.814,6.076-2.733,10.546-2.733c5.199,0,8.911,0.99,11.346,3.026c2.482,2.075,3.741,4.727,3.741,7.881
			c0,1.882-0.524,3.612-1.558,5.143c-0.5,0.742-1.127,1.438-1.873,2.083c0.27,0.13,0.518,0.266,0.747,0.408
			c1.431,0.883,2.564,2.066,3.362,3.516c0.796,1.444,1.199,3.165,1.199,5.115c0,2.389-0.63,4.706-1.873,6.886
			c-1.261,2.211-3.098,3.936-5.457,5.125C205.376,83.074,202.362,83.663,198.722,83.663z M185.221,73.1
			c0.541,1.354,1.214,2.525,2.011,3.493c1.077,1.308,2.477,2.319,4.161,3.004c1.737,0.707,4.203,1.065,7.329,1.065
			c3.167,0,5.726-0.481,7.607-1.429c1.85-0.932,3.224-2.219,4.201-3.933c0.982-1.721,1.479-3.538,1.479-5.399
			c0-1.438-0.278-2.671-0.827-3.667c-0.553-1.004-1.31-1.794-2.314-2.413c-0.618-0.384-1.567-0.735-2.825-1.046
			c-0.599-0.148-1.046-0.648-1.127-1.26c-0.081-0.612,0.222-1.211,0.762-1.509c1.534-0.847,2.681-1.824,3.41-2.904
			c0.703-1.041,1.044-2.174,1.044-3.464c0-2.255-0.872-4.081-2.665-5.58c-1.848-1.545-5.018-2.328-9.422-2.328
			c-3.83,0-6.79,0.73-8.796,2.17c-1.604,1.151-2.771,2.686-3.54,4.663l6.501,1.165c0.363-1.39,0.913-2.431,1.666-3.159
			c1.036-1.002,2.372-1.51,3.97-1.51c1.575,0,2.857,0.484,3.813,1.44c0.956,0.956,1.44,2.213,1.44,3.738
			c0,1.589-0.607,2.973-1.804,4.114c-1.162,1.108-2.614,1.677-4.314,1.69l-0.269,3.724c0.627-0.112,1.178-0.168,1.659-0.168
			c1.925,0,3.493,0.631,4.66,1.875c1.141,1.217,1.719,2.892,1.719,4.979c0,2.045-0.59,3.732-1.753,5.012
			c-1.201,1.322-2.724,1.993-4.526,1.993c-1.689,0-3.117-0.537-4.243-1.596c-0.864-0.812-1.519-2.028-1.985-3.693L185.221,73.1z"/>
		<path class="st6" d="M234.48,21.771c-2.1-2.1-4.91-3.27-7.89-3.27h-15c2.98,0,5.79,1.17,7.89,3.27c2.11,2.11,3.27,4.91,3.27,7.89
			v1.71c0.16,0.13,0.32,0.27,0.47,0.42c1.3,1.3,2.02,3.03,2.02,4.86l-0.01,53.16c0,1.84-0.72,3.57-2.02,4.87
			c-0.15,0.15-0.31,0.29-0.47,0.43l-0.01,15.85c1.62,1.26,2.66,3.23,2.66,5.43v17.09c0,2.2-1.04,4.17-2.66,5.43l-0.01,14.97
			c1.63,1.25,2.67,3.22,2.67,5.44v17.08c0,2.22-1.04,4.19-2.67,5.45v14.95c1.63,1.26,2.67,3.23,2.67,5.45v17.08
			c0,2.22-1.05,4.19-2.68,5.45v1.9c0,2.98-1.16,5.78-3.27,7.89c-1.05,1.06-2.28,1.87-3.62,2.43c-1.28,0.53-2.67,0.82-4.1,0.84h14.83
			c1.49,0,2.94-0.29,4.27-0.84c1.34-0.56,2.57-1.37,3.62-2.43c2.11-2.11,3.27-4.91,3.27-7.89l0.04-197.02
			C237.75,26.681,236.59,23.881,234.48,21.771z"/>
	</g>
</g>
</svg>
