<?xml version="1.0" encoding="utf-8"?>
<!-- Generator: Adobe Illustrator 22.0.0, SVG Export Plug-In . SVG Version: 6.00 Build 0)  -->
<svg version="1.1" id="Layer_1" xmlns="http://www.w3.org/2000/svg" xmlns:xlink="http://www.w3.org/1999/xlink" x="0px" y="0px"
	 viewBox="0 0 500 500" style="enable-background:new 0 0 500 500;" xml:space="preserve">
<style type="text/css">
	.st0{fill:#C9C9C9;}
	.st1{fill:#A0A0A0;}
	.st2{fill:#71CCFF;}
	.st3{fill:#231F20;}
	.st4{fill:#F9F9F9;}
	.st5{fill:#7A7979;}
	.st6{fill:#4C4C4C;}
	.st7{fill:#F9B630;}
	.st8{fill:#D88A0E;}
	.st9{fill:#FFEDCC;}
	.st10{fill:#C0E7F9;}
	.st11{fill:#08B26C;}
	.st12{fill:#15A9EA;}
	.st13{fill:none;stroke:#C9C9C9;stroke-width:10;stroke-linecap:round;stroke-linejoin:round;stroke-miterlimit:10;}
	.st14{fill:none;stroke:#231F20;stroke-width:10;stroke-linecap:round;stroke-linejoin:round;stroke-miterlimit:10;}
	.st15{fill:#FFFFFF;}
	.st16{fill:#35EF9F;}
	.st17{fill:#22A6E0;}
	.st18{fill:#FC3A6D;}
	.st19{fill:#FFA9C8;}
	.st20{fill:#038E52;}
	.st21{fill:#E2074B;}
</style>
<g>
	<g>
		<path class="st5" d="M174.9,91.7v54h0.2v8.2c0,53,43.2,96.2,96.2,96.2l2.5-0.1h83.9c14.5,0,26.2,11.8,26.2,26.2
			c0,14.5-11.8,26.2-26.2,26.2H211.2v0.2h-8.2c-53,0-96.2,43.2-96.2,96.2c0,53,43.2,96.2,96.2,96.2h191.8l-31.5-70H203.1
			c-14.5,0-26.2-11.8-26.2-26.2c0-14.5,11.8-26.2,26.2-26.2h146.5v-0.2h8.2c53,0,96.2-43.2,96.2-96.2S410.7,180,357.7,180h-83.9
			l-2.5,0.1c-14.5,0-26.2-11.8-26.2-26.2l-0.2-62.2"/>
	</g>
</g>
<g>
	<g>
		<path class="st0" d="M203.1,480c-44.8,0-81.2-36.4-81.2-81.2s36.4-81.2,81.2-81.2H231c2.8,0,5,2.2,5,5s-2.2,5-5,5h-27.9
			c-39.3,0-71.2,31.9-71.2,71.2s31.9,71.2,71.2,71.2c2.8,0,5,2.2,5,5S205.8,480,203.1,480z"/>
	</g>
</g>
<g>
	<g>
		<path class="st0" d="M276,327.6h-18c-2.8,0-5-2.2-5-5s2.2-5,5-5h18c2.8,0,5,2.2,5,5S278.8,327.6,276,327.6z"/>
	</g>
</g>
<g>
	<g>
		<path class="st0" d="M270.9,235C270.9,235,270.9,235,270.9,235c-19.1-0.1-37.6-6.9-52.1-19.3c-2.1-1.8-2.4-4.9-0.6-7
			c1.8-2.1,4.9-2.4,7-0.6c12.7,10.8,28.9,16.8,45.6,16.9l2.4-0.1c0.1,0,0.1,0,0.2,0h84.3c2.8,0,5,2.2,5,5s-2.2,5-5,5l-84.5,0
			l-2.1,0.1C271,235,271,235,270.9,235z"/>
	</g>
</g>
<g>
	<g>
		<path class="st0" d="M204,194.6c-1.8,0-3.5-1-4.4-2.6c-0.7-1.3-1.3-2.6-1.9-3.9c-1.2-2.5-0.1-5.5,2.4-6.6c2.5-1.2,5.5-0.1,6.6,2.4
			c0.5,1.1,1.1,2.3,1.7,3.4c1.3,2.4,0.4,5.5-2.1,6.8C205.6,194.4,204.8,194.6,204,194.6z"/>
	</g>
</g>
<g>
	<g>
		<path class="st6" d="M174.9,91.7v52.9l2.9,4.1c7.2,10.4,19.1,16.6,31.8,16.6s24.5-6.2,31.8-16.6l3.7-5.4l-0.2-51.7H174.9z"/>
	</g>
</g>
<g>
	<g>
		<path class="st6" d="M363.4,425h-46.7c1.6,12.4,6.2,24.5,13.6,35.2l24.2,34.8h40.4L363.4,425z"/>
	</g>
</g>
<g>
	<g>
		<path class="st6" d="M428.1,341.6c-9.4-4.2-19.7-6.7-30.4-6.9c-0.7,0-1.5,0-2.2,0c-0.8,0-1.5,0-2.2,0c-26.9,0.7-51.5,15-65.4,37.9
			h21.7v-0.2h8.2C385.5,372.4,410.5,360.5,428.1,341.6z"/>
	</g>
</g>
<g>
	<g>
		<path class="st3" d="M369.7,430H203.1c-17.2,0-31.2-14-31.2-31.2s14-31.2,31.2-31.2h145.1c0.4-0.1,0.9-0.2,1.4-0.2h8.2
			c50.3,0,91.2-40.9,91.2-91.2S408,185,357.7,185h-83.8l-2.4,0.1c-0.1,0-0.1,0-0.2,0c-17.2,0-31.2-14-31.2-31.2l-0.2-62.2
			c0-2.8,2.2-5,5-5c0,0,0,0,0,0c2.8,0,5,2.2,5,5l0.2,62.2c0,11.7,9.5,21.2,21.1,21.3l2.4-0.1c0.1,0,0.1,0,0.2,0h83.9
			c55.8,0,101.2,45.4,101.2,101.2s-45.4,101.2-101.2,101.2h-6.8c-0.4,0.1-0.9,0.2-1.4,0.2H203.1c-11.7,0-21.2,9.5-21.2,21.2
			s9.5,21.2,21.2,21.2h166.7c2.8,0,5,2.2,5,5S372.5,430,369.7,430z"/>
	</g>
</g>
<g>
	<g>
		<path class="st3" d="M394.8,500H203.1c-55.8,0-101.2-45.4-101.2-101.2s45.4-101.2,101.2-101.2h6.8c0.4-0.1,0.9-0.2,1.4-0.2h146.5
			c11.7,0,21.2-9.5,21.2-21.2s-9.5-21.2-21.2-21.2h-83.8l-2.4,0.1c-0.1,0-0.1,0-0.2,0c-55.8,0-101.2-45.4-101.2-101.2v-6.8
			c-0.1-0.4-0.2-0.9-0.2-1.4v-54c0-2.8,2.2-5,5-5s5,2.2,5,5v52.6c0.1,0.4,0.2,0.9,0.2,1.4v8.2c0,50.3,40.9,91.1,91.1,91.2l2.4-0.1
			c0.1,0,0.1,0,0.2,0h83.9c17.2,0,31.2,14,31.2,31.2c0,17.2-14,31.2-31.2,31.2H212.6c-0.4,0.1-0.9,0.2-1.4,0.2h-8.2
			c-50.3,0-91.2,40.9-91.2,91.2s40.9,91.2,91.2,91.2h191.8c2.8,0,5,2.2,5,5S397.6,500,394.8,500z"/>
	</g>
</g>
<g>
	<g>
		<path class="st7" d="M210.9,5c-0.5,0-1,0-1.5,0c-0.5,0-1,0-1.5,0c-39.5,1-61.6,46-39.1,78.4l33.5,48.2c3.5,5,10.8,5,14.3,0
			l33.5-48.2C272.6,51,250.4,6,210.9,5z M209.5,76.2c-12.1,0-21.9-9.8-21.9-21.9c0-12.1,9.8-21.9,21.9-21.9
			c12.1,0,21.9,9.8,21.9,21.9C231.4,66.4,221.6,76.2,209.5,76.2z"/>
	</g>
</g>
<g>
	<g>
		<path class="st7" d="M396.9,364.7c-0.5,0-1,0-1.5,0s-1,0-1.5,0c-39.5,1-61.6,46-39.1,78.4l33.5,48.2c3.5,5,10.8,5,14.3,0
			l33.5-48.2C458.6,410.7,436.4,365.7,396.9,364.7z M395.5,435.9c-12.1,0-21.9-9.8-21.9-21.9c0-12.1,9.8-21.9,21.9-21.9
			c12.1,0,21.9,9.8,21.9,21.9C417.4,426.1,407.6,435.9,395.5,435.9z"/>
	</g>
</g>
<g>
	<g>
		<path class="st3" d="M395.5,500C395.5,500,395.5,500,395.5,500c-4.5,0-8.7-2.2-11.2-5.9L350.8,446c-11.8-16.9-13.2-38-3.9-56.5
			c9.2-18.1,26.7-29.3,46.9-29.8c1.1,0,2.1,0,3.2,0l0,0c20.2,0.5,37.7,11.7,46.9,29.8c9.3,18.4,7.9,39.6-3.9,56.5l-33.5,48.2
			C404.2,497.8,400,500,395.5,500z M395.5,369.7c-0.4,0-0.9,0-1.3,0c-16.5,0.4-30.8,9.5-38.3,24.3c-7.7,15.1-6.5,32.4,3.1,46.3
			l33.5,48.2c0.7,1,1.8,1.6,3,1.6c1.2,0,2.3-0.6,3-1.6l33.5-48.2c9.6-13.9,10.8-31.1,3.1-46.3c-7.5-14.8-21.8-23.9-38.3-24.3
			c0,0,0,0,0,0C396.4,369.7,395.9,369.7,395.5,369.7z"/>
	</g>
</g>
<g>
	<g>
		<path class="st3" d="M395.5,440.9c-14.8,0-26.9-12.1-26.9-26.9c0-14.8,12.1-26.9,26.9-26.9c14.8,0,26.9,12.1,26.9,26.9
			C422.4,428.8,410.3,440.9,395.5,440.9z M395.5,397.1c-9.3,0-16.9,7.6-16.9,16.9s7.6,16.9,16.9,16.9s16.9-7.6,16.9-16.9
			S404.8,397.1,395.5,397.1z"/>
	</g>
</g>
<g>
	<g>
		<path class="st11" d="M311,103.4c0.5-1.6,0.8-3.3,0.8-5.1c0-9.3-7.5-16.8-16.8-16.8c-9.3,0-16.8,7.5-16.8,16.8
			c0,1.8,0.3,3.5,0.8,5.1c-7.5,1.7-13.1,8.4-13.1,16.3c0,9.3,7.5,16.8,16.8,16.8c4.9,0,9.2-2.1,12.3-5.4c3.1,3.3,7.4,5.4,12.3,5.4
			c9.3,0,16.8-7.5,16.8-16.8C324.1,111.7,318.5,105.1,311,103.4z"/>
	</g>
</g>
<g>
	<g>
		<path class="st11" d="M369.1,103.4c0.5-1.6,0.8-3.3,0.8-5.1c0-9.3-7.5-16.8-16.8-16.8c-9.3,0-16.8,7.5-16.8,16.8
			c0,1.8,0.3,3.5,0.8,5.1c-7.5,1.7-13.1,8.4-13.1,16.3c0,9.3,7.5,16.8,16.8,16.8c4.9,0,9.2-2.1,12.3-5.4c3.1,3.3,7.4,5.4,12.3,5.4
			c9.3,0,16.8-7.5,16.8-16.8C382.2,111.7,376.6,105.1,369.1,103.4z"/>
	</g>
</g>
<g>
	<g>
		<path class="st3" d="M307.3,141.5c-4.4,0-8.7-1.4-12.3-3.8c-3.6,2.5-7.9,3.8-12.3,3.8c-12,0-21.8-9.8-21.8-21.8
			c0-8.4,5-16.1,12.4-19.6c-0.1-0.6-0.1-1.2-0.1-1.9c0-12,9.8-21.8,21.8-21.8s21.8,9.8,21.8,21.8c0,0.6,0,1.3-0.1,1.9
			c7.4,3.6,12.4,11.2,12.4,19.6C329.1,131.7,319.3,141.5,307.3,141.5z M295,126.1c1.4,0,2.7,0.6,3.7,1.6c2.3,2.4,5.3,3.8,8.6,3.8
			c6.5,0,11.8-5.3,11.8-11.8c0-5.5-3.9-10.3-9.2-11.5c-1.4-0.3-2.6-1.2-3.3-2.4c-0.7-1.2-0.9-2.7-0.4-4c0.4-1.2,0.6-2.4,0.6-3.6
			c0-6.5-5.3-11.8-11.8-11.8s-11.8,5.3-11.8,11.8c0,1.2,0.2,2.4,0.6,3.6c0.4,1.3,0.3,2.8-0.4,4c-0.7,1.2-1.9,2.1-3.3,2.4
			c-5.3,1.2-9.2,6-9.2,11.5c0,6.5,5.3,11.8,11.8,11.8c3.3,0,6.4-1.3,8.6-3.8C292.3,126.7,293.6,126.1,295,126.1z"/>
	</g>
</g>
<g>
	<g>
		<path class="st3" d="M365.4,141.5c-4.4,0-8.7-1.4-12.3-3.8c-3.6,2.5-7.9,3.8-12.3,3.8c-12,0-21.8-9.8-21.8-21.8
			c0-8.4,5-16.1,12.4-19.6c-0.1-0.6-0.1-1.2-0.1-1.9c0-12,9.8-21.8,21.8-21.8s21.8,9.8,21.8,21.8c0,0.6,0,1.3-0.1,1.9
			c7.4,3.6,12.4,11.2,12.4,19.6C387.2,131.7,377.4,141.5,365.4,141.5z M353.1,126.1L353.1,126.1c1.4,0,2.7,0.6,3.7,1.6
			c2.3,2.4,5.3,3.8,8.6,3.8c6.5,0,11.8-5.3,11.8-11.8c0-5.5-3.9-10.3-9.2-11.5c-1.4-0.3-2.6-1.2-3.3-2.4c-0.7-1.2-0.9-2.7-0.4-4
			c0.4-1.2,0.6-2.4,0.6-3.6c0-6.5-5.3-11.8-11.8-11.8c-6.5,0-11.8,5.3-11.8,11.8c0,1.2,0.2,2.4,0.6,3.6c0.4,1.3,0.3,2.8-0.4,4
			c-0.7,1.2-1.9,2.1-3.3,2.4c-5.3,1.2-9.2,6-9.2,11.5c0,6.5,5.3,11.8,11.8,11.8c3.3,0,6.4-1.3,8.6-3.8
			C350.4,126.7,351.7,126.1,353.1,126.1z"/>
	</g>
</g>
<g>
	<g>
		<path class="st3" d="M295,185c-2.8,0-5-2.2-5-5v-48.9c0-2.8,2.2-5,5-5s5,2.2,5,5V180C300,182.8,297.8,185,295,185z"/>
	</g>
</g>
<g>
	<g>
		<path class="st3" d="M353.1,185c-2.8,0-5-2.2-5-5v-48.9c0-2.8,2.2-5,5-5s5,2.2,5,5V180C358.1,182.8,355.9,185,353.1,185z"/>
	</g>
</g>
<g>
	<g>
		<path class="st8" d="M217.9,107.5c0-19.5-12.5-36.2-29.8-42.4c-5.3-10.4-15.3-18-27.1-20.2c-2.6,12.7-0.4,26.5,8,38.6l33.5,48.2
			c1.5,2.1,3.6,3.3,5.9,3.6C214.3,127.6,217.9,118,217.9,107.5z"/>
	</g>
</g>
<g>
	<g>
		<path class="st3" d="M209.5,81.2c-14.8,0-26.9-12.1-26.9-26.9c0-14.8,12.1-26.9,26.9-26.9c14.8,0,26.9,12.1,26.9,26.9
			C236.4,69.1,224.3,81.2,209.5,81.2z M209.5,37.4c-9.3,0-16.9,7.6-16.9,16.9s7.6,16.9,16.9,16.9s16.9-7.6,16.9-16.9
			S218.8,37.4,209.5,37.4z"/>
	</g>
</g>
<g>
	<g>
		<path class="st3" d="M209.5,140.3C209.5,140.3,209.5,140.3,209.5,140.3c-4.5,0-8.7-2.2-11.2-5.9l-33.5-48.2
			c-11.8-16.9-13.2-38-3.9-56.5c9.2-18.1,26.7-29.3,46.9-29.8c1.1,0,2.1,0,3.2,0c0,0,0,0,0,0c20.2,0.5,37.7,11.7,46.9,29.8
			c9.3,18.4,7.9,39.6-3.9,56.5l-33.5,48.2C218.2,138.1,214,140.3,209.5,140.3z M209.5,10c-0.4,0-0.9,0-1.3,0
			c-16.5,0.4-30.8,9.5-38.3,24.3c-7.7,15.1-6.5,32.4,3.1,46.3l33.5,48.2c0.7,1,1.8,1.6,3,1.6c1.2,0,2.3-0.6,3-1.6L246,80.6
			c9.6-13.9,10.8-31.1,3.1-46.3c-7.5-14.8-21.8-23.9-38.3-24.3C210.4,10,209.9,10,209.5,10z"/>
	</g>
</g>
<g>
	<g>
		<path class="st2" d="M71.2,82.4c-13.9,0-25.1,11.2-25.1,25.1s11.2,25.1,25.1,25.1h101.5c13.9,0,25.1-11.2,25.1-25.1
			s-11.2-25.1-25.1-25.1h-0.6c0-10.1-8.2-18.2-18.2-18.2c-10.1,0-18.2,8.2-18.2,18.2c0-17.5-14.2-31.7-31.7-31.7
			S72.4,64.9,72.4,82.4H71.2z"/>
	</g>
</g>
<g>
	<g>
		<path class="st3" d="M172.7,137.6H71.2c-16.6,0-30.1-13.5-30.1-30.1c0-15.4,11.6-28.2,26.6-29.9c2.4-18,17.8-31.9,36.4-31.9
			c14.5,0,27.1,8.5,33,20.8c4.2-4.5,10.2-7.3,16.9-7.3c11.2,0,20.5,7.9,22.7,18.5c14.7,1.9,26.1,14.6,26.1,29.8
			C202.9,124.1,189.3,137.6,172.7,137.6z M71.2,87.4c-11.1,0-20.1,9-20.1,20.1c0,11.1,9,20.1,20.1,20.1h101.5
			c11.1,0,20.1-9,20.1-20.1c0-11.1-9-20.1-20.1-20.1h-0.6c-2.8,0-5-2.2-5-5c0-7.3-5.9-13.2-13.2-13.2s-13.2,5.9-13.2,13.2
			c0,2.8-2.2,5-5,5s-5-2.2-5-5c0-14.7-12-26.7-26.7-26.7c-14.7,0-26.7,12-26.7,26.7c0,2.8-2.2,5-5,5H71.2z"/>
	</g>
</g>
<g>
	<g>
		<path class="st10" d="M83.6,106.9H71.2c-2.8,0-5-2.2-5-5s2.2-5,5-5h12.3c1.8,0,3.4-1.5,3.4-3.4V82.8c0-9,6.8-16.6,15.5-17.5
			c4.8-0.5,9.6,1.1,13.2,4.4c3.6,3.3,5.6,7.9,5.6,12.7c0,2.8-2.2,5-5,5s-5-2.2-5-5c0-2-0.9-3.9-2.4-5.3c-1.5-1.4-3.5-2-5.5-1.8
			c-3.6,0.3-6.5,3.6-6.5,7.5v10.8C96.9,100.9,90.9,106.9,83.6,106.9z"/>
	</g>
</g>
</svg>
