<?xml version="1.0" encoding="iso-8859-1"?>
<!-- Generator: Adobe Illustrator 23.0.4, SVG Export Plug-In . SVG Version: 6.00 Build 0)  -->
<svg version="1.1" xmlns="http://www.w3.org/2000/svg" xmlns:xlink="http://www.w3.org/1999/xlink" x="0px" y="0px"
	 viewBox="0 0 64 64" style="enable-background:new 0 0 64 64;" xml:space="preserve">
<g id="kids-playground">
	<path style="fill:#262626;" d="M30.278,25.067c-2.665,0-4.829,2.164-4.829,4.829c0,2.659,2.164,4.823,4.829,4.823
		c2.659,0,4.823-2.164,4.823-4.823C35.101,27.231,32.937,25.067,30.278,25.067z M30.278,33.556c-2.019,0-3.665-1.641-3.665-3.66
		c0-2.019,1.647-3.665,3.665-3.665c2.019,0,3.66,1.647,3.66,3.665C33.937,31.915,32.297,33.556,30.278,33.556z M30.278,25.067
		c-2.665,0-4.829,2.164-4.829,4.829c0,2.659,2.164,4.823,4.829,4.823c2.659,0,4.823-2.164,4.823-4.823
		C35.101,27.231,32.937,25.067,30.278,25.067z M30.278,33.556c-2.019,0-3.665-1.641-3.665-3.66c0-2.019,1.647-3.665,3.665-3.665
		c2.019,0,3.66,1.647,3.66,3.665C33.937,31.915,32.297,33.556,30.278,33.556z M30.278,25.067c-2.665,0-4.829,2.164-4.829,4.829
		c0,2.659,2.164,4.823,4.829,4.823c2.659,0,4.823-2.164,4.823-4.823C35.101,27.231,32.937,25.067,30.278,25.067z M30.278,33.556
		c-2.019,0-3.665-1.641-3.665-3.66c0-2.019,1.647-3.665,3.665-3.665c2.019,0,3.66,1.647,3.66,3.665
		C33.937,31.915,32.297,33.556,30.278,33.556z M59.02,50.225V45.96c0-1.321-1.076-2.397-2.397-2.397h-1.996l-7.959-12.689
		c-0.442-0.704-1.204-1.123-2.036-1.123h-4.416V23.56h1.268c0.239,0,0.46-0.151,0.541-0.378c0.087-0.227,0.023-0.483-0.163-0.646
		l-11.2-9.78c-0.221-0.192-0.547-0.192-0.768,0l-11.206,9.78c-0.18,0.163-0.244,0.419-0.163,0.646
		c0.087,0.227,0.303,0.378,0.547,0.378h1.268v6.191h-3.543c-0.14,0-0.273,0.052-0.378,0.145L0.489,43.703l0.762,0.879l2.321-2.013
		v7.226l-0.5,0.431H0v1.164h64v-1.164H59.02z M13.201,34.219l3.072-2.659v7.22l-3.072,2.665V34.219z M8.966,37.89l3.072-2.659v7.22
		l-3.072,2.659V37.89z M4.736,41.561l3.066-2.659v7.22l-3.066,2.659V41.561z M20.34,50.225H4.852l14.586-12.649h0.902V50.225z
		 M20.34,36.412h-1.117c-0.14,0-0.273,0.052-0.384,0.145l-1.402,1.216v-6.86h2.903V36.412z M22.697,50.225h-1.193V23.56h1.193
		V50.225z M36.625,50.225H23.86v-12.73l12.765,0.076V50.225z M36.625,36.407L23.86,36.331V23.56h12.765V36.407z M39.052,50.225
		h-1.263V37.221h-0.047c0.029-0.07,0.047-0.151,0.047-0.227V23.56h1.263V50.225z M20.625,22.396l9.652-8.431l9.652,8.431H20.625z
		 M40.215,50.225V37.576h2.665l7.383,12.649H40.215z M57.856,50.225h-6.249l-7.889-13.521c-0.105-0.18-0.297-0.291-0.5-0.291h-3.002
		v-5.498h4.416c0.431,0,0.82,0.215,1.047,0.582l8.134,12.957c0.105,0.169,0.291,0.273,0.489,0.273h2.321
		c0.681,0,1.233,0.553,1.233,1.233V50.225z M30.278,34.719c2.659,0,4.823-2.164,4.823-4.823c0-2.665-2.164-4.829-4.823-4.829
		c-2.665,0-4.829,2.164-4.829,4.829C25.449,32.555,27.613,34.719,30.278,34.719z M30.278,26.231c2.019,0,3.66,1.647,3.66,3.665
		c0,2.019-1.641,3.66-3.66,3.66c-2.019,0-3.665-1.641-3.665-3.66C26.612,27.877,28.259,26.231,30.278,26.231z M30.278,25.067
		c-2.665,0-4.829,2.164-4.829,4.829c0,2.659,2.164,4.823,4.829,4.823c2.659,0,4.823-2.164,4.823-4.823
		C35.101,27.231,32.937,25.067,30.278,25.067z M30.278,33.556c-2.019,0-3.665-1.641-3.665-3.66c0-2.019,1.647-3.665,3.665-3.665
		c2.019,0,3.66,1.647,3.66,3.665C33.937,31.915,32.297,33.556,30.278,33.556z M30.278,25.067c-2.665,0-4.829,2.164-4.829,4.829
		c0,2.659,2.164,4.823,4.829,4.823c2.659,0,4.823-2.164,4.823-4.823C35.101,27.231,32.937,25.067,30.278,25.067z M30.278,33.556
		c-2.019,0-3.665-1.641-3.665-3.66c0-2.019,1.647-3.665,3.665-3.665c2.019,0,3.66,1.647,3.66,3.665
		C33.937,31.915,32.297,33.556,30.278,33.556z M30.278,25.067c-2.665,0-4.829,2.164-4.829,4.829c0,2.659,2.164,4.823,4.829,4.823
		c2.659,0,4.823-2.164,4.823-4.823C35.101,27.231,32.937,25.067,30.278,25.067z M30.278,33.556c-2.019,0-3.665-1.641-3.665-3.66
		c0-2.019,1.647-3.665,3.665-3.665c2.019,0,3.66,1.647,3.66,3.665C33.937,31.915,32.297,33.556,30.278,33.556z"/>
	<path style="fill:#66B1FF;" d="M57.856,45.96v4.265h-6.249l-7.889-13.521c-0.105-0.18-0.297-0.291-0.5-0.291h-3.002v-5.498h4.416
		c0.431,0,0.82,0.215,1.047,0.582l8.134,12.957c0.105,0.169,0.291,0.273,0.489,0.273h2.321
		C57.303,44.727,57.856,45.279,57.856,45.96z"/>
	<path style="fill:#FEA100;" d="M23.86,23.56v12.771l12.765,0.076V23.56H23.86z M30.278,34.719c-2.665,0-4.829-2.164-4.829-4.823
		c0-2.665,2.164-4.829,4.829-4.829c2.659,0,4.823,2.164,4.823,4.829C35.101,32.555,32.937,34.719,30.278,34.719z"/>
	<polygon style="fill:#EB513C;" points="39.93,22.396 20.625,22.396 30.278,13.966 	"/>
</g>
<g id="Layer_1">
</g>
</svg>
