<?xml version="1.0" encoding="iso-8859-1"?>
<!-- Generator: Adobe Illustrator 19.0.0, SVG Export Plug-In . SVG Version: 6.00 Build 0)  -->
<svg xmlns="http://www.w3.org/2000/svg" xmlns:xlink="http://www.w3.org/1999/xlink" version="1.1" id="Layer_1" x="0px" y="0px" viewBox="0 0 512 512" style="enable-background:new 0 0 512 512;" xml:space="preserve">
<path style="fill:#B2F7EF;" d="M82.999,293.186v53.894H64.758c-6.225-6.852-15.102-10.778-24.394-10.778  c-0.407,0-0.817,0.008-1.243,0.023c-16.616,0.642-30.455,14.13-31.506,30.706c-0.584,9.199,2.552,17.949,8.83,24.638  c6.283,6.695,14.798,10.382,23.977,10.382c9.252,0,18.106-3.925,24.337-10.779h18.24v41.904c0,18.499,15.049,33.548,33.548,33.548  h139.992V384.26v-30.155v-60.921H82.999V293.186z"/>
<path style="fill:#F2B5D4;" d="M363.25,293.186h-42.038h-65.751v53.894h-7.462c-6.226-6.853-15.095-10.779-24.372-10.779  c-0.418,0-0.836,0.009-1.267,0.024c-16.615,0.642-30.452,14.13-31.505,30.706c-0.584,9.199,2.552,17.949,8.83,24.638  c6.283,6.695,14.798,10.382,23.977,10.382c9.252,0,18.106-3.926,24.337-10.779h7.461v75.452h139.992  c18.499,0,33.548-15.049,33.548-33.548V293.186H363.25z"/>
<path style="fill:#F4D35E;" d="M504.385,205.35c-1.052-16.578-14.89-30.067-31.521-30.708c-0.41-0.016-0.816-0.023-1.223-0.023  c-9.292,0-18.171,3.926-24.399,10.778h-18.241v-31.125c0-18.499-15.049-33.548-33.548-33.548H255.461v82.481v30.153v60.907h64.673  v18.243c-0.126,0.116-0.603,0.569-0.603,0.569c-0.172,0.16-0.344,0.322-0.496,0.474c-0.286,0.285-0.561,0.576-0.874,0.913  c-0.122,0.126-0.243,0.254-0.332,0.354c-0.323,0.358-0.634,0.725-0.876,1.018c-0.109,0.126-0.216,0.253-0.259,0.309  c-0.33,0.407-0.649,0.821-0.956,1.242l-0.096,0.127c-0.318,0.438-0.624,0.883-0.919,1.333l-0.06,0.091  c-0.268,0.412-0.525,0.831-0.774,1.254l-0.106,0.179c-0.254,0.438-0.498,0.882-0.758,1.386l-0.07,0.135  c-0.233,0.455-0.452,0.914-0.662,1.378l-0.095,0.207c-0.204,0.459-0.397,0.923-0.593,1.423l-0.085,0.217  c-0.167,0.44-0.324,0.883-0.473,1.33l-0.112,0.34c-0.132,0.407-0.252,0.816-0.379,1.265l-0.125,0.462  c-0.1,0.382-0.192,0.764-0.271,1.118c-0.055,0.238-0.106,0.475-0.148,0.688c-0.067,0.328-0.128,0.658-0.193,1.028  c-0.043,0.26-0.083,0.52-0.122,0.783c-0.043,0.301-0.084,0.603-0.114,0.874c-0.037,0.307-0.067,0.617-0.095,0.926  c0,0-0.052,0.613-0.066,0.822c-0.022,0.33-0.033,0.659-0.046,1.018l-0.003,0.112c-0.009,0.239-0.016,0.476-0.017,0.684  c-0.002,0.285,0.002,0.569,0.008,0.855l0.002,0.13c0,0,0.012,0.542,0.02,0.722c0.04,0.956,0.124,1.921,0.238,2.77l0.033,0.271  c1.954,14.12,13.106,25.594,27.223,27.964l0.161,0.027c0.923,0.149,1.892,0.257,2.904,0.327l0.466,0.028  c0.331,0.019,0.66,0.03,1.036,0.04c0.226,0.005,0.866,0.009,0.866,0.009c0.231,0,0.462-0.003,0.682-0.009  c0.347-0.008,0.696-0.022,1.025-0.039l0.514-0.03c0.93-0.066,1.837-0.164,2.697-0.296l0.275-0.043  c14.107-2.3,25.33-13.806,27.303-28.069l0.011-0.081c0.125-0.946,0.209-1.911,0.247-2.834c0.011-0.213,0.016-0.428,0.02-0.643  l0.004-0.243c0.005-0.287,0.01-0.571,0.008-0.824c-0.001-0.239-0.009-0.475-0.016-0.714l-0.005-0.143  c-0.012-0.332-0.024-0.662-0.044-0.972c-0.015-0.229-0.067-0.839-0.067-0.839c-0.028-0.309-0.058-0.619-0.091-0.894  c-0.035-0.304-0.075-0.607-0.119-0.901c-0.038-0.264-0.079-0.526-0.13-0.834c-0.057-0.33-0.119-0.659-0.176-0.937  c-0.043-0.221-0.092-0.442-0.154-0.727c-0.083-0.371-0.174-0.742-0.266-1.096l-0.138-0.511c-0.115-0.418-0.24-0.833-0.379-1.265  l-0.107-0.321c-0.151-0.454-0.31-0.904-0.482-1.348l-0.088-0.227c-0.179-0.459-0.369-0.914-0.584-1.401l-0.071-0.157  c-0.215-0.472-0.437-0.94-0.696-1.447l-0.066-0.124c-0.232-0.448-0.473-0.893-0.725-1.33l-0.112-0.19  c-0.253-0.433-0.516-0.862-0.79-1.283l-0.127-0.194c-0.274-0.413-0.556-0.825-0.869-1.254l-0.135-0.179  c-0.293-0.397-0.593-0.789-0.883-1.146c-0.094-0.115-0.191-0.231-0.237-0.282c-0.292-0.354-0.589-0.703-0.932-1.087  c-0.106-0.114-0.458-0.487-0.458-0.487c-0.234-0.25-0.469-0.499-0.752-0.784c-0.161-0.158-0.327-0.315-0.491-0.47  c0,0-0.472-0.447-0.582-0.55v-18.243h64.673v-64.673h18.24c6.228,6.852,15.084,10.779,24.337,10.779  c9.179,0,17.694-3.687,23.975-10.382C501.833,223.298,504.969,214.548,504.385,205.35z"/>
<path style="fill:#E27849;" d="M82.999,294.264v-60.907l13.796,10.344c5.479,4.108,12.255,6.369,19.08,6.369  c8.748,0,17.201-3.66,23.191-10.042c6.073-6.471,9.106-14.934,8.541-23.831c-1.018-16.033-14.403-29.078-30.473-29.698  c-0.44-0.018-0.87-0.026-1.297-0.026c-6.918,0-13.499,2.198-19.034,6.356l-13.803,10.373v-48.931  c0-18.499,15.049-33.548,33.548-33.548h31.125v-18.241c-6.852-6.225-10.779-15.081-10.779-24.335  c0-9.179,3.687-17.694,10.382-23.977c5.797-5.438,13.342-8.592,21.248-8.879c0.407-0.014,0.807-0.022,1.208-0.022  c0.728,0,1.458,0.023,2.19,0.07c16.567,1.051,30.056,14.889,30.697,31.505c0.375,9.757-3.543,19.086-10.755,25.638v18.241h64.673  v75.452H264c6.226-6.852,15.1-10.778,24.384-10.778c0.413,0,0.827,0.008,1.24,0.023c16.63,0.642,30.468,14.131,31.519,30.708  c0.584,9.197-2.552,17.947-8.831,24.636c-6.282,6.695-14.797,10.382-23.975,10.382c-9.253,0-18.109-3.927-24.337-10.779h-7.461  v53.894H82.999V294.264z"/>
<path style="fill:#D35E2F;" d="M152.009,165.996c-12.88,0-23.356,10.259-23.72,23.051c10.715,4.631,18.549,15.035,19.318,27.151  c0.565,8.897-2.468,17.36-8.541,23.831c-3.054,3.253-6.749,5.794-10.795,7.509v46.726h128.269v-53.894H264  c6.228,6.852,15.084,10.779,24.337,10.779c9.179,0,17.694-3.687,23.975-10.382c6.279-6.689,9.415-15.44,8.831-24.636  c-1.052-16.577-14.889-30.067-31.519-30.708c-0.414-0.016-0.828-0.023-1.24-0.023c-9.284,0-18.158,3.926-24.384,10.778h-7.462  v-30.181L152.009,165.996L152.009,165.996z"/>
<path style="fill:#F2BB4C;" d="M384.808,294.264V189.733c0-13.11-10.628-23.737-23.737-23.737H255.461v37.21v30.153v60.907h64.673  v18.243c-0.126,0.116-0.603,0.569-0.603,0.569c-0.172,0.16-0.344,0.322-0.496,0.474c-0.286,0.285-0.561,0.576-0.874,0.913  c-0.122,0.126-0.243,0.254-0.332,0.354c-0.323,0.358-0.634,0.725-0.876,1.018c-0.109,0.126-0.216,0.253-0.259,0.309  c-0.33,0.407-0.649,0.821-0.956,1.242l-0.096,0.127c-0.318,0.438-0.624,0.883-0.919,1.333l-0.06,0.091  c-0.268,0.412-0.525,0.831-0.774,1.254l-0.106,0.179c-0.254,0.438-0.498,0.882-0.758,1.386l-0.07,0.135  c-0.233,0.455-0.452,0.914-0.662,1.378l-0.095,0.207c-0.204,0.459-0.397,0.923-0.593,1.423l-0.085,0.217  c-0.167,0.44-0.324,0.883-0.473,1.33l-0.112,0.34c-0.132,0.407-0.252,0.816-0.379,1.265l-0.125,0.462  c-0.1,0.382-0.192,0.764-0.271,1.118c-0.055,0.238-0.106,0.475-0.148,0.688c-0.067,0.328-0.128,0.658-0.193,1.028  c-0.043,0.26-0.083,0.52-0.122,0.783c-0.043,0.301-0.084,0.603-0.114,0.874c-0.037,0.307-0.067,0.617-0.095,0.926  c0,0-0.052,0.613-0.066,0.822c-0.022,0.33-0.033,0.659-0.046,1.018l-0.003,0.112c-0.009,0.239-0.016,0.476-0.017,0.684  c-0.002,0.285,0.002,0.569,0.008,0.855l0.002,0.13c0,0,0.012,0.542,0.02,0.722c0.04,0.956,0.124,1.921,0.238,2.77l0.033,0.271  c1.954,14.12,13.106,25.594,27.223,27.964l0.161,0.027c0.923,0.149,1.892,0.257,2.904,0.327l0.466,0.028  c0.331,0.019,0.66,0.03,1.036,0.04c0.226,0.005,0.866,0.009,0.866,0.009c0.231,0,0.462-0.003,0.682-0.009  c0.347-0.008,0.696-0.022,1.025-0.039l0.514-0.03c0.93-0.066,1.837-0.164,2.697-0.296l0.275-0.043  c14.107-2.3,25.33-13.806,27.303-28.069l0.011-0.081c0.125-0.946,0.209-1.911,0.247-2.834c0.011-0.213,0.016-0.428,0.02-0.643  l0.004-0.243c0.005-0.287,0.01-0.571,0.008-0.824c-0.001-0.239-0.009-0.475-0.016-0.714l-0.005-0.143  c-0.012-0.332-0.024-0.662-0.044-0.972c-0.015-0.229-0.067-0.839-0.067-0.839c-0.028-0.309-0.058-0.619-0.091-0.894  c-0.035-0.304-0.075-0.607-0.119-0.901c-0.038-0.264-0.079-0.526-0.13-0.834c-0.057-0.33-0.119-0.659-0.176-0.937  c-0.043-0.221-0.092-0.442-0.154-0.727c-0.083-0.371-0.174-0.742-0.266-1.096l-0.138-0.511c-0.115-0.418-0.24-0.833-0.379-1.265  l-0.107-0.321c-0.151-0.454-0.31-0.904-0.482-1.348l-0.088-0.227c-0.179-0.459-0.369-0.914-0.584-1.401l-0.071-0.157  c-0.215-0.472-0.437-0.94-0.696-1.447l-0.066-0.124c-0.232-0.448-0.473-0.893-0.725-1.33l-0.112-0.19  c-0.253-0.433-0.516-0.862-0.79-1.283l-0.127-0.194c-0.274-0.413-0.556-0.825-0.869-1.254l-0.135-0.179  c-0.293-0.397-0.593-0.789-0.883-1.146c-0.094-0.115-0.191-0.231-0.237-0.282c-0.292-0.354-0.589-0.703-0.932-1.087  c-0.106-0.114-0.458-0.487-0.458-0.487c-0.234-0.25-0.469-0.499-0.752-0.784c-0.161-0.158-0.327-0.315-0.491-0.47  c0,0-0.472-0.447-0.582-0.55v-18.243h20.483V294.264z"/>
<path style="fill:#81F2C9;" d="M128.27,398.795c0,13.11,10.628,23.737,23.737,23.737h104.531V384.26v-30.155v-60.921H128.27  C128.27,293.184,128.27,398.795,128.27,398.795z"/>
<path style="fill:#F79CC6;" d="M363.25,293.186h-42.038h-65.751v53.894h-7.462c-6.226-6.853-15.095-10.779-24.372-10.779  c-0.418,0-0.836,0.009-1.267,0.024c-16.615,0.642-30.452,14.13-31.505,30.706c-0.584,9.199,2.552,17.949,8.83,24.638  c6.283,6.695,14.798,10.382,23.977,10.382c9.252,0,18.106-3.926,24.337-10.779h7.461v31.259h105.609  c13.11,0,23.737-10.628,23.737-23.737V293.185H363.25V293.186z"/>
<path d="M511.915,204.872c-1.295-20.389-18.313-36.98-38.746-37.768c-10.828-0.434-21.221,3.466-29.067,10.749h-7.556v-23.58  c0-22.658-18.435-41.093-41.093-41.093H199.411v-7.556c7.282-7.845,11.165-18.244,10.749-29.067  c-0.788-20.432-17.379-37.451-37.767-38.746c-11.301-0.702-22.055,3.14-30.28,10.86c-8.111,7.613-12.764,18.356-12.764,29.478  c0,10.215,3.888,20.034,10.779,27.472v7.559h-23.58c-22.658,0-41.093,18.435-41.093,41.093v42.443c0,4.466,3.618,8.084,8.084,8.084  h8.24c2.299,0,4.489-0.979,6.023-2.691c4.841-5.408,11.768-8.343,19.042-8.069c12.252,0.473,22.458,10.417,23.233,22.637  c0.431,6.795-1.881,13.256-6.513,18.19c-4.636,4.94-10.918,7.659-17.688,7.659c-6.884,0-13.471-2.947-18.075-8.087  c-1.533-1.713-3.723-2.691-6.022-2.691h-8.24c-4.466,0-8.084,3.618-8.084,8.084v99.705h-7.556  c-7.844-7.281-18.231-11.177-29.067-10.749c-20.431,0.788-37.45,17.379-38.746,37.767c-0.717,11.3,3.14,22.054,10.86,30.28  c7.613,8.111,18.356,12.764,29.478,12.764c10.213,0,20.033-3.889,27.472-10.779h7.559v34.359c0,22.658,18.435,41.093,41.093,41.093  h278.906c22.658,0,41.093-18.435,41.093-41.093V237.136h7.559c7.44,6.89,17.26,10.779,27.472,10.779  c11.121,0,21.865-4.652,29.478-12.764C508.775,226.924,512.632,216.17,511.915,204.872z M247.916,458.103H116.547  c-13.766,0-24.925-11.159-24.925-24.925v-42.443c0-4.465-3.62-8.084-8.084-8.084H64.52c-2.311,0-4.5,0.997-6.044,2.716  c-4.603,5.125-11.18,8.063-18.052,8.063c-6.77,0-13.052-2.72-17.688-7.659c-4.632-4.935-6.944-11.395-6.513-18.192  c0.775-12.219,10.98-22.162,23.233-22.636c7.229-0.265,14.141,2.635,18.979,8c1.562,1.732,3.754,2.762,6.086,2.762H83.54  c4.465,0,8.084-3.62,8.084-8.084v-45.81h53.423c4.465,0,8.084-3.62,8.084-8.084l0,0c0-4.465-3.62-8.084-8.084-8.084H91.622v-35.041  c6.945,5.207,15.453,8.094,24.252,8.094c11.121,0,21.865-4.652,29.478-12.764c7.72-8.226,11.577-18.979,10.86-30.279  c-1.295-20.389-18.313-36.98-38.746-37.768c-9.423-0.376-18.479,2.519-25.845,8.054v-31.664c0-13.766,11.159-24.925,24.925-24.925  h31.664c4.465,0,8.084-3.62,8.084-8.084v-19.019c0-2.312-0.998-4.502-2.718-6.047c-5.123-4.599-8.06-11.177-8.06-18.049  c0-6.77,2.719-13.052,7.659-17.688c4.319-4.053,9.801-6.336,15.66-6.549c0.836-0.03,1.682-0.018,2.532,0.037  c12.219,0.775,22.162,10.98,22.636,23.232c0.278,7.229-2.637,14.143-8,18.981c-1.731,1.562-2.76,3.753-2.76,6.086v19.019  c0,4.465,3.62,8.084,8.084,8.084h56.589v67.368c0,4.465,3.62,8.084,8.084,8.084h8.24c2.331,0,4.524-1.029,6.086-2.76  c4.838-5.364,11.738-8.268,18.98-8h-0.001c12.252,0.473,22.458,10.417,23.233,22.637c0.431,6.795-1.881,13.256-6.513,18.19  c-4.636,4.94-10.918,7.659-17.688,7.659c-6.874,0-13.451-2.938-18.052-8.063c-1.544-1.719-3.734-2.716-6.044-2.716h-8.24  c-4.465,0-8.084,3.62-8.084,8.084v45.81h-58.745c-4.465,0-8.084,3.62-8.084,8.084l0,0c0,4.465,3.62,8.084,8.084,8.084h58.745v35.031  c-7.364-5.534-16.452-8.425-25.845-8.054c-20.432,0.788-37.451,17.379-38.746,37.767c-0.717,11.299,3.14,22.054,10.86,30.28  c7.613,8.111,18.356,12.764,29.478,12.764c8.8,0,17.308-2.887,24.252-8.094v56.597H247.916z M420.378,433.178  c0,13.744-11.181,24.925-24.925,24.925H264.084v-67.368c0-4.466-3.618-8.084-8.084-8.084h-8.24c-2.299,0-4.489,0.979-6.022,2.691  c-4.604,5.14-11.191,8.087-18.075,8.087c-6.77,0-13.052-2.72-17.688-7.659c-4.632-4.935-6.944-11.395-6.513-18.192  c0.775-12.219,10.98-22.162,23.232-22.636c7.271-0.274,14.203,2.662,19.043,8.069c1.534,1.713,3.724,2.691,6.023,2.691H256  c4.466,0,8.084-3.618,8.084-8.084v-45.81h48.505v7.556c-4.31,4.644-7.419,10.186-9.161,16.178c-0.016,0.054-0.031,0.108-0.046,0.163  c-0.15,0.524-0.29,1.052-0.418,1.582c-0.029,0.119-0.056,0.237-0.084,0.356c-0.111,0.474-0.215,0.95-0.307,1.428  c-0.037,0.186-0.07,0.373-0.103,0.559c-0.075,0.419-0.148,0.839-0.21,1.26c-0.039,0.258-0.071,0.516-0.105,0.775  c-0.046,0.361-0.093,0.722-0.129,1.087c-0.033,0.322-0.057,0.646-0.082,0.97c-0.024,0.311-0.05,0.623-0.067,0.937  c-0.019,0.365-0.029,0.731-0.039,1.097c-0.008,0.286-0.018,0.571-0.02,0.858c0,0.075-0.005,0.151-0.005,0.227  c0,0.233,0.014,0.465,0.018,0.697c0.005,0.299,0.001,0.595,0.012,0.895c0.003,0.099,0.014,0.198,0.018,0.298  c0.011,0.219,0.027,0.437,0.041,0.654c0.029,0.465,0.063,0.928,0.109,1.388c0.021,0.203,0.044,0.403,0.068,0.605  c0.052,0.456,0.11,0.91,0.178,1.36c0.036,0.237,0.074,0.474,0.114,0.711c0.065,0.383,0.134,0.764,0.209,1.145  c0.064,0.323,0.132,0.647,0.204,0.968c0.055,0.244,0.112,0.486,0.171,0.729c0.113,0.467,0.233,0.931,0.361,1.393  c0.008,0.025,0.014,0.05,0.022,0.074c1.982,7.032,5.838,13.492,11.239,18.561c5.982,5.615,13.312,9.172,21.206,10.426  c0.029,0.004,0.059,0.01,0.088,0.015c0.489,0.077,0.981,0.143,1.475,0.202c0.226,0.028,0.454,0.054,0.682,0.078  c0.372,0.038,0.746,0.071,1.12,0.099c0.155,0.012,0.307,0.03,0.462,0.041c0.123,0.008,0.245,0.005,0.368,0.012  c0.589,0.032,1.179,0.05,1.772,0.056c0.175,0.002,0.351,0.016,0.525,0.016c0.095,0,0.189-0.005,0.283-0.007  c0.213-0.002,0.429-0.01,0.643-0.015c0.486-0.011,0.972-0.027,1.455-0.055c0.067-0.003,0.133-0.003,0.199-0.008  c0.12-0.008,0.237-0.023,0.357-0.031c0.485-0.035,0.968-0.075,1.45-0.127c0.079-0.009,0.156-0.018,0.234-0.027  c8.578-0.971,16.562-4.636,22.995-10.673c5.4-5.068,9.257-11.529,11.239-18.561c0.008-0.025,0.014-0.05,0.022-0.074  c0.129-0.462,0.249-0.927,0.362-1.394c0.059-0.241,0.116-0.483,0.171-0.725c0.072-0.323,0.14-0.647,0.204-0.972  c0.075-0.378,0.144-0.76,0.209-1.141c0.04-0.237,0.079-0.474,0.114-0.712c0.068-0.452,0.125-0.905,0.178-1.36  c0.023-0.202,0.047-0.403,0.068-0.605c0.045-0.46,0.079-0.924,0.109-1.388c0.014-0.218,0.031-0.435,0.041-0.654  c0.004-0.099,0.015-0.197,0.018-0.297c0.012-0.299,0.008-0.596,0.012-0.895c0.004-0.233,0.018-0.465,0.018-0.697  c0-0.077-0.005-0.152-0.005-0.227c0-0.068,0.003-0.137,0.002-0.205c-0.002-0.219-0.017-0.437-0.023-0.654  c-0.01-0.365-0.019-0.731-0.039-1.094c-0.017-0.315-0.043-0.628-0.067-0.942c-0.025-0.321-0.05-0.643-0.082-0.964  c-0.037-0.365-0.083-0.729-0.129-1.092c-0.033-0.257-0.066-0.513-0.103-0.77c-0.063-0.423-0.135-0.843-0.21-1.263  c-0.033-0.186-0.067-0.373-0.103-0.558c-0.094-0.481-0.197-0.957-0.308-1.434c-0.027-0.115-0.054-0.232-0.082-0.347  c-0.129-0.534-0.269-1.063-0.42-1.59c-0.015-0.052-0.03-0.103-0.045-0.155c-1.007-3.462-2.461-6.777-4.351-9.852  c-1.382-2.247-2.99-4.368-4.811-6.329v-7.556h48.505v131.365H420.378z M489.266,224.086c-4.636,4.94-10.918,7.659-17.688,7.659  c-6.884,0-13.471-2.947-18.075-8.087c-1.533-1.713-3.723-2.691-6.022-2.691h-19.019c-4.466,0-8.084,3.618-8.084,8.084v56.589  h-56.589c-4.466,0-8.084,3.618-8.084,8.084v19.02c0,0.574,0.061,1.143,0.18,1.695c0.356,1.658,1.228,3.178,2.511,4.328  c0.157,0.14,0.305,0.288,0.457,0.432c0.164,0.154,0.332,0.306,0.49,0.465c0.205,0.204,0.4,0.415,0.596,0.626  c0.098,0.106,0.201,0.207,0.296,0.314c0.225,0.25,0.442,0.508,0.656,0.766c0.058,0.07,0.119,0.137,0.176,0.208  c0.233,0.288,0.457,0.582,0.676,0.88c0.032,0.043,0.066,0.085,0.097,0.128c0.229,0.315,0.449,0.636,0.662,0.961  c0.018,0.028,0.038,0.055,0.056,0.083c0.217,0.333,0.424,0.67,0.623,1.013c0.013,0.023,0.027,0.045,0.041,0.068  c0.197,0.342,0.385,0.688,0.566,1.039c0.014,0.028,0.029,0.055,0.043,0.082c0.175,0.343,0.34,0.69,0.498,1.04  c0.018,0.04,0.037,0.08,0.055,0.12c0.149,0.335,0.29,0.675,0.424,1.016c0.024,0.061,0.049,0.124,0.072,0.185  c0.123,0.321,0.237,0.645,0.346,0.971c0.03,0.091,0.06,0.18,0.089,0.271c0.096,0.3,0.185,0.601,0.271,0.905  c0.035,0.125,0.069,0.251,0.101,0.377c0.071,0.273,0.138,0.548,0.199,0.822c0.037,0.164,0.071,0.329,0.105,0.495  c0.05,0.243,0.096,0.487,0.137,0.732c0.035,0.202,0.065,0.404,0.095,0.607c0.031,0.217,0.061,0.434,0.087,0.652  c0.027,0.23,0.049,0.46,0.069,0.692c0.017,0.199,0.034,0.398,0.047,0.598c0.015,0.241,0.024,0.484,0.032,0.727  c0.006,0.201,0.014,0.401,0.016,0.603c0.002,0.237-0.003,0.475-0.008,0.712c-0.004,0.185-0.006,0.372-0.014,0.556  c-0.03,0.706-0.091,1.405-0.182,2.094c-0.005,0.041-0.011,0.082-0.016,0.123c-1.444,10.438-9.748,18.957-20.136,20.65  c-0.018,0.003-0.038,0.006-0.056,0.01c-0.698,0.112-1.407,0.19-2.122,0.238c-0.121,0.009-0.243,0.016-0.364,0.023  c-0.254,0.014-0.508,0.024-0.76,0.03c-0.192,0.004-0.385,0.006-0.579,0.006c-0.205,0-0.409-0.002-0.612-0.006  c-0.243-0.005-0.485-0.015-0.73-0.028c-0.129-0.006-0.26-0.015-0.389-0.024c-0.709-0.049-1.411-0.125-2.103-0.236  c-0.027-0.004-0.055-0.01-0.082-0.013c-10.38-1.699-18.678-10.213-20.121-20.645c-0.005-0.042-0.011-0.085-0.016-0.127  c-0.092-0.689-0.152-1.387-0.182-2.091c-0.009-0.185-0.011-0.372-0.014-0.558c-0.004-0.237-0.01-0.475-0.008-0.711  c0.001-0.202,0.01-0.402,0.016-0.603c0.009-0.243,0.017-0.485,0.032-0.727c0.013-0.201,0.03-0.399,0.047-0.598  c0.021-0.231,0.042-0.461,0.069-0.692c0.026-0.218,0.056-0.435,0.087-0.652c0.029-0.203,0.06-0.404,0.094-0.606  c0.042-0.246,0.088-0.491,0.138-0.735c0.033-0.164,0.068-0.326,0.103-0.488c0.063-0.278,0.129-0.555,0.202-0.831  c0.032-0.123,0.065-0.245,0.099-0.366c0.086-0.307,0.177-0.613,0.274-0.917c0.028-0.086,0.056-0.17,0.084-0.257  c0.111-0.332,0.227-0.661,0.352-0.987c0.022-0.055,0.043-0.11,0.065-0.166c0.137-0.349,0.28-0.695,0.432-1.038  c0.014-0.031,0.028-0.063,0.043-0.094c0.162-0.359,0.332-0.716,0.511-1.067c0.009-0.017,0.018-0.034,0.027-0.052  c0.185-0.361,0.379-0.718,0.582-1.069c0.006-0.011,0.013-0.023,0.02-0.033c0.206-0.354,0.419-0.703,0.642-1.047  c0.011-0.016,0.022-0.032,0.032-0.047c0.22-0.336,0.448-0.668,0.684-0.994c0.024-0.032,0.048-0.063,0.072-0.095  c0.226-0.309,0.46-0.613,0.702-0.912c0.045-0.056,0.093-0.109,0.139-0.164c0.225-0.274,0.455-0.544,0.692-0.808  c0.082-0.089,0.168-0.176,0.251-0.265c0.211-0.226,0.421-0.454,0.64-0.673c0.144-0.144,0.296-0.28,0.445-0.421  c0.167-0.158,0.33-0.319,0.501-0.473c1.285-1.15,2.156-2.67,2.511-4.328c0.119-0.553,0.18-1.121,0.18-1.696v-19.02  c0-4.466-3.618-8.084-8.084-8.084H264.08v-35.041c6.945,5.207,15.453,8.094,24.253,8.094c11.121,0,21.865-4.652,29.478-12.764  c7.72-8.226,11.577-18.979,10.86-30.279c-1.295-20.389-18.313-36.98-38.746-37.768c-9.411-0.376-18.48,2.519-25.845,8.054v-56.589  h131.369c13.744,0,24.925,11.181,24.925,24.925v31.664c0,4.466,3.618,8.084,8.084,8.084h19.019c2.299,0,4.489-0.979,6.023-2.691  c4.842-5.408,11.823-8.335,19.042-8.069c12.252,0.473,22.458,10.417,23.233,22.637C496.211,212.691,493.897,219.152,489.266,224.086  z"/>
<g>
</g>
<g>
</g>
<g>
</g>
<g>
</g>
<g>
</g>
<g>
</g>
<g>
</g>
<g>
</g>
<g>
</g>
<g>
</g>
<g>
</g>
<g>
</g>
<g>
</g>
<g>
</g>
<g>
</g>
</svg>
