<?xml version="1.0" encoding="iso-8859-1"?>
<!-- Generator: Adobe Illustrator 19.0.0, SVG Export Plug-In . SVG Version: 6.00 Build 0)  -->
<svg xmlns="http://www.w3.org/2000/svg" xmlns:xlink="http://www.w3.org/1999/xlink" version="1.1" id="Layer_1" x="0px" y="0px" viewBox="0 0 511.999 511.999" style="enable-background:new 0 0 511.999 511.999;" xml:space="preserve">
<path style="fill:#FC3F49;" d="M282.37,222.792l-35.87-126.207c-1.963-6.906-9.151-10.912-16.056-8.95l-44.268,12.581  c-6.906,1.963-10.912,9.151-8.95,16.056l30.274,106.519h74.87V222.792z"/>
<path style="fill:#F4063F;" d="M230.443,87.634l-14.937,4.246l37.207,130.911h29.657l-35.87-126.207  C244.536,89.68,237.348,85.673,230.443,87.634z"/>
<path style="fill:#84C9FE;" d="M345.56,222.792L287.265,17.686c-1.963-6.906-9.151-10.912-16.056-8.95l-5.21,1.481  c-6.905,1.963-10.912,9.151-8.95,16.056l55.855,196.518H345.56z"/>
<path style="fill:#FE9901;" d="M173.306,222.792L135.835,90.957c-1.963-6.906-9.151-10.912-16.056-8.95L58.363,99.463  c-6.906,1.963-10.912,9.151-8.95,16.056l30.488,107.272H173.306z"/>
<path style="fill:#F28F0C;" d="M119.78,82.007l-14.768,4.197l38.821,136.586h29.473L135.835,90.957  C133.874,84.052,126.684,80.045,119.78,82.007z"/>
<path style="fill:#FEE570;" d="M126.697,183.19l-21,5.969c-4.349,1.236-8.875-1.287-10.112-5.636l-11.335-39.885  c-1.236-4.349,1.287-8.875,5.636-10.112l21-5.969c4.349-1.236,8.875,1.287,10.112,5.636l11.336,39.885  C133.568,177.427,131.045,181.954,126.697,183.19z"/>
<path style="fill:#E8D192;" d="M468.002,503.764H43.997c-8.413,0-15.233-6.82-15.233-15.233V238.024  c0-8.413,6.82-15.233,15.233-15.233h424.006c8.413,0,15.233,6.82,15.233,15.233v250.507  C483.234,496.944,476.414,503.764,468.002,503.764z"/>
<path style="fill:#4D5560;" d="M397.105,321.072H114.892c-8.957,0-16.218-7.262-16.218-16.218v-10.916  c0-8.957,7.262-16.218,16.218-16.218h282.213c8.957,0,16.218,7.262,16.218,16.218v10.916  C413.324,313.811,406.063,321.072,397.105,321.072z"/>
<path style="fill:#606872;" d="M397.105,321.072H114.892c-8.957,0-16.218-7.262-16.218-16.218v-10.916  c0-8.957,7.262-16.218,16.218-16.218h282.213c8.957,0,16.218,7.262,16.218,16.218v10.916  C413.324,313.811,406.063,321.072,397.105,321.072z"/>
<path style="fill:#4D5560;" d="M108.376,314.557v-10.916c0-8.957,7.262-16.218,16.218-16.218h282.213c1.944,0,3.8,0.36,5.528,0.987  c-2.263-6.23-8.218-10.69-15.23-10.69H114.892c-8.957,0-16.218,7.262-16.218,16.218v10.916c0,7.012,4.46,12.968,10.69,15.23  C108.737,318.357,108.376,316.501,108.376,314.557z"/>
<g>
	<path style="fill:#EAB200;" d="M244.545,423.278L244.545,423.278L244.545,423.278z"/>
	<path style="fill:#EAB200;" d="M221.512,423.278L221.512,423.278L221.512,423.278z"/>
	<path style="fill:#EAB200;" d="M267.578,423.278L267.578,423.278L267.578,423.278z"/>
</g>
<path style="fill:#FEF3CA;" d="M246.697,183.19l-21,5.969c-4.349,1.236-8.875-1.287-10.112-5.636l-11.336-39.885  c-1.236-4.349,1.287-8.875,5.636-10.112l21-5.969c4.349-1.236,8.875,1.287,10.112,5.636l11.336,39.885  C253.57,177.427,251.045,181.954,246.697,183.19z"/>
<polygon style="fill:#EAB200;" points="279.094,433.461 267.578,423.278 256.062,433.461 244.545,423.278 233.028,433.461   221.512,423.278 221.512,503.764 290.487,503.764 290.487,423.388 "/>
<path style="fill:#CEB77C;" d="M468.002,222.792h-13.326v15.233v14.252v202.15c0,11.476-9.303,20.78-20.78,20.78H28.763v13.326  c0,8.413,6.82,15.233,15.233,15.233h395.448h28.558c8.413,0,15.233-6.82,15.233-15.233v-13.326V238.024  C483.234,229.612,476.414,222.792,468.002,222.792z"/>
<rect x="221.514" y="475.202" style="fill:#D8A601;" width="68.975" height="28.558"/>
<g>
	<path style="fill:#232323;" d="M468.003,214.553h-37.495c-4.551,0-8.238,3.687-8.238,8.238c0,4.551,3.687,8.238,8.238,8.238h37.495   c3.858,0,6.995,3.137,6.995,6.995v250.506c0,3.858-3.137,6.995-6.995,6.995H298.725v-72.136c0-3.24-1.899-6.18-4.853-7.511   c-2.955-1.332-6.415-0.807-8.842,1.339l-5.936,5.248l-6.061-5.359c-3.117-2.755-7.799-2.756-10.914,0.001l-6.06,5.357l-6.06-5.358   c-3.116-2.755-7.798-2.755-10.914,0l-6.06,5.358l-6.06-5.358c-2.427-2.146-5.887-2.67-8.841-1.339s-4.853,4.271-4.853,7.511v72.246   H43.997c-3.856,0-6.995-3.137-6.995-6.995v-53.873c0-4.551-3.688-8.238-8.238-8.238s-8.238,3.687-8.238,8.238v53.873   c0,12.941,10.529,23.471,23.471,23.471h177.515h68.975h177.515c12.941,0,23.471-10.529,23.471-23.471V238.024   C491.473,225.082,480.944,214.553,468.003,214.553z M229.75,495.525V441.02c2.865,1.242,6.284,0.78,8.736-1.387l6.06-5.359   l6.06,5.359c3.115,2.755,7.798,2.756,10.914-0.001l6.06-5.357l6.061,5.358c2.415,2.134,5.77,2.615,8.611,1.44v54.452H229.75z"/>
	<path style="fill:#232323;" d="M28.763,407.837c4.55,0,8.238-3.687,8.238-8.238V238.024c0-3.858,3.138-6.995,6.995-6.995h35.906   h93.404h34.194h74.869h30.536h32.654h50.349c4.551,0,8.238-3.687,8.238-8.238s-3.687-8.238-8.238-8.238h-44.126l-32.28-113.578   c-1.244-4.376-5.798-6.919-10.177-5.671c-4.376,1.243-6.916,5.8-5.671,10.177l31,109.072h-15.527L264.974,24.021   c-0.347-1.223-0.199-2.508,0.421-3.618c0.62-1.11,1.633-1.912,2.859-2.262l5.206-1.481c2.529-0.716,5.164,0.755,5.881,3.278   l14.823,52.153c1.243,4.375,5.798,6.919,10.177,5.671c4.376-1.243,6.916-5.8,5.671-10.177l-14.823-52.152   C291.988,4.171,280.225-2.39,268.955,0.811l-5.206,1.481c-5.457,1.551-9.982,5.134-12.745,10.089   c-2.761,4.955-3.428,10.687-1.877,16.144L302,214.553h-13.407l-34.17-120.221c-2.583-9.086-10.98-15.434-20.42-15.434   c-1.961,0-3.916,0.274-5.813,0.813l-44.268,12.581c-11.263,3.202-17.822,14.97-14.621,26.233l27.293,96.028h-17.066L143.76,88.705   c-2.582-9.087-10.98-15.435-20.419-15.435c-1.961,0-3.917,0.273-5.813,0.813L56.11,91.539   c-11.263,3.202-17.823,14.97-14.621,26.233l27.507,96.78h-25c-12.941,0-23.471,10.529-23.471,23.471v161.576   C20.525,404.15,24.214,407.837,28.763,407.837z M185.15,114.02c-0.717-2.524,0.754-5.162,3.277-5.881l44.268-12.581   c2.518-0.714,5.181,0.817,5.88,3.278l32.888,115.717h-57.74L185.15,114.02z M57.338,113.268c-0.717-2.524,0.752-5.162,3.277-5.881   l61.417-17.456c2.518-0.712,5.18,0.817,5.88,3.278L162.4,214.553H86.126L57.338,113.268z"/>
	<path style="fill:#232323;" d="M114.892,269.481c-13.485,0-24.456,10.971-24.456,24.457v10.916   c0,13.485,10.971,24.457,24.456,24.457h282.214c13.484,0,24.456-10.971,24.456-24.457v-10.916   c0-13.485-10.971-24.457-24.456-24.457H114.892z M405.085,293.938v10.916c0,4.4-3.58,7.981-7.98,7.981H114.892   c-4.4,0-7.98-3.581-7.98-7.981v-10.916c0-4.4,3.58-7.981,7.98-7.981h282.214C401.507,285.957,405.085,289.538,405.085,293.938z"/>
</g>
<g>
</g>
<g>
</g>
<g>
</g>
<g>
</g>
<g>
</g>
<g>
</g>
<g>
</g>
<g>
</g>
<g>
</g>
<g>
</g>
<g>
</g>
<g>
</g>
<g>
</g>
<g>
</g>
<g>
</g>
</svg>
