<?xml version="1.0" encoding="utf-8"?>
<!-- Generator: Adobe Illustrator 24.0.3, SVG Export Plug-In . SVG Version: 6.00 Build 0)  -->
<svg version="1.1" id="Layer_6" xmlns="http://www.w3.org/2000/svg" xmlns:xlink="http://www.w3.org/1999/xlink" x="0px" y="0px"
	 viewBox="0 0 512 512" style="enable-background:new 0 0 512 512;" xml:space="preserve">
<style type="text/css">
	.st0{fill-rule:evenodd;clip-rule:evenodd;fill:#EDEDED;}
	
		.st1{fill-rule:evenodd;clip-rule:evenodd;fill:#0066FF;stroke:#2E324F;stroke-width:5;stroke-linecap:round;stroke-linejoin:round;stroke-miterlimit:10;}
	
		.st2{fill-rule:evenodd;clip-rule:evenodd;fill:#41B037;stroke:#2E324F;stroke-width:5;stroke-linecap:round;stroke-linejoin:round;stroke-miterlimit:10;}
	
		.st3{fill-rule:evenodd;clip-rule:evenodd;fill:#DEBF42;stroke:#2E324F;stroke-width:5;stroke-linecap:round;stroke-linejoin:round;stroke-miterlimit:10;}
	
		.st4{fill-rule:evenodd;clip-rule:evenodd;fill:#AD2323;stroke:#2E324F;stroke-width:5;stroke-linecap:round;stroke-linejoin:round;stroke-miterlimit:10;}
	
		.st5{fill-rule:evenodd;clip-rule:evenodd;fill:#DEBF42;stroke:#000000;stroke-width:5;stroke-linecap:round;stroke-linejoin:round;stroke-miterlimit:10;}
	.st6{fill:none;stroke:#E8C94F;stroke-width:5;stroke-linecap:round;stroke-linejoin:round;stroke-miterlimit:10;}
	.st7{fill:none;stroke:#CF4D52;stroke-width:5;stroke-linecap:round;stroke-linejoin:round;stroke-miterlimit:10;}
	.st8{fill-rule:evenodd;clip-rule:evenodd;fill:#BF97CC;}
	.st9{fill:#41B536;}
</style>
<g>
	<path class="st0" d="M256.08,415.94c87.98,0,159.85-71.87,159.85-159.85c0-88.14-71.87-160.02-159.85-160.02
		c-88.14,0-160.02,71.88-160.02,160.02C96.06,344.06,167.95,415.94,256.08,415.94L256.08,415.94z"/>
	<polygon class="st1" points="135.32,202.22 219.82,251.02 219.82,348.63 135.32,299.82 	"/>
	<polygon class="st2" points="174.5,224.96 174.5,322.57 135.32,299.82 135.32,202.22 	"/>
	<polygon class="st3" points="219.82,301.98 135.32,253.34 135.32,202.22 219.82,251.02 	"/>
	<polygon class="st4" points="174.5,275.92 135.32,253.34 135.32,202.22 174.5,224.96 	"/>
	<polygon class="st2" points="305.96,202.22 221.47,251.02 221.47,348.63 305.96,299.82 	"/>
	<polygon class="st5" points="266.62,224.96 266.62,322.57 305.96,299.82 305.96,202.22 	"/>
	<polygon class="st1" points="221.47,301.98 305.96,253.18 305.96,202.22 221.47,251.02 	"/>
	<polygon class="st4" points="266.62,275.92 305.96,253.18 305.96,202.22 266.62,224.96 	"/>
	<polygon class="st2" points="305.63,201.55 220.15,250.19 135.32,200.56 220.81,151.92 	"/>
	<polygon class="st3" points="265.79,224.13 180.98,174.49 220.81,151.92 305.63,201.55 	"/>
	<polygon class="st1" points="175.83,224.29 261.31,175.66 305.63,201.55 220.15,250.19 	"/>
	<polygon class="st4" points="221.47,198.23 261.31,175.66 305.63,201.55 265.79,224.13 	"/>
	<polygon class="st1" points="257.99,258.32 316.75,292.19 316.75,360.08 257.99,326.05 	"/>
	<polygon class="st2" points="285.38,274.09 285.38,341.82 257.99,326.05 257.99,258.32 	"/>
	<polygon class="st3" points="316.75,327.71 257.99,293.68 257.99,258.32 316.75,292.19 	"/>
	<polygon class="st4" points="285.38,309.45 257.99,293.68 257.99,258.32 285.38,274.09 	"/>
	<polygon class="st2" points="376.68,258.32 317.91,292.19 317.91,360.08 376.68,326.05 	"/>
	<polygon class="st3" points="349.29,274.09 349.29,341.82 376.68,326.05 376.68,258.32 	"/>
	<polygon class="st1" points="317.91,327.71 376.68,293.68 376.68,258.32 317.91,292.19 	"/>
	<polygon class="st4" points="349.29,309.45 376.68,293.68 376.68,258.32 349.29,274.09 	"/>
	<polygon class="st2" points="376.35,257.82 317.08,291.52 257.99,257.16 317.42,223.3 	"/>
	<polygon class="st3" points="348.79,273.43 289.86,239.07 317.42,223.3 376.35,257.82 	"/>
	<polygon class="st1" points="286.21,273.6 345.64,239.73 376.35,257.82 317.08,291.52 	"/>
	<polygon class="st4" points="317.91,255.5 345.64,239.73 376.35,257.82 348.79,273.43 	"/>
	<polygon class="st6" points="184.09,126.19 187.25,136.15 197.54,136.15 189.24,142.13 192.39,152.09 184.09,145.94 175.63,152.09 
		178.95,142.13 170.48,136.15 180.77,136.15 	"/>
	<polygon class="st7" points="369.51,344.81 372.83,354.6 383.12,354.6 374.82,360.74 377.97,370.54 369.51,364.56 361.21,370.54 
		364.36,360.74 356.07,354.6 366.35,354.6 	"/>
	<path class="st8" d="M156.04,359.08c4.81,0,8.79-3.99,8.79-8.79c0-4.82-3.98-8.8-8.79-8.8c-4.82,0-8.8,3.99-8.8,8.8
		C147.24,355.1,151.22,359.08,156.04,359.08L156.04,359.08z"/>
	<path class="st9" d="M335.98,207.21c-1.38,0-2.5-1.12-2.5-2.5v-25.06c0-1.38,1.12-2.5,2.5-2.5s2.5,1.12,2.5,2.5v25.06
		C338.48,206.09,337.36,207.21,335.98,207.21z"/>
	<path class="st9" d="M348.59,194.76h-25.06c-1.38,0-2.5-1.12-2.5-2.5c0-1.38,1.12-2.5,2.5-2.5h25.06c1.38,0,2.5,1.12,2.5,2.5
		C351.09,193.64,349.97,194.76,348.59,194.76z"/>
</g>
</svg>
