<?xml version="1.0" encoding="utf-8"?>
<!-- Generator: Adobe Illustrator 24.0.0, SVG Export Plug-In . SVG Version: 6.00 Build 0)  -->
<svg version="1.1" xmlns="http://www.w3.org/2000/svg" xmlns:xlink="http://www.w3.org/1999/xlink" x="0px" y="0px"
	 viewBox="0 0 64 64" enable-background="new 0 0 64 64" xml:space="preserve">
<g id="Captions">
</g>
<g id="Icons">
	<g>
		<g>
			<path fill="#F0F0F0" d="M12,26v30h10.459C20.911,54.204,20,51.893,20,49.471V34h6.111c0.927,0,1.854-0.219,2.684-0.634L32,31.764
				l3.205,1.602C36.034,33.781,36.962,34,37.889,34H44v15.471c0,2.423-0.911,4.734-2.459,6.529H52V26H12z"/>
		</g>
		<g>
			<rect x="46" y="12" fill="#46AAD2" width="6" height="12"/>
		</g>
		<g>
			<rect x="44" y="8" fill="#64C8F0" width="10" height="4"/>
		</g>
		<g>
			<rect x="12" y="26" fill="#D2D2D2" width="4.045" height="30"/>
		</g>
		<g>
			<path fill="#3CC8B4" d="M22,36h4.111c1.242,0,2.467-0.289,3.578-0.845L32,34l2.311,1.155C35.422,35.711,36.647,36,37.889,36H42
				v13.47c0,2.81-1.474,5.414-3.884,6.86L32,60l-6.116-3.67C23.474,54.885,22,52.281,22,49.47V36z"/>
		</g>
		<g>
			<path fill="#1EAA96" d="M27.884,56.33C25.474,54.885,24,52.281,24,49.47V36h-2v13.47c0,2.81,1.474,5.414,3.884,6.86L32,60l1-0.6
				L27.884,56.33z"/>
		</g>
		<g>
			<path fill="#FAB400" d="M36,54h-8c-1.105,0-2-0.895-2-2v-6c0-1.105,0.895-2,2-2h8c1.105,0,2,0.895,2,2v6
				C38,53.105,37.105,54,36,54z"/>
		</g>
		<g>
			<path fill="#DC9600" d="M28,52v-6c0-1.105,0.895-2,2-2h-2c-1.105,0-2,0.895-2,2v6c0,1.105,0.895,2,2,2h2
				C28.895,54,28,53.105,28,52z"/>
		</g>
		<g>
			<path fill="#505050" d="M29,44v-3c0-1.105,0.895-2,2-2h2c1.105,0,2,0.895,2,2v3h1v-3c0-1.657-1.343-3-3-3h-2
				c-1.657,0-3,1.343-3,3v3H29z"/>
		</g>
		<g>
			<path fill="#BE7800" d="M34,48c0-1.105-0.895-2-2-2s-2,0.895-2,2c0,0.738,0.405,1.376,1,1.723V51c0,0.552,0.448,1,1,1
				s1-0.448,1-1v-1.277C33.595,49.376,34,48.738,34,48z"/>
		</g>
		<g>
			<path fill="#64C8F0" d="M41.992,11.851C41.993,11.901,42,11.95,42,12c0,5.514-4.486,10-10,10s-10-4.486-10-10
				c0-0.05,0.007-0.099,0.008-0.149L4,26h56L41.992,11.851z"/>
		</g>
		<g>
			<path fill="#46AAD2" d="M22,12c0-0.05,0.007-0.099,0.008-0.149L4,26h4l14.381-11.299C22.139,13.84,22,12.937,22,12z"/>
		</g>
		<g>
			<circle fill="#3CC8B4" cx="32" cy="12" r="8"/>
		</g>
		<g>
			<path fill="#1EAA96" d="M25.983,12c0-4.082,3.059-7.443,7.009-7.932C32.666,4.027,32.336,4,32,4c-4.418,0-8,3.582-8,8
				s3.582,8,8,8c0.336,0,0.666-0.027,0.991-0.068C29.042,19.443,25.983,16.082,25.983,12z"/>
		</g>
		<g>
			<polygon fill="#F0F0F0" points="37,10 31,16 27,12 29,10 31,12 35,8 			"/>
		</g>
	</g>
</g>
</svg>
