<?xml version="1.0" encoding="iso-8859-1"?>
<!-- Generator: Adobe Illustrator 19.0.0, SVG Export Plug-In . SVG Version: 6.00 Build 0)  -->
<svg xmlns="http://www.w3.org/2000/svg" xmlns:xlink="http://www.w3.org/1999/xlink" version="1.1" id="Layer_1" x="0px" y="0px" viewBox="0 0 512 512" style="enable-background:new 0 0 512 512;" xml:space="preserve">
<path style="fill:#427AA1;" d="M116.674,294.959l-2.76-7.46c-6.197-16.751-9.339-34.403-9.339-52.463  c0-83.495,67.928-151.423,151.423-151.423s151.423,67.928,151.423,151.423c0,18.052-3.142,35.703-9.339,52.462l-2.76,7.461  L255.998,412.471L116.674,294.959z"/>
<path style="fill:#17688C;" d="M391.601,286.381c-6.073-4.857-13.719-7.533-21.527-7.533c-9.677,0-18.957,4.068-25.459,11.162  c0,0-36.07,39.606-62.846,69.318c-15.343,17.024-42.006,17.135-57.49,0.239c-24.812-27.074-56.469-61.617-56.469-61.617  c-0.027-0.029-0.054-0.059-0.081-0.088c-6.573-7.117-10.526-16.274-10.613-25.963c-0.004-0.457-0.006-0.914-0.006-1.371  c0-83.495,67.928-151.423,151.423-151.423c19.947,0,39,3.885,56.455,10.924c-27.561-28.597-66.232-46.417-108.99-46.417  c-83.495,0-151.423,67.928-151.423,151.423c0,18.06,3.142,35.711,9.339,52.463l2.76,7.46l1.764,1.488l0,0l137.56,116.023  l139.324-117.512l0.692-1.871C394.161,290.039,392.222,286.878,391.601,286.381z"/>
<path style="fill:#A5BE00;" d="M105.97,257.13l-0.729-7.822c-0.442-4.75-0.666-9.551-0.666-14.271  c0-24.885,6.205-49.589,17.941-71.439l2.44-4.542h109.487c12.183,0,22.094,9.911,22.094,22.094s-9.911,22.094-22.094,22.094h-40.867  c11.453,3.315,19.851,13.899,19.851,26.405c0,15.154-12.328,27.482-27.482,27.482L105.97,257.13L105.97,257.13z"/>
<path style="fill:#99A805;" d="M104.624,238.767c0.028,1.128,0.067,2.258,0.119,3.39c0,0.009,0.001,0.017,0.001,0.025  c0.055,1.179,0.124,2.359,0.206,3.538c0.002,0.028,0.004,0.056,0.006,0.085c0.08,1.137,0.172,2.273,0.277,3.406  c0.246,2.652,0.563,5.293,0.946,7.919h51.529c3.407-38.673,21.408-73.218,48.455-98.075H125.06  c-0.713,1.225-1.415,2.458-2.095,3.704l-0.303,0.564c-0.088,0.163-0.172,0.328-0.259,0.49c-0.652,1.219-1.287,2.448-1.905,3.684  c-0.077,0.153-0.153,0.306-0.228,0.46c-8.844,17.853-14.083,37.432-15.375,57.356c-0.016,0.246-0.032,0.491-0.047,0.738  c-0.072,1.203-0.125,2.408-0.168,3.614c-0.011,0.324-0.028,0.648-0.037,0.973c-0.043,1.465-0.068,2.93-0.068,4.397  c0,1.174,0.014,2.352,0.042,3.533C104.618,238.635,104.622,238.701,104.624,238.767z"/>
<g>
	<path style="fill:#A5BE00;" d="M352.995,224.798c-12.183,0-22.094-9.911-22.094-22.094c0-9.802,6.417-18.134,15.272-21.016H331.44   c-12.183,0-22.094-9.911-22.094-22.094s9.911-22.094,22.094-22.094h40.366l2.588,3.244c17.147,21.489,28.111,47.181,31.705,74.297   l1.292,9.755h-54.396V224.798z"/>
	<path style="fill:#A5BE00;" d="M272.164,300.24c-9.211,0-16.705-7.494-16.705-16.705s7.494-16.705,16.705-16.705h32.332   c9.211,0,16.705,7.494,16.705,16.705s-7.494,16.705-16.705,16.705H272.164z"/>
</g>
<path style="fill:#EABB71;" d="M99.269,503.933c-8.365,0-15.17-6.806-15.17-15.171v-70.509c0-0.115-0.032-0.219-0.1-0.313  l-53.787-75.302V229.648c0-20.502,16.68-37.182,37.182-37.182s37.182,16.68,37.182,37.182v75.807l-1.128,1.824  c-2.873,4.644-4.594,9.813-5.115,15.363c-0.912,9.69,2.076,19.095,8.409,26.484l41.074,47.921c0.044,0.052,0.162,0.19,0.414,0.19  c0.171,0,0.275-0.069,0.345-0.129c0.14-0.12,0.179-0.267,0.186-0.369c0.008-0.101-0.008-0.253-0.127-0.391l-41.073-47.921  c-6.142-7.165-9.039-16.286-8.155-25.683c0.885-9.397,5.43-17.818,12.799-23.711c6.072-4.858,13.718-7.535,21.526-7.535  c9.677,0,18.956,4.068,25.46,11.161l85.253,93.004c7.107,7.752,11.02,17.813,11.02,28.331v79.939L99.269,503.933L99.269,503.933z"/>
<g>
	<path style="fill:#EAB063;" d="M107.559,348.427l41.073,47.921c0.082,0.095,8.62-6.535,16.699-13.414   c5.671-4.827,6.193-13.402,1.16-18.892l-36.625-39.955c-6.503-7.094-15.784-11.161-25.46-11.161c-0.886,0-1.769,0.038-2.648,0.106   c-1.233,3.063-2.035,6.323-2.355,9.713C98.52,332.14,101.417,341.261,107.559,348.427z"/>
	<path style="fill:#EAB063;" d="M128.372,474.83c-8.378,0-15.17-6.792-15.17-15.17v-62.824c0-5.112-1.597-10.095-4.569-14.254   l-44.85-62.79c-2.906-4.068-4.468-8.943-4.468-13.943V200.544c0-2.514,0.254-4.971,0.732-7.347   c-16.995,3.42-29.835,18.462-29.835,36.45v112.991l53.787,75.302c0.065,0.091,0.1,0.2,0.1,0.311v70.51   c0,8.378,6.792,15.171,15.171,15.171h156.19V474.83L128.372,474.83L128.372,474.83z"/>
</g>
<path style="fill:#EABB71;" d="M256.537,503.933v-79.939c0-10.517,3.913-20.578,11.02-28.331l85.253-93.003  c6.502-7.094,15.783-11.162,25.46-11.162c7.808,0,15.454,2.675,21.527,7.533c7.369,5.895,11.913,14.317,12.798,23.711  c0.883,9.397-2.013,18.518-8.155,25.684l-41.074,47.921c-0.193,0.225-0.167,0.566,0.059,0.76c0.07,0.061,0.174,0.13,0.345,0.13  c0.252,0,0.371-0.137,0.415-0.189l41.074-47.92c6.333-7.389,9.319-16.794,8.409-26.484c-0.521-5.55-2.242-10.719-5.115-15.363  l-1.128-1.824v-75.807c0-20.502,16.68-37.182,37.182-37.182s37.182,16.68,37.182,37.182v112.991l-53.786,75.301  c-0.068,0.094-0.101,0.197-0.101,0.314v70.509c0,8.365-6.805,15.171-15.17,15.171H256.537V503.933z"/>
<g>
	<path style="fill:#EAB063;" d="M436.72,304.908c8.597,0,15.567-6.97,15.567-15.567v-59.328c0-12.188,5.895-23.025,14.984-29.81   c-6.409-4.946-14.464-7.857-23.194-7.734c-20.448,0.286-36.655,17.451-36.655,37.901v74.537h29.298V304.908z"/>
	<path style="fill:#EAB063;" d="M301.402,424.359c0-10.517,3.913-20.578,11.02-28.331l85.253-93.003   c1.008-1.099,2.09-2.118,3.222-3.067c-0.361-0.315-0.725-0.626-1.101-0.927c-6.073-4.857-13.719-7.533-21.527-7.533   c-9.677,0-18.957,4.068-25.46,11.162l-85.253,93.003c-7.107,7.752-11.02,17.813-11.02,28.331v79.939h44.865V424.359z"/>
</g>
<g>
	<path style="fill:#679436;" d="M235.371,46.454c-6.664,1.29-13.182-0.737-17.796-5.352c-4.836-4.836-5.5-16.041-5.204-24.59   l0.183-5.323c0.053-1.53,1.28-2.758,2.811-2.812l5.323-0.185c1.037-0.037,2.065-0.054,3.077-0.054   c16.258,0,20.215,3.957,21.516,5.257c3.697,3.697,5.733,8.617,5.733,13.853c0,6.572-3.208,12.646-8.882,16.429   C240.09,45.04,237.781,45.987,235.371,46.454z"/>
	<path style="fill:#679436;" d="M280.568,46.835c-6.572,0-12.644-3.206-16.426-8.877c-1.361-2.041-2.31-4.351-2.777-6.76   c-1.292-6.665,0.735-13.186,5.351-17.801c1.297-1.299,5.253-5.257,21.532-5.257c1.008,0,2.027,0.017,3.058,0.053l5.063,0.175   c1.677,0.058,3.023,1.404,3.081,3.081l0.175,5.064c0.294,8.55-0.369,19.755-5.203,24.59   C290.725,44.799,285.806,46.835,280.568,46.835z"/>
</g>
<g>
	<path style="fill:#557C18;" d="M232.16,29.758c-4.283-4.283-5.291-13.559-5.262-21.565c-0.992-0.034-2.033-0.054-3.135-0.054   c-1.012,0-2.041,0.017-3.077,0.054l-5.323,0.185c-1.53,0.053-2.758,1.281-2.811,2.812l-0.183,5.323   c-0.294,8.549,0.369,19.754,5.204,24.59c4.614,4.615,11.132,6.641,17.796,5.352c2.409-0.467,4.719-1.414,6.761-2.775   c3.264-2.177,5.708-5.114,7.198-8.467C242.886,36.26,236.63,34.227,232.16,29.758z"/>
	<path style="fill:#557C18;" d="M295.154,35.49c-6.572,0-12.644-3.206-16.426-8.877c-1.361-2.041-2.31-4.351-2.777-6.76   c-0.731-3.768-0.399-7.49,0.861-10.849c-6.94,1.24-9.182,3.476-10.095,4.391c-4.616,4.615-6.643,11.136-5.351,17.801   c0.468,2.409,1.415,4.718,2.777,6.76c3.783,5.671,9.854,8.877,16.426,8.877c5.237,0,10.157-2.036,13.853-5.733   c1.443-1.443,2.507-3.46,3.293-5.797C296.87,35.415,296.019,35.49,295.154,35.49z"/>
</g>
<path d="M304.496,259.286h-32.332c-13.37,0-24.249,10.878-24.249,24.249s10.879,24.249,24.249,24.249h32.332  c13.37,0,24.249-10.878,24.249-24.249S317.868,259.286,304.496,259.286z M304.496,291.618h-32.332c-4.458,0-8.083-3.626-8.083-8.083  s3.626-8.083,8.083-8.083h32.332c4.458,0,8.083,3.626,8.083,8.083S308.954,291.618,304.496,291.618z"/>
<path d="M444.603,183.289c-13.377,0-25.43,5.766-33.813,14.941c-15.854-67.712-75.113-118.9-146.709-122.504V48.239  c4.847,3.714,10.665,5.578,16.487,5.578c6.948,0,13.897-2.646,19.188-7.935c9.491-9.492,7.602-31.59,6.798-38.136  c-0.453-3.683-3.354-6.584-7.037-7.037c-6.548-0.805-28.644-2.693-38.137,6.798c-2.291,2.291-4.084,4.894-5.382,7.672  c-1.299-2.778-3.092-5.381-5.382-7.672c-9.492-9.492-31.591-7.602-38.137-6.798c-3.683,0.453-6.584,3.354-7.037,7.037  c-0.804,6.547-2.692,28.645,6.798,38.136c5.291,5.291,12.239,7.935,19.188,7.935c5.822,0,11.641-1.864,16.487-5.578v27.487  c-71.596,3.604-130.855,54.791-146.71,122.504c-8.382-9.175-20.436-14.941-33.812-14.941c-25.257,0-45.804,20.547-45.804,45.804  v113.163c0,1.685,0.526,3.327,1.506,4.698l52.382,73.334v67.919C75.478,501.326,86.151,512,99.27,512H412.73  c13.119,0,23.792-10.673,23.792-23.793v-67.919l52.382-73.334c0.98-1.371,1.506-3.013,1.506-4.698V229.093  C490.407,203.836,469.86,183.289,444.603,183.289z M272.813,18.938c1.922-1.924,9.778-2.975,18.196-2.685  c0.291,8.427-0.761,16.274-2.684,18.197c-4.275,4.276-11.237,4.276-15.512,0C268.535,30.174,268.535,23.215,272.813,18.938z   M239.184,34.451c-4.278,4.278-11.237,4.276-15.512,0c-1.923-1.923-2.976-9.772-2.685-18.197c8.43-0.293,16.274,0.761,18.197,2.684  C243.462,23.215,243.462,30.174,239.184,34.451z M397.552,215.621h-44.557c-7.429,0-13.472-6.043-13.472-13.472  c0-7.429,6.043-13.472,13.472-13.472c4.465,0,8.083-3.619,8.083-8.083s-3.618-8.083-8.083-8.083H331.44  c-7.429,0-13.472-6.043-13.472-13.472c0-7.429,6.043-13.472,13.472-13.472h36.215C383.428,165.333,394.072,189.361,397.552,215.621z   M130.113,167.122h104.33c7.429,0,13.472,6.043,13.472,13.472c0,7.429-6.043,13.472-13.472,13.472h-48.498  c-4.465,0-8.083,3.619-8.083,8.083s3.618,8.083,8.083,8.083c10.399,0,18.86,8.461,18.86,18.861s-8.461,18.86-18.86,18.86h-72.118  c-0.415-4.453-0.629-8.945-0.629-13.472C113.197,210.137,119.326,187.201,130.113,167.122z M255.998,396.034  c-1.535-2.374-3.264-4.638-5.203-6.752l-26.375-28.772c-3.109-3.393-8.419-3.508-11.674-0.253l0,0  c-3.06,3.06-3.167,7.987-0.243,11.177l26.375,28.772c5.812,6.34,9.037,14.63,9.037,23.232v72.396H99.269  c-4.212,0-7.626-3.414-7.626-7.626v-70.51c0-1.685-0.526-3.327-1.506-4.698l-52.382-73.334V229.723  c0-16.126,12.62-29.776,28.739-30.255c16.75-0.498,30.537,12.984,30.537,29.625v73.663c-3.442,5.565-5.578,11.896-6.211,18.627  c-1.104,11.744,2.515,23.145,10.192,32.101l41.074,47.921c2.905,3.389,8.008,3.784,11.397,0.876  c3.39-2.905,3.782-8.008,0.876-11.397l-41.074-47.921c-5.397-6.296-7.586-14.524-5.975-22.817c0.898-4.624,3.037-8.959,6.156-12.489  c10.846-12.278,29.555-12.019,40.159-0.453l32.247,35.18c3.109,3.393,8.419,3.508,11.674,0.253l0,0  c3.06-3.06,3.167-7.987,0.242-11.177l-32.248-35.18c-11.284-12.309-28.303-16.605-43.543-12.325  c-2.398-6.482-4.301-13.102-5.723-19.835h68.958c19.288,0,35.491-15.291,35.734-34.578c0.089-7.108-1.95-13.744-5.519-19.309h18.364  c16.127,0,29.777-12.62,30.255-28.741c0.497-16.75-12.985-30.535-29.625-30.535h-94.198C166.21,115.074,208.42,91.68,255.998,91.68  c37.214,0,71.145,14.315,96.588,37.721h-20.526c-16.375,0-30.33,13.395-30.259,29.769c0.065,14.701,10.887,26.91,24.986,29.141  c-2.394,4.517-3.655,9.722-3.4,15.236c0.736,15.913,14.276,28.238,30.205,28.238h45.17c0.017,0.897,0.035,1.793,0.035,2.694  c0,17.066-2.963,33.675-8.804,49.472c-15.239-4.279-32.258,0.017-43.541,12.326L261.2,389.281  C259.263,391.396,257.533,393.661,255.998,396.034z M474.241,339.665l-52.382,73.334c-0.98,1.371-1.506,3.013-1.506,4.698v70.509  c0,4.205-3.422,7.627-7.626,7.627H264.081v-72.395c0-8.624,3.21-16.875,9.037-23.233l85.253-93.003  c9.55-10.419,25.676-11.662,36.712-2.834c5.757,4.606,9.308,11.186,9.998,18.526c0.691,7.342-1.572,14.468-6.372,20.066  l-41.074,47.921c-2.905,3.389-2.512,8.493,0.876,11.397c3.391,2.907,8.493,2.511,11.397-0.876l41.074-47.921  c7.677-8.956,11.296-20.356,10.192-32.101c-0.633-6.73-2.768-13.061-6.211-18.627v-73.663c0-16.343,13.296-29.638,29.638-29.638  c16.342,0,29.638,13.295,29.638,29.638v110.573H474.241z"/>
<g>
</g>
<g>
</g>
<g>
</g>
<g>
</g>
<g>
</g>
<g>
</g>
<g>
</g>
<g>
</g>
<g>
</g>
<g>
</g>
<g>
</g>
<g>
</g>
<g>
</g>
<g>
</g>
<g>
</g>
</svg>
